G04 #@! TF.FileFunction,Copper,L1,Top,Signal*
%FSLAX46Y46*%
G04 Gerber Fmt 4.6, Leading zero omitted, Abs format (unit mm)*
G04 Created by KiCad (PCBNEW 4.0.5+dfsg1-4~bpo8+1) date Sat Aug  5 17:38:17 2017*
%MOMM*%
%LPD*%
G01*
G04 APERTURE LIST*
%ADD10C,0.100000*%
%ADD11C,4.064000*%
%ADD12R,0.350000X0.300000*%
%ADD13R,0.300000X0.350000*%
%ADD14R,1.727200X1.727200*%
%ADD15O,1.727200X1.727200*%
%ADD16R,0.800000X0.800000*%
%ADD17R,1.140000X2.030000*%
%ADD18R,1.650000X0.400000*%
%ADD19C,1.270000*%
%ADD20R,2.500000X1.430000*%
%ADD21R,1.727200X2.032000*%
%ADD22O,1.727200X2.032000*%
%ADD23R,0.280000X0.430000*%
%ADD24R,0.430000X0.280000*%
%ADD25R,1.500000X0.550000*%
%ADD26R,0.550000X1.500000*%
%ADD27R,1.800000X1.200000*%
%ADD28C,18.000000*%
%ADD29C,0.685800*%
%ADD30C,0.152400*%
%ADD31C,0.254000*%
G04 APERTURE END LIST*
D10*
D11*
X539000000Y-242000000D03*
X539000000Y-278000000D03*
X348000000Y-278000000D03*
X348000000Y-242000000D03*
X110000000Y-242000000D03*
X110000000Y-278000000D03*
X75000000Y-278000000D03*
D12*
X93000000Y-267780000D03*
X93000000Y-267220000D03*
D13*
X89780000Y-267500000D03*
X89220000Y-267500000D03*
D12*
X89000000Y-250220000D03*
X89000000Y-250780000D03*
D13*
X83280000Y-261500000D03*
X82720000Y-261500000D03*
D14*
X80500000Y-271500000D03*
D15*
X77960000Y-271500000D03*
X80500000Y-268960000D03*
X77960000Y-268960000D03*
X80500000Y-266420000D03*
X77960000Y-266420000D03*
D16*
X99800000Y-249500000D03*
X98200000Y-249500000D03*
X103800000Y-249500000D03*
X102200000Y-249500000D03*
D17*
X81200000Y-257000000D03*
X78800000Y-257000000D03*
D18*
X72916000Y-258444000D03*
X72916000Y-259094000D03*
X72916000Y-259744000D03*
X72916000Y-260394000D03*
X72916000Y-261044000D03*
D19*
X73036000Y-257324000D03*
X73036000Y-262164000D03*
X70036000Y-257014000D03*
X70036000Y-262474000D03*
D20*
X69796000Y-258784000D03*
X69796000Y-260704000D03*
D21*
X95500000Y-270500000D03*
D22*
X98040000Y-270500000D03*
X100580000Y-270500000D03*
X103120000Y-270500000D03*
D23*
X86240000Y-267000000D03*
X86760000Y-267000000D03*
X80260000Y-261500000D03*
X79740000Y-261500000D03*
X80260000Y-259000000D03*
X79740000Y-259000000D03*
X103260000Y-255000000D03*
X102740000Y-255000000D03*
X102740000Y-265000000D03*
X103260000Y-265000000D03*
X103260000Y-252500000D03*
X102740000Y-252500000D03*
X103260000Y-262500000D03*
X102740000Y-262500000D03*
X103260000Y-260000000D03*
X102740000Y-260000000D03*
X103260000Y-257500000D03*
X102740000Y-257500000D03*
D24*
X92500000Y-250760000D03*
X92500000Y-250240000D03*
X100000000Y-252740000D03*
X100000000Y-253260000D03*
D25*
X86544000Y-255236000D03*
X86544000Y-256036000D03*
X86544000Y-256836000D03*
X86544000Y-257636000D03*
X86544000Y-258436000D03*
X86544000Y-259236000D03*
X86544000Y-260036000D03*
X86544000Y-260836000D03*
X86544000Y-261636000D03*
X86544000Y-262436000D03*
X86544000Y-263236000D03*
D26*
X88244000Y-264936000D03*
X89044000Y-264936000D03*
X89844000Y-264936000D03*
X90644000Y-264936000D03*
X91444000Y-264936000D03*
X92244000Y-264936000D03*
X93044000Y-264936000D03*
X93844000Y-264936000D03*
X94644000Y-264936000D03*
X95444000Y-264936000D03*
X96244000Y-264936000D03*
D25*
X97944000Y-263236000D03*
X97944000Y-262436000D03*
X97944000Y-261636000D03*
X97944000Y-260836000D03*
X97944000Y-260036000D03*
X97944000Y-259236000D03*
X97944000Y-258436000D03*
X97944000Y-257636000D03*
X97944000Y-256836000D03*
X97944000Y-256036000D03*
X97944000Y-255236000D03*
D26*
X96244000Y-253536000D03*
X95444000Y-253536000D03*
X94644000Y-253536000D03*
X93844000Y-253536000D03*
X93044000Y-253536000D03*
X92244000Y-253536000D03*
X91444000Y-253536000D03*
X90644000Y-253536000D03*
X89844000Y-253536000D03*
X89044000Y-253536000D03*
X88244000Y-253536000D03*
D27*
X91000000Y-269300000D03*
X87000000Y-269300000D03*
X87000000Y-271700000D03*
X91000000Y-271700000D03*
D11*
X75000000Y-242000000D03*
D19*
X169058000Y-266434000D03*
D28*
X174900000Y-261100000D03*
D19*
X180488000Y-255512000D03*
X238058000Y-266434000D03*
D28*
X243900000Y-261100000D03*
D19*
X249488000Y-255512000D03*
X306058000Y-266434000D03*
D28*
X311900000Y-261100000D03*
D19*
X317488000Y-255512000D03*
X374058000Y-266434000D03*
D28*
X379900000Y-261100000D03*
D19*
X385488000Y-255512000D03*
X442058000Y-266434000D03*
D28*
X447900000Y-261100000D03*
D19*
X453488000Y-255512000D03*
X511058000Y-266434000D03*
D28*
X516900000Y-261100000D03*
D19*
X522488000Y-255512000D03*
D29*
X85000000Y-269500000D03*
X84800000Y-258600000D03*
X95500000Y-251500000D03*
X76500000Y-260500000D03*
X103000000Y-267500000D03*
X83500000Y-267000000D03*
X74500000Y-270000000D03*
X85000000Y-267000000D03*
X84500000Y-261500000D03*
X84000000Y-263500000D03*
X83500000Y-266000000D03*
X99400000Y-260000000D03*
X101600000Y-265000000D03*
X85000000Y-252700000D03*
X86800000Y-250900000D03*
X108762802Y-255016000D03*
X108813600Y-264972799D03*
X108813600Y-252425202D03*
X365302800Y-252323600D03*
X108762796Y-262432800D03*
X265800000Y-253800000D03*
X199288400Y-259638800D03*
X429006000Y-246329202D03*
X108757598Y-259961562D03*
X207822800Y-254711200D03*
X511352800Y-248412000D03*
X108810000Y-257190000D03*
D30*
X351800000Y-247400000D02*
X351800000Y-247400000D01*
X104428601Y-248917119D02*
X104382881Y-248871399D01*
X92244000Y-264936000D02*
X92244000Y-265744000D01*
X92244000Y-265744000D02*
X93000000Y-266500000D01*
X93000000Y-266500000D02*
X93500000Y-266500000D01*
X93500000Y-266500000D02*
X94000000Y-267000000D01*
X94000000Y-267000000D02*
X94000000Y-268000000D01*
X94000000Y-268000000D02*
X93500000Y-268500000D01*
X93500000Y-268500000D02*
X93000000Y-268500000D01*
X91000000Y-269300000D02*
X92200000Y-269300000D01*
X92200000Y-269300000D02*
X93000000Y-268500000D01*
X93000000Y-268500000D02*
X93000000Y-267780000D01*
X91500000Y-268800000D02*
X91500000Y-268500000D01*
X86544000Y-258436000D02*
X84964000Y-258436000D01*
X84964000Y-258436000D02*
X84800000Y-258600000D01*
X89044000Y-253536000D02*
X89044000Y-252544000D01*
X88280000Y-250220000D02*
X89000000Y-250220000D01*
X88000000Y-250500000D02*
X88280000Y-250220000D01*
X88000000Y-251500000D02*
X88000000Y-250500000D01*
X89044000Y-252544000D02*
X88000000Y-251500000D01*
X95444000Y-253536000D02*
X95444000Y-251556000D01*
X95444000Y-251556000D02*
X95500000Y-251500000D01*
X90644000Y-264936000D02*
X90644000Y-265999602D01*
X90644000Y-265999602D02*
X90143602Y-266500000D01*
X90143602Y-266500000D02*
X89136398Y-266500000D01*
X89136398Y-266500000D02*
X88136398Y-267500000D01*
X87000000Y-269300000D02*
X86200000Y-269300000D01*
X86200000Y-269300000D02*
X85500000Y-270000000D01*
X85500000Y-270000000D02*
X85500000Y-272500000D01*
X85500000Y-272500000D02*
X86000000Y-273000000D01*
X86000000Y-273000000D02*
X89700000Y-273000000D01*
X89700000Y-273000000D02*
X91000000Y-271700000D01*
X89220000Y-267500000D02*
X88136398Y-267500000D01*
X88136398Y-267500000D02*
X88000000Y-267500000D01*
X88000000Y-267500000D02*
X87000000Y-268500000D01*
X87000000Y-268500000D02*
X87000000Y-269300000D01*
X87000000Y-269300000D02*
X87200000Y-269300000D01*
X90500000Y-265080000D02*
X90644000Y-264936000D01*
X82720000Y-261500000D02*
X81500000Y-261500000D01*
X81500000Y-261500000D02*
X80500000Y-262500000D01*
X80500000Y-262500000D02*
X79500000Y-262500000D01*
X79500000Y-262500000D02*
X78500000Y-261500000D01*
X78500000Y-261500000D02*
X77500000Y-260500000D01*
X77500000Y-260500000D02*
X76500000Y-260500000D01*
X72916000Y-260394000D02*
X76394000Y-260394000D01*
X76394000Y-260394000D02*
X76500000Y-260500000D01*
X103120000Y-270500000D02*
X103120000Y-267620000D01*
X103120000Y-267620000D02*
X103000000Y-267500000D01*
X87500000Y-268800000D02*
X87200000Y-268800000D01*
X87500000Y-268800000D02*
X87500000Y-269000000D01*
X92500000Y-250240000D02*
X89020000Y-250240000D01*
X89020000Y-250240000D02*
X89000000Y-250220000D01*
X97944000Y-255236000D02*
X98024000Y-255236000D01*
X98024000Y-255236000D02*
X100000000Y-253260000D01*
X87000000Y-271700000D02*
X87300000Y-271700000D01*
X87300000Y-271700000D02*
X89000000Y-270000000D01*
X89000000Y-270000000D02*
X89000000Y-269000000D01*
X89000000Y-269000000D02*
X89780000Y-268220000D01*
X89780000Y-268220000D02*
X89780000Y-267500000D01*
X91444000Y-264936000D02*
X91444000Y-265836000D01*
X91444000Y-265836000D02*
X89780000Y-267500000D01*
X87500000Y-271200000D02*
X87800000Y-271200000D01*
X89844000Y-253536000D02*
X89844000Y-251624000D01*
X89844000Y-251624000D02*
X89000000Y-250780000D01*
X83280000Y-261500000D02*
X83280000Y-261220000D01*
X83280000Y-261220000D02*
X85264000Y-259236000D01*
X85264000Y-259236000D02*
X86544000Y-259236000D01*
X243900000Y-261100000D02*
X187627922Y-261100000D01*
X187627922Y-261100000D02*
X174900000Y-261100000D01*
X174900000Y-261100000D02*
X112200000Y-261100000D01*
X99636000Y-261636000D02*
X101600000Y-263600000D01*
X99636000Y-261636000D02*
X97944000Y-261636000D01*
X109700000Y-263600000D02*
X101600000Y-263600000D01*
X112200000Y-261100000D02*
X109700000Y-263600000D01*
X311900000Y-261100000D02*
X243900000Y-261100000D01*
X447900000Y-261100000D02*
X311900000Y-261100000D01*
X516900000Y-261100000D02*
X447900000Y-261100000D01*
X172400000Y-263600000D02*
X174900000Y-261100000D01*
X86544000Y-263236000D02*
X85264000Y-263236000D01*
X85264000Y-263236000D02*
X84500000Y-264000000D01*
X84500000Y-264000000D02*
X84500000Y-266000000D01*
X84500000Y-266000000D02*
X83500000Y-267000000D01*
X77960000Y-271500000D02*
X76000000Y-271500000D01*
X76000000Y-271500000D02*
X74500000Y-270000000D01*
X86240000Y-267000000D02*
X85000000Y-267000000D01*
X97944000Y-262436000D02*
X98936000Y-262436000D01*
X98936000Y-262436000D02*
X100580000Y-264080000D01*
X100580000Y-264080000D02*
X100580000Y-270500000D01*
X86508000Y-260000000D02*
X86544000Y-260036000D01*
X96244000Y-253536000D02*
X96964000Y-253536000D01*
X99800000Y-250700000D02*
X99800000Y-249500000D01*
X96964000Y-253536000D02*
X99800000Y-250700000D01*
X86544000Y-256036000D02*
X84036000Y-256036000D01*
X84036000Y-256036000D02*
X83072000Y-257000000D01*
X83072000Y-257000000D02*
X81200000Y-257000000D01*
X86544000Y-261636000D02*
X84636000Y-261636000D01*
X84636000Y-261636000D02*
X84500000Y-261500000D01*
X84000000Y-263500000D02*
X84000000Y-265500000D01*
X84000000Y-265500000D02*
X83500000Y-266000000D01*
X77960000Y-268960000D02*
X77460000Y-268960000D01*
X77460000Y-268960000D02*
X75500000Y-267000000D01*
X75500000Y-267000000D02*
X75500000Y-265000000D01*
X75500000Y-265000000D02*
X77500000Y-263000000D01*
X77500000Y-263000000D02*
X81500000Y-263000000D01*
X81500000Y-263000000D02*
X82064000Y-262436000D01*
X82064000Y-262436000D02*
X86544000Y-262436000D01*
X86760000Y-267000000D02*
X86760000Y-267740000D01*
X86760000Y-267740000D02*
X86500000Y-268000000D01*
X86500000Y-268000000D02*
X83500000Y-268000000D01*
X83500000Y-268000000D02*
X81920000Y-266420000D01*
X81920000Y-266420000D02*
X80500000Y-266420000D01*
X89044000Y-264936000D02*
X89044000Y-265956000D01*
X89044000Y-265956000D02*
X88000000Y-267000000D01*
X88000000Y-267000000D02*
X86760000Y-267000000D01*
X92500000Y-250760000D02*
X96940000Y-250760000D01*
X96940000Y-250760000D02*
X98200000Y-249500000D01*
X98000000Y-249500000D02*
X98200000Y-249500000D01*
X103800000Y-249500000D02*
X103800000Y-250200000D01*
X99964000Y-256036000D02*
X97944000Y-256036000D01*
X101500000Y-254500000D02*
X99964000Y-256036000D01*
X101500000Y-252500000D02*
X101500000Y-254500000D01*
X103800000Y-250200000D02*
X101500000Y-252500000D01*
X100000000Y-252740000D02*
X100260000Y-252740000D01*
X102200000Y-250800000D02*
X102200000Y-249500000D01*
X100260000Y-252740000D02*
X102200000Y-250800000D01*
X78800000Y-257000000D02*
X77500000Y-257000000D01*
X77500000Y-257000000D02*
X76056000Y-258444000D01*
X76056000Y-258444000D02*
X72916000Y-258444000D01*
X72916000Y-259094000D02*
X79646000Y-259094000D01*
X79646000Y-259094000D02*
X79740000Y-259000000D01*
X79740000Y-261500000D02*
X79500000Y-261500000D01*
X79500000Y-261500000D02*
X77744000Y-259744000D01*
X77744000Y-259744000D02*
X72916000Y-259744000D01*
X95500000Y-270500000D02*
X95500000Y-268500000D01*
X95500000Y-268500000D02*
X94644000Y-267644000D01*
X94644000Y-267644000D02*
X94644000Y-264936000D01*
X98040000Y-270500000D02*
X98040000Y-270040000D01*
X98040000Y-270040000D02*
X95444000Y-267444000D01*
X95444000Y-267444000D02*
X95444000Y-264936000D01*
X80260000Y-261500000D02*
X80500000Y-261500000D01*
X80500000Y-261500000D02*
X84364000Y-257636000D01*
X84364000Y-257636000D02*
X86544000Y-257636000D01*
X80260000Y-259000000D02*
X82000000Y-259000000D01*
X82000000Y-259000000D02*
X84164000Y-256836000D01*
X84164000Y-256836000D02*
X86544000Y-256836000D01*
X97944000Y-256836000D02*
X100164000Y-256836000D01*
X102000000Y-255000000D02*
X102740000Y-255000000D01*
X100164000Y-256836000D02*
X102000000Y-255000000D01*
X102740000Y-265000000D02*
X101600000Y-265000000D01*
X99364000Y-260036000D02*
X97944000Y-260036000D01*
X99400000Y-260000000D02*
X99364000Y-260036000D01*
X104052800Y-250647200D02*
X102700000Y-252000000D01*
X85736000Y-255236000D02*
X85000000Y-254500000D01*
X85000000Y-254500000D02*
X85000000Y-252700000D01*
X86800000Y-250900000D02*
X88100000Y-249600000D01*
X88100000Y-249600000D02*
X96400000Y-249600000D01*
X96400000Y-249600000D02*
X97600000Y-248400000D01*
X97600000Y-248400000D02*
X104300000Y-248400000D01*
X104300000Y-248400000D02*
X104900000Y-249000000D01*
X104900000Y-249000000D02*
X104900000Y-249800000D01*
X102700000Y-252000000D02*
X102700000Y-252460000D01*
X86544000Y-255236000D02*
X85736000Y-255236000D01*
X104900000Y-249800000D02*
X104052800Y-250647200D01*
X102700000Y-252460000D02*
X102740000Y-252500000D01*
X102740000Y-262500000D02*
X102740000Y-262040000D01*
X99936000Y-259236000D02*
X97944000Y-259236000D01*
X102740000Y-262040000D02*
X99936000Y-259236000D01*
X102740000Y-260000000D02*
X101800000Y-260000000D01*
X100236000Y-258436000D02*
X97944000Y-258436000D01*
X101800000Y-260000000D02*
X100236000Y-258436000D01*
X97944000Y-257636000D02*
X102604000Y-257636000D01*
X102604000Y-257636000D02*
X102740000Y-257500000D01*
X103260000Y-255000000D02*
X108746802Y-255000000D01*
X108746802Y-255000000D02*
X108762802Y-255016000D01*
X108786399Y-265000000D02*
X108813600Y-264972799D01*
X103260000Y-265000000D02*
X108786399Y-265000000D01*
X108738802Y-252500000D02*
X108813600Y-252425202D01*
X103260000Y-252500000D02*
X108738802Y-252500000D01*
X364959901Y-251980701D02*
X365302800Y-252323600D01*
X363579637Y-250600437D02*
X364959901Y-251980701D01*
X268999563Y-250600437D02*
X363579637Y-250600437D01*
X265800000Y-253800000D02*
X268999563Y-250600437D01*
X103260000Y-262500000D02*
X108695596Y-262500000D01*
X108695596Y-262500000D02*
X108762796Y-262432800D01*
X212597998Y-246329202D02*
X199631299Y-259295901D01*
X429006000Y-246329202D02*
X212597998Y-246329202D01*
X199631299Y-259295901D02*
X199288400Y-259638800D01*
X108719160Y-260000000D02*
X108757598Y-259961562D01*
X103260000Y-260000000D02*
X108719160Y-260000000D01*
X214122000Y-248412000D02*
X208165699Y-254368301D01*
X511352800Y-248412000D02*
X214122000Y-248412000D01*
X208165699Y-254368301D02*
X207822800Y-254711200D01*
X103260000Y-257300000D02*
X108710000Y-257290000D01*
X108710000Y-257290000D02*
X108810000Y-257190000D01*
D31*
G36*
X75969673Y-261292192D02*
X76313201Y-261434838D01*
X76685167Y-261435162D01*
X77028943Y-261293117D01*
X77062118Y-261260000D01*
X77185198Y-261260000D01*
X78165198Y-262240000D01*
X77500000Y-262240000D01*
X77209161Y-262297852D01*
X76962599Y-262462599D01*
X74962599Y-264462599D01*
X74797852Y-264709161D01*
X74740000Y-265000000D01*
X74740000Y-267000000D01*
X74797852Y-267290839D01*
X74962599Y-267537401D01*
X76443672Y-269018474D01*
X76546115Y-269533489D01*
X76870971Y-270019670D01*
X77194228Y-270235664D01*
X77071510Y-270293179D01*
X76677312Y-270725053D01*
X76505042Y-271140974D01*
X76626183Y-271373000D01*
X77833000Y-271373000D01*
X77833000Y-271353000D01*
X78087000Y-271353000D01*
X78087000Y-271373000D01*
X78107000Y-271373000D01*
X78107000Y-271627000D01*
X78087000Y-271627000D01*
X78087000Y-272834469D01*
X78319027Y-272954968D01*
X78848490Y-272706821D01*
X79018495Y-272520567D01*
X79033238Y-272598917D01*
X79172310Y-272815041D01*
X79384510Y-272960031D01*
X79636400Y-273011040D01*
X81363600Y-273011040D01*
X81598917Y-272966762D01*
X81815041Y-272827690D01*
X81960031Y-272615490D01*
X82011040Y-272363600D01*
X82011040Y-270636400D01*
X81966762Y-270401083D01*
X81827690Y-270184959D01*
X81615490Y-270039969D01*
X81571869Y-270031136D01*
X81589029Y-270019670D01*
X81913885Y-269533489D01*
X82027959Y-268960000D01*
X81913885Y-268386511D01*
X81589029Y-267900330D01*
X81274248Y-267690000D01*
X81589029Y-267479670D01*
X81715536Y-267290338D01*
X82962599Y-268537401D01*
X83209160Y-268702148D01*
X83232965Y-268706883D01*
X83500000Y-268760000D01*
X84417847Y-268760000D01*
X84207808Y-268969673D01*
X84065162Y-269313201D01*
X84064838Y-269685167D01*
X84206883Y-270028943D01*
X84469673Y-270292192D01*
X84740000Y-270404442D01*
X84740000Y-272500000D01*
X84797852Y-272790839D01*
X84962599Y-273037401D01*
X85298198Y-273373000D01*
X75062759Y-273373000D01*
X73905015Y-271859026D01*
X76505042Y-271859026D01*
X76677312Y-272274947D01*
X77071510Y-272706821D01*
X77600973Y-272954968D01*
X77833000Y-272834469D01*
X77833000Y-271627000D01*
X76626183Y-271627000D01*
X76505042Y-271859026D01*
X73905015Y-271859026D01*
X68627000Y-264957007D01*
X68627000Y-262963202D01*
X68883630Y-263347277D01*
X69284293Y-263614991D01*
X69756907Y-263709000D01*
X70315093Y-263709000D01*
X70787707Y-263614991D01*
X71188370Y-263347277D01*
X71456084Y-262946614D01*
X71550093Y-262474000D01*
X71456084Y-262001386D01*
X71413243Y-261937270D01*
X71497441Y-261883090D01*
X71626302Y-261694496D01*
X71626910Y-261695441D01*
X71706281Y-261749673D01*
X71623866Y-262164000D01*
X71714069Y-262617480D01*
X71970944Y-263001922D01*
X72355386Y-263258797D01*
X72808866Y-263349000D01*
X73263134Y-263349000D01*
X73716614Y-263258797D01*
X74101056Y-263001922D01*
X74357931Y-262617480D01*
X74448134Y-262164000D01*
X74357931Y-261710520D01*
X74275289Y-261586837D01*
X74337431Y-261495890D01*
X74388440Y-261244000D01*
X74388440Y-261154000D01*
X75831722Y-261154000D01*
X75969673Y-261292192D01*
X75969673Y-261292192D01*
G37*
X75969673Y-261292192D02*
X76313201Y-261434838D01*
X76685167Y-261435162D01*
X77028943Y-261293117D01*
X77062118Y-261260000D01*
X77185198Y-261260000D01*
X78165198Y-262240000D01*
X77500000Y-262240000D01*
X77209161Y-262297852D01*
X76962599Y-262462599D01*
X74962599Y-264462599D01*
X74797852Y-264709161D01*
X74740000Y-265000000D01*
X74740000Y-267000000D01*
X74797852Y-267290839D01*
X74962599Y-267537401D01*
X76443672Y-269018474D01*
X76546115Y-269533489D01*
X76870971Y-270019670D01*
X77194228Y-270235664D01*
X77071510Y-270293179D01*
X76677312Y-270725053D01*
X76505042Y-271140974D01*
X76626183Y-271373000D01*
X77833000Y-271373000D01*
X77833000Y-271353000D01*
X78087000Y-271353000D01*
X78087000Y-271373000D01*
X78107000Y-271373000D01*
X78107000Y-271627000D01*
X78087000Y-271627000D01*
X78087000Y-272834469D01*
X78319027Y-272954968D01*
X78848490Y-272706821D01*
X79018495Y-272520567D01*
X79033238Y-272598917D01*
X79172310Y-272815041D01*
X79384510Y-272960031D01*
X79636400Y-273011040D01*
X81363600Y-273011040D01*
X81598917Y-272966762D01*
X81815041Y-272827690D01*
X81960031Y-272615490D01*
X82011040Y-272363600D01*
X82011040Y-270636400D01*
X81966762Y-270401083D01*
X81827690Y-270184959D01*
X81615490Y-270039969D01*
X81571869Y-270031136D01*
X81589029Y-270019670D01*
X81913885Y-269533489D01*
X82027959Y-268960000D01*
X81913885Y-268386511D01*
X81589029Y-267900330D01*
X81274248Y-267690000D01*
X81589029Y-267479670D01*
X81715536Y-267290338D01*
X82962599Y-268537401D01*
X83209160Y-268702148D01*
X83232965Y-268706883D01*
X83500000Y-268760000D01*
X84417847Y-268760000D01*
X84207808Y-268969673D01*
X84065162Y-269313201D01*
X84064838Y-269685167D01*
X84206883Y-270028943D01*
X84469673Y-270292192D01*
X84740000Y-270404442D01*
X84740000Y-272500000D01*
X84797852Y-272790839D01*
X84962599Y-273037401D01*
X85298198Y-273373000D01*
X75062759Y-273373000D01*
X73905015Y-271859026D01*
X76505042Y-271859026D01*
X76677312Y-272274947D01*
X77071510Y-272706821D01*
X77600973Y-272954968D01*
X77833000Y-272834469D01*
X77833000Y-271627000D01*
X76626183Y-271627000D01*
X76505042Y-271859026D01*
X73905015Y-271859026D01*
X68627000Y-264957007D01*
X68627000Y-262963202D01*
X68883630Y-263347277D01*
X69284293Y-263614991D01*
X69756907Y-263709000D01*
X70315093Y-263709000D01*
X70787707Y-263614991D01*
X71188370Y-263347277D01*
X71456084Y-262946614D01*
X71550093Y-262474000D01*
X71456084Y-262001386D01*
X71413243Y-261937270D01*
X71497441Y-261883090D01*
X71626302Y-261694496D01*
X71626910Y-261695441D01*
X71706281Y-261749673D01*
X71623866Y-262164000D01*
X71714069Y-262617480D01*
X71970944Y-263001922D01*
X72355386Y-263258797D01*
X72808866Y-263349000D01*
X73263134Y-263349000D01*
X73716614Y-263258797D01*
X74101056Y-263001922D01*
X74357931Y-262617480D01*
X74448134Y-262164000D01*
X74357931Y-261710520D01*
X74275289Y-261586837D01*
X74337431Y-261495890D01*
X74388440Y-261244000D01*
X74388440Y-261154000D01*
X75831722Y-261154000D01*
X75969673Y-261292192D01*
G36*
X101097105Y-264102894D02*
X101140392Y-264131817D01*
X101046788Y-264170493D01*
X100771460Y-264445341D01*
X100622270Y-264804630D01*
X100621931Y-265193663D01*
X100770493Y-265553212D01*
X101045341Y-265828540D01*
X101404630Y-265977730D01*
X101793663Y-265978069D01*
X102153212Y-265829507D01*
X102243156Y-265739719D01*
X102348110Y-265811431D01*
X102600000Y-265862440D01*
X102880000Y-265862440D01*
X103004405Y-265839031D01*
X103120000Y-265862440D01*
X103400000Y-265862440D01*
X103635317Y-265818162D01*
X103801541Y-265711200D01*
X106220254Y-265711200D01*
X106370485Y-273373000D01*
X90401802Y-273373000D01*
X90827362Y-272947440D01*
X91900000Y-272947440D01*
X92135317Y-272903162D01*
X92351441Y-272764090D01*
X92496431Y-272551890D01*
X92547440Y-272300000D01*
X92547440Y-271100000D01*
X92503162Y-270864683D01*
X92364090Y-270648559D01*
X92151890Y-270503569D01*
X92138803Y-270500919D01*
X92351441Y-270364090D01*
X92496431Y-270151890D01*
X92532375Y-269974395D01*
X92737401Y-269837401D01*
X93314802Y-269260000D01*
X93500000Y-269260000D01*
X93790839Y-269202148D01*
X94037401Y-269037401D01*
X94500000Y-268574802D01*
X94740000Y-268814802D01*
X94740000Y-268836560D01*
X94636400Y-268836560D01*
X94401083Y-268880838D01*
X94184959Y-269019910D01*
X94039969Y-269232110D01*
X93988960Y-269484000D01*
X93988960Y-271516000D01*
X94033238Y-271751317D01*
X94172310Y-271967441D01*
X94384510Y-272112431D01*
X94636400Y-272163440D01*
X96363600Y-272163440D01*
X96598917Y-272119162D01*
X96815041Y-271980090D01*
X96960031Y-271767890D01*
X96968400Y-271726561D01*
X96980330Y-271744415D01*
X97466511Y-272069271D01*
X98040000Y-272183345D01*
X98613489Y-272069271D01*
X99099670Y-271744415D01*
X99306461Y-271434931D01*
X99677964Y-271850732D01*
X100205209Y-272104709D01*
X100220974Y-272107358D01*
X100453000Y-271986217D01*
X100453000Y-270627000D01*
X100433000Y-270627000D01*
X100433000Y-270373000D01*
X100453000Y-270373000D01*
X100453000Y-269013783D01*
X100707000Y-269013783D01*
X100707000Y-270373000D01*
X100727000Y-270373000D01*
X100727000Y-270627000D01*
X100707000Y-270627000D01*
X100707000Y-271986217D01*
X100939026Y-272107358D01*
X100954791Y-272104709D01*
X101482036Y-271850732D01*
X101853539Y-271434931D01*
X102060330Y-271744415D01*
X102546511Y-272069271D01*
X103120000Y-272183345D01*
X103693489Y-272069271D01*
X104179670Y-271744415D01*
X104504526Y-271258234D01*
X104618600Y-270684745D01*
X104618600Y-270315255D01*
X104504526Y-269741766D01*
X104179670Y-269255585D01*
X103880000Y-269055352D01*
X103880000Y-267818863D01*
X103934838Y-267686799D01*
X103935162Y-267314833D01*
X103793117Y-266971057D01*
X103530327Y-266707808D01*
X103186799Y-266565162D01*
X102814833Y-266564838D01*
X102471057Y-266706883D01*
X102207808Y-266969673D01*
X102065162Y-267313201D01*
X102064838Y-267685167D01*
X102206883Y-268028943D01*
X102360000Y-268182327D01*
X102360000Y-269055352D01*
X102060330Y-269255585D01*
X101853539Y-269565069D01*
X101482036Y-269149268D01*
X100954791Y-268895291D01*
X100939026Y-268892642D01*
X100707000Y-269013783D01*
X100453000Y-269013783D01*
X100220974Y-268892642D01*
X100205209Y-268895291D01*
X99677964Y-269149268D01*
X99306461Y-269565069D01*
X99099670Y-269255585D01*
X98613489Y-268930729D01*
X98040000Y-268816655D01*
X97916102Y-268841300D01*
X96204000Y-267129198D01*
X96204000Y-266333440D01*
X96519000Y-266333440D01*
X96754317Y-266289162D01*
X96970441Y-266150090D01*
X97115431Y-265937890D01*
X97166440Y-265686000D01*
X97166440Y-264186000D01*
X97159957Y-264151546D01*
X97194000Y-264158440D01*
X98694000Y-264158440D01*
X98929317Y-264114162D01*
X99145441Y-263975090D01*
X99290431Y-263762890D01*
X99341440Y-263511000D01*
X99341440Y-262961000D01*
X99321550Y-262855295D01*
X99329000Y-262837310D01*
X99329000Y-262721750D01*
X99232599Y-262625349D01*
X99158090Y-262509559D01*
X99050603Y-262436116D01*
X99145441Y-262375090D01*
X99164497Y-262347200D01*
X99341412Y-262347200D01*
X101097105Y-264102894D01*
X101097105Y-264102894D01*
G37*
X101097105Y-264102894D02*
X101140392Y-264131817D01*
X101046788Y-264170493D01*
X100771460Y-264445341D01*
X100622270Y-264804630D01*
X100621931Y-265193663D01*
X100770493Y-265553212D01*
X101045341Y-265828540D01*
X101404630Y-265977730D01*
X101793663Y-265978069D01*
X102153212Y-265829507D01*
X102243156Y-265739719D01*
X102348110Y-265811431D01*
X102600000Y-265862440D01*
X102880000Y-265862440D01*
X103004405Y-265839031D01*
X103120000Y-265862440D01*
X103400000Y-265862440D01*
X103635317Y-265818162D01*
X103801541Y-265711200D01*
X106220254Y-265711200D01*
X106370485Y-273373000D01*
X90401802Y-273373000D01*
X90827362Y-272947440D01*
X91900000Y-272947440D01*
X92135317Y-272903162D01*
X92351441Y-272764090D01*
X92496431Y-272551890D01*
X92547440Y-272300000D01*
X92547440Y-271100000D01*
X92503162Y-270864683D01*
X92364090Y-270648559D01*
X92151890Y-270503569D01*
X92138803Y-270500919D01*
X92351441Y-270364090D01*
X92496431Y-270151890D01*
X92532375Y-269974395D01*
X92737401Y-269837401D01*
X93314802Y-269260000D01*
X93500000Y-269260000D01*
X93790839Y-269202148D01*
X94037401Y-269037401D01*
X94500000Y-268574802D01*
X94740000Y-268814802D01*
X94740000Y-268836560D01*
X94636400Y-268836560D01*
X94401083Y-268880838D01*
X94184959Y-269019910D01*
X94039969Y-269232110D01*
X93988960Y-269484000D01*
X93988960Y-271516000D01*
X94033238Y-271751317D01*
X94172310Y-271967441D01*
X94384510Y-272112431D01*
X94636400Y-272163440D01*
X96363600Y-272163440D01*
X96598917Y-272119162D01*
X96815041Y-271980090D01*
X96960031Y-271767890D01*
X96968400Y-271726561D01*
X96980330Y-271744415D01*
X97466511Y-272069271D01*
X98040000Y-272183345D01*
X98613489Y-272069271D01*
X99099670Y-271744415D01*
X99306461Y-271434931D01*
X99677964Y-271850732D01*
X100205209Y-272104709D01*
X100220974Y-272107358D01*
X100453000Y-271986217D01*
X100453000Y-270627000D01*
X100433000Y-270627000D01*
X100433000Y-270373000D01*
X100453000Y-270373000D01*
X100453000Y-269013783D01*
X100707000Y-269013783D01*
X100707000Y-270373000D01*
X100727000Y-270373000D01*
X100727000Y-270627000D01*
X100707000Y-270627000D01*
X100707000Y-271986217D01*
X100939026Y-272107358D01*
X100954791Y-272104709D01*
X101482036Y-271850732D01*
X101853539Y-271434931D01*
X102060330Y-271744415D01*
X102546511Y-272069271D01*
X103120000Y-272183345D01*
X103693489Y-272069271D01*
X104179670Y-271744415D01*
X104504526Y-271258234D01*
X104618600Y-270684745D01*
X104618600Y-270315255D01*
X104504526Y-269741766D01*
X104179670Y-269255585D01*
X103880000Y-269055352D01*
X103880000Y-267818863D01*
X103934838Y-267686799D01*
X103935162Y-267314833D01*
X103793117Y-266971057D01*
X103530327Y-266707808D01*
X103186799Y-266565162D01*
X102814833Y-266564838D01*
X102471057Y-266706883D01*
X102207808Y-266969673D01*
X102065162Y-267313201D01*
X102064838Y-267685167D01*
X102206883Y-268028943D01*
X102360000Y-268182327D01*
X102360000Y-269055352D01*
X102060330Y-269255585D01*
X101853539Y-269565069D01*
X101482036Y-269149268D01*
X100954791Y-268895291D01*
X100939026Y-268892642D01*
X100707000Y-269013783D01*
X100453000Y-269013783D01*
X100220974Y-268892642D01*
X100205209Y-268895291D01*
X99677964Y-269149268D01*
X99306461Y-269565069D01*
X99099670Y-269255585D01*
X98613489Y-268930729D01*
X98040000Y-268816655D01*
X97916102Y-268841300D01*
X96204000Y-267129198D01*
X96204000Y-266333440D01*
X96519000Y-266333440D01*
X96754317Y-266289162D01*
X96970441Y-266150090D01*
X97115431Y-265937890D01*
X97166440Y-265686000D01*
X97166440Y-264186000D01*
X97159957Y-264151546D01*
X97194000Y-264158440D01*
X98694000Y-264158440D01*
X98929317Y-264114162D01*
X99145441Y-263975090D01*
X99290431Y-263762890D01*
X99341440Y-263511000D01*
X99341440Y-262961000D01*
X99321550Y-262855295D01*
X99329000Y-262837310D01*
X99329000Y-262721750D01*
X99232599Y-262625349D01*
X99158090Y-262509559D01*
X99050603Y-262436116D01*
X99145441Y-262375090D01*
X99164497Y-262347200D01*
X99341412Y-262347200D01*
X101097105Y-264102894D01*
G36*
X85542110Y-264107431D02*
X85794000Y-264158440D01*
X87294000Y-264158440D01*
X87328454Y-264151957D01*
X87321560Y-264186000D01*
X87321560Y-265686000D01*
X87365838Y-265921317D01*
X87504910Y-266137441D01*
X87655010Y-266240000D01*
X87227162Y-266240000D01*
X87151890Y-266188569D01*
X86900000Y-266137560D01*
X86620000Y-266137560D01*
X86521171Y-266156156D01*
X86506309Y-266150000D01*
X86468750Y-266150000D01*
X86449017Y-266169733D01*
X86384683Y-266181838D01*
X86170000Y-266319983D01*
X86170000Y-266308750D01*
X86011250Y-266150000D01*
X85973691Y-266150000D01*
X85740302Y-266246673D01*
X85561673Y-266425301D01*
X85465000Y-266658690D01*
X85465000Y-266733750D01*
X85623750Y-266892500D01*
X85972560Y-266892500D01*
X85972560Y-267107500D01*
X85623750Y-267107500D01*
X85491250Y-267240000D01*
X84412747Y-267240000D01*
X84434838Y-267186799D01*
X84434879Y-267139923D01*
X85037401Y-266537401D01*
X85202148Y-266290839D01*
X85260000Y-266000000D01*
X85260000Y-264314802D01*
X85497709Y-264077093D01*
X85542110Y-264107431D01*
X85542110Y-264107431D01*
G37*
X85542110Y-264107431D02*
X85794000Y-264158440D01*
X87294000Y-264158440D01*
X87328454Y-264151957D01*
X87321560Y-264186000D01*
X87321560Y-265686000D01*
X87365838Y-265921317D01*
X87504910Y-266137441D01*
X87655010Y-266240000D01*
X87227162Y-266240000D01*
X87151890Y-266188569D01*
X86900000Y-266137560D01*
X86620000Y-266137560D01*
X86521171Y-266156156D01*
X86506309Y-266150000D01*
X86468750Y-266150000D01*
X86449017Y-266169733D01*
X86384683Y-266181838D01*
X86170000Y-266319983D01*
X86170000Y-266308750D01*
X86011250Y-266150000D01*
X85973691Y-266150000D01*
X85740302Y-266246673D01*
X85561673Y-266425301D01*
X85465000Y-266658690D01*
X85465000Y-266733750D01*
X85623750Y-266892500D01*
X85972560Y-266892500D01*
X85972560Y-267107500D01*
X85623750Y-267107500D01*
X85491250Y-267240000D01*
X84412747Y-267240000D01*
X84434838Y-267186799D01*
X84434879Y-267139923D01*
X85037401Y-266537401D01*
X85202148Y-266290839D01*
X85260000Y-266000000D01*
X85260000Y-264314802D01*
X85497709Y-264077093D01*
X85542110Y-264107431D01*
G36*
X96105412Y-248888800D02*
X88100000Y-248888800D01*
X87827836Y-248942937D01*
X87597106Y-249097105D01*
X86772136Y-249922075D01*
X86606337Y-249921931D01*
X86246788Y-250070493D01*
X85971460Y-250345341D01*
X85822270Y-250704630D01*
X85821931Y-251093663D01*
X85970493Y-251453212D01*
X86245341Y-251728540D01*
X86604630Y-251877730D01*
X86993663Y-251878069D01*
X87335877Y-251736670D01*
X87342937Y-251772165D01*
X87497106Y-252002894D01*
X87703052Y-252208840D01*
X87609301Y-252247673D01*
X87430673Y-252426302D01*
X87334000Y-252659691D01*
X87334000Y-253250250D01*
X87492750Y-253409000D01*
X88117000Y-253409000D01*
X88117000Y-253389000D01*
X88121560Y-253389000D01*
X88121560Y-254286000D01*
X88165838Y-254521317D01*
X88304910Y-254737441D01*
X88435245Y-254826495D01*
X88529750Y-254921000D01*
X88645310Y-254921000D01*
X88665753Y-254912532D01*
X88769000Y-254933440D01*
X89319000Y-254933440D01*
X89448589Y-254909056D01*
X89569000Y-254933440D01*
X90119000Y-254933440D01*
X90248589Y-254909056D01*
X90369000Y-254933440D01*
X90919000Y-254933440D01*
X91048589Y-254909056D01*
X91169000Y-254933440D01*
X91719000Y-254933440D01*
X91848589Y-254909056D01*
X91969000Y-254933440D01*
X92519000Y-254933440D01*
X92648589Y-254909056D01*
X92769000Y-254933440D01*
X93319000Y-254933440D01*
X93448589Y-254909056D01*
X93569000Y-254933440D01*
X94119000Y-254933440D01*
X94248589Y-254909056D01*
X94369000Y-254933440D01*
X94919000Y-254933440D01*
X95048589Y-254909056D01*
X95169000Y-254933440D01*
X95719000Y-254933440D01*
X95824705Y-254913550D01*
X95842690Y-254921000D01*
X95958250Y-254921000D01*
X96054651Y-254824599D01*
X96170441Y-254750090D01*
X96315431Y-254537890D01*
X96366440Y-254286000D01*
X96366440Y-252786000D01*
X96322162Y-252550683D01*
X96183090Y-252334559D01*
X96155200Y-252315503D01*
X96155200Y-252309750D01*
X96371000Y-252309750D01*
X96371000Y-253409000D01*
X96995250Y-253409000D01*
X97154000Y-253250250D01*
X97154000Y-252659691D01*
X97057327Y-252426302D01*
X96878699Y-252247673D01*
X96645310Y-252151000D01*
X96529750Y-252151000D01*
X96371000Y-252309750D01*
X96155200Y-252309750D01*
X96155200Y-252227697D01*
X96328540Y-252054659D01*
X96477730Y-251695370D01*
X96477925Y-251471200D01*
X96940000Y-251471200D01*
X97212165Y-251417063D01*
X97442894Y-251262894D01*
X98158348Y-250547440D01*
X98600000Y-250547440D01*
X98835317Y-250503162D01*
X98999493Y-250397518D01*
X99040302Y-250438327D01*
X99273691Y-250535000D01*
X99514250Y-250535000D01*
X99673000Y-250376250D01*
X99673000Y-249627000D01*
X99927000Y-249627000D01*
X99927000Y-250376250D01*
X100085750Y-250535000D01*
X100326309Y-250535000D01*
X100559698Y-250438327D01*
X100738327Y-250259699D01*
X100835000Y-250026310D01*
X100835000Y-249785750D01*
X100676250Y-249627000D01*
X99927000Y-249627000D01*
X99673000Y-249627000D01*
X99653000Y-249627000D01*
X99653000Y-249373000D01*
X99673000Y-249373000D01*
X99673000Y-249353000D01*
X99927000Y-249353000D01*
X99927000Y-249373000D01*
X100676250Y-249373000D01*
X100835000Y-249214250D01*
X100835000Y-249111200D01*
X101152560Y-249111200D01*
X101152560Y-249900000D01*
X101196838Y-250135317D01*
X101335910Y-250351441D01*
X101488800Y-250455906D01*
X101488800Y-250505411D01*
X100041652Y-251952560D01*
X99785000Y-251952560D01*
X99549683Y-251996838D01*
X99333559Y-252135910D01*
X99188569Y-252348110D01*
X99137560Y-252600000D01*
X99137560Y-252880000D01*
X99160969Y-253004405D01*
X99138410Y-253115802D01*
X97940652Y-254313560D01*
X97194000Y-254313560D01*
X97154000Y-254321087D01*
X97154000Y-253821750D01*
X96995250Y-253663000D01*
X96371000Y-253663000D01*
X96371000Y-254762250D01*
X96529750Y-254921000D01*
X96554660Y-254921000D01*
X96546560Y-254961000D01*
X96546560Y-255511000D01*
X96570944Y-255640589D01*
X96546560Y-255761000D01*
X96546560Y-256311000D01*
X96570944Y-256440589D01*
X96546560Y-256561000D01*
X96546560Y-257111000D01*
X96570944Y-257240589D01*
X96546560Y-257361000D01*
X96546560Y-257911000D01*
X96570944Y-258040589D01*
X96546560Y-258161000D01*
X96546560Y-258711000D01*
X96570944Y-258840589D01*
X96546560Y-258961000D01*
X96546560Y-259511000D01*
X96570944Y-259640589D01*
X96546560Y-259761000D01*
X96546560Y-260311000D01*
X96570944Y-260440589D01*
X96546560Y-260561000D01*
X96546560Y-261111000D01*
X96570944Y-261240589D01*
X96546560Y-261361000D01*
X96546560Y-261911000D01*
X96566450Y-262016705D01*
X96559000Y-262034690D01*
X96559000Y-262150250D01*
X96655401Y-262246651D01*
X96729910Y-262362441D01*
X96837397Y-262435884D01*
X96742559Y-262496910D01*
X96653505Y-262627245D01*
X96559000Y-262721750D01*
X96559000Y-262837310D01*
X96567468Y-262857753D01*
X96546560Y-262961000D01*
X96546560Y-263511000D01*
X96553043Y-263545454D01*
X96519000Y-263538560D01*
X95969000Y-263538560D01*
X95839411Y-263562944D01*
X95719000Y-263538560D01*
X95169000Y-263538560D01*
X95039411Y-263562944D01*
X94919000Y-263538560D01*
X94369000Y-263538560D01*
X94239411Y-263562944D01*
X94119000Y-263538560D01*
X93569000Y-263538560D01*
X93439411Y-263562944D01*
X93319000Y-263538560D01*
X92769000Y-263538560D01*
X92639411Y-263562944D01*
X92519000Y-263538560D01*
X91969000Y-263538560D01*
X91839411Y-263562944D01*
X91719000Y-263538560D01*
X91169000Y-263538560D01*
X91039411Y-263562944D01*
X90919000Y-263538560D01*
X90369000Y-263538560D01*
X90263295Y-263558450D01*
X90245310Y-263551000D01*
X90129750Y-263551000D01*
X90033349Y-263647401D01*
X89917559Y-263721910D01*
X89844116Y-263829397D01*
X89783090Y-263734559D01*
X89652755Y-263645505D01*
X89558250Y-263551000D01*
X89442690Y-263551000D01*
X89422247Y-263559468D01*
X89319000Y-263538560D01*
X88769000Y-263538560D01*
X88639411Y-263562944D01*
X88519000Y-263538560D01*
X87969000Y-263538560D01*
X87934546Y-263545043D01*
X87941440Y-263511000D01*
X87941440Y-262961000D01*
X87917056Y-262831411D01*
X87941440Y-262711000D01*
X87941440Y-262161000D01*
X87917056Y-262031411D01*
X87941440Y-261911000D01*
X87941440Y-261361000D01*
X87917056Y-261231411D01*
X87941440Y-261111000D01*
X87941440Y-260561000D01*
X87921550Y-260455295D01*
X87929000Y-260437310D01*
X87929000Y-260321750D01*
X87832599Y-260225349D01*
X87758090Y-260109559D01*
X87650603Y-260036116D01*
X87745441Y-259975090D01*
X87834495Y-259844755D01*
X87929000Y-259750250D01*
X87929000Y-259634690D01*
X87920532Y-259614247D01*
X87941440Y-259511000D01*
X87941440Y-258961000D01*
X87917056Y-258831411D01*
X87941440Y-258711000D01*
X87941440Y-258161000D01*
X87917056Y-258031411D01*
X87941440Y-257911000D01*
X87941440Y-257361000D01*
X87917056Y-257231411D01*
X87941440Y-257111000D01*
X87941440Y-256561000D01*
X87921550Y-256455295D01*
X87929000Y-256437310D01*
X87929000Y-256321750D01*
X87832599Y-256225349D01*
X87758090Y-256109559D01*
X87650603Y-256036116D01*
X87745441Y-255975090D01*
X87834495Y-255844755D01*
X87929000Y-255750250D01*
X87929000Y-255634690D01*
X87920532Y-255614247D01*
X87941440Y-255511000D01*
X87941440Y-254961000D01*
X87933913Y-254921000D01*
X87958250Y-254921000D01*
X88117000Y-254762250D01*
X88117000Y-253663000D01*
X87492750Y-253663000D01*
X87334000Y-253821750D01*
X87334000Y-254321660D01*
X87294000Y-254313560D01*
X85819348Y-254313560D01*
X85711200Y-254205412D01*
X85711200Y-253371794D01*
X85828540Y-253254659D01*
X85977730Y-252895370D01*
X85978069Y-252506337D01*
X85829507Y-252146788D01*
X85554659Y-251871460D01*
X85195370Y-251722270D01*
X84806337Y-251721931D01*
X84446788Y-251870493D01*
X84171460Y-252145341D01*
X84022270Y-252504630D01*
X84021931Y-252893663D01*
X84170493Y-253253212D01*
X84288800Y-253371726D01*
X84288800Y-254500000D01*
X84342937Y-254772165D01*
X84497106Y-255002894D01*
X85159000Y-255664788D01*
X85159000Y-255750250D01*
X85255401Y-255846651D01*
X85329910Y-255962441D01*
X85437397Y-256035884D01*
X85375054Y-256076000D01*
X84164000Y-256076000D01*
X83873161Y-256133852D01*
X83626599Y-256298599D01*
X82405000Y-257520198D01*
X82405000Y-257285750D01*
X82246250Y-257127000D01*
X81327000Y-257127000D01*
X81327000Y-257147000D01*
X81073000Y-257147000D01*
X81073000Y-257127000D01*
X81053000Y-257127000D01*
X81053000Y-256873000D01*
X81073000Y-256873000D01*
X81073000Y-255508750D01*
X81327000Y-255508750D01*
X81327000Y-256873000D01*
X82246250Y-256873000D01*
X82405000Y-256714250D01*
X82405000Y-255858691D01*
X82308327Y-255625302D01*
X82129699Y-255446673D01*
X81896310Y-255350000D01*
X81485750Y-255350000D01*
X81327000Y-255508750D01*
X81073000Y-255508750D01*
X80914250Y-255350000D01*
X80503690Y-255350000D01*
X80270301Y-255446673D01*
X80091673Y-255625302D01*
X79995000Y-255858691D01*
X79995000Y-255865742D01*
X79973162Y-255749683D01*
X79834090Y-255533559D01*
X79621890Y-255388569D01*
X79370000Y-255337560D01*
X78230000Y-255337560D01*
X77994683Y-255381838D01*
X77778559Y-255520910D01*
X77633569Y-255733110D01*
X77582560Y-255985000D01*
X77582560Y-256240000D01*
X77500000Y-256240000D01*
X77209160Y-256297852D01*
X76962599Y-256462599D01*
X75741198Y-257684000D01*
X74376525Y-257684000D01*
X74448134Y-257324000D01*
X74357931Y-256870520D01*
X74101056Y-256486078D01*
X73716614Y-256229203D01*
X73263134Y-256139000D01*
X72808866Y-256139000D01*
X72355386Y-256229203D01*
X71970944Y-256486078D01*
X71714069Y-256870520D01*
X71623866Y-257324000D01*
X71706043Y-257737129D01*
X71639559Y-257779910D01*
X71626685Y-257798752D01*
X71510090Y-257617559D01*
X71412942Y-257551181D01*
X71456084Y-257486614D01*
X71550093Y-257014000D01*
X71456084Y-256541386D01*
X71188370Y-256140723D01*
X70787707Y-255873009D01*
X70315093Y-255779000D01*
X69756907Y-255779000D01*
X69284293Y-255873009D01*
X68883630Y-256140723D01*
X68627000Y-256524798D01*
X68627000Y-255052606D01*
X75552606Y-248127000D01*
X96867211Y-248127000D01*
X96105412Y-248888800D01*
X96105412Y-248888800D01*
G37*
X96105412Y-248888800D02*
X88100000Y-248888800D01*
X87827836Y-248942937D01*
X87597106Y-249097105D01*
X86772136Y-249922075D01*
X86606337Y-249921931D01*
X86246788Y-250070493D01*
X85971460Y-250345341D01*
X85822270Y-250704630D01*
X85821931Y-251093663D01*
X85970493Y-251453212D01*
X86245341Y-251728540D01*
X86604630Y-251877730D01*
X86993663Y-251878069D01*
X87335877Y-251736670D01*
X87342937Y-251772165D01*
X87497106Y-252002894D01*
X87703052Y-252208840D01*
X87609301Y-252247673D01*
X87430673Y-252426302D01*
X87334000Y-252659691D01*
X87334000Y-253250250D01*
X87492750Y-253409000D01*
X88117000Y-253409000D01*
X88117000Y-253389000D01*
X88121560Y-253389000D01*
X88121560Y-254286000D01*
X88165838Y-254521317D01*
X88304910Y-254737441D01*
X88435245Y-254826495D01*
X88529750Y-254921000D01*
X88645310Y-254921000D01*
X88665753Y-254912532D01*
X88769000Y-254933440D01*
X89319000Y-254933440D01*
X89448589Y-254909056D01*
X89569000Y-254933440D01*
X90119000Y-254933440D01*
X90248589Y-254909056D01*
X90369000Y-254933440D01*
X90919000Y-254933440D01*
X91048589Y-254909056D01*
X91169000Y-254933440D01*
X91719000Y-254933440D01*
X91848589Y-254909056D01*
X91969000Y-254933440D01*
X92519000Y-254933440D01*
X92648589Y-254909056D01*
X92769000Y-254933440D01*
X93319000Y-254933440D01*
X93448589Y-254909056D01*
X93569000Y-254933440D01*
X94119000Y-254933440D01*
X94248589Y-254909056D01*
X94369000Y-254933440D01*
X94919000Y-254933440D01*
X95048589Y-254909056D01*
X95169000Y-254933440D01*
X95719000Y-254933440D01*
X95824705Y-254913550D01*
X95842690Y-254921000D01*
X95958250Y-254921000D01*
X96054651Y-254824599D01*
X96170441Y-254750090D01*
X96315431Y-254537890D01*
X96366440Y-254286000D01*
X96366440Y-252786000D01*
X96322162Y-252550683D01*
X96183090Y-252334559D01*
X96155200Y-252315503D01*
X96155200Y-252309750D01*
X96371000Y-252309750D01*
X96371000Y-253409000D01*
X96995250Y-253409000D01*
X97154000Y-253250250D01*
X97154000Y-252659691D01*
X97057327Y-252426302D01*
X96878699Y-252247673D01*
X96645310Y-252151000D01*
X96529750Y-252151000D01*
X96371000Y-252309750D01*
X96155200Y-252309750D01*
X96155200Y-252227697D01*
X96328540Y-252054659D01*
X96477730Y-251695370D01*
X96477925Y-251471200D01*
X96940000Y-251471200D01*
X97212165Y-251417063D01*
X97442894Y-251262894D01*
X98158348Y-250547440D01*
X98600000Y-250547440D01*
X98835317Y-250503162D01*
X98999493Y-250397518D01*
X99040302Y-250438327D01*
X99273691Y-250535000D01*
X99514250Y-250535000D01*
X99673000Y-250376250D01*
X99673000Y-249627000D01*
X99927000Y-249627000D01*
X99927000Y-250376250D01*
X100085750Y-250535000D01*
X100326309Y-250535000D01*
X100559698Y-250438327D01*
X100738327Y-250259699D01*
X100835000Y-250026310D01*
X100835000Y-249785750D01*
X100676250Y-249627000D01*
X99927000Y-249627000D01*
X99673000Y-249627000D01*
X99653000Y-249627000D01*
X99653000Y-249373000D01*
X99673000Y-249373000D01*
X99673000Y-249353000D01*
X99927000Y-249353000D01*
X99927000Y-249373000D01*
X100676250Y-249373000D01*
X100835000Y-249214250D01*
X100835000Y-249111200D01*
X101152560Y-249111200D01*
X101152560Y-249900000D01*
X101196838Y-250135317D01*
X101335910Y-250351441D01*
X101488800Y-250455906D01*
X101488800Y-250505411D01*
X100041652Y-251952560D01*
X99785000Y-251952560D01*
X99549683Y-251996838D01*
X99333559Y-252135910D01*
X99188569Y-252348110D01*
X99137560Y-252600000D01*
X99137560Y-252880000D01*
X99160969Y-253004405D01*
X99138410Y-253115802D01*
X97940652Y-254313560D01*
X97194000Y-254313560D01*
X97154000Y-254321087D01*
X97154000Y-253821750D01*
X96995250Y-253663000D01*
X96371000Y-253663000D01*
X96371000Y-254762250D01*
X96529750Y-254921000D01*
X96554660Y-254921000D01*
X96546560Y-254961000D01*
X96546560Y-255511000D01*
X96570944Y-255640589D01*
X96546560Y-255761000D01*
X96546560Y-256311000D01*
X96570944Y-256440589D01*
X96546560Y-256561000D01*
X96546560Y-257111000D01*
X96570944Y-257240589D01*
X96546560Y-257361000D01*
X96546560Y-257911000D01*
X96570944Y-258040589D01*
X96546560Y-258161000D01*
X96546560Y-258711000D01*
X96570944Y-258840589D01*
X96546560Y-258961000D01*
X96546560Y-259511000D01*
X96570944Y-259640589D01*
X96546560Y-259761000D01*
X96546560Y-260311000D01*
X96570944Y-260440589D01*
X96546560Y-260561000D01*
X96546560Y-261111000D01*
X96570944Y-261240589D01*
X96546560Y-261361000D01*
X96546560Y-261911000D01*
X96566450Y-262016705D01*
X96559000Y-262034690D01*
X96559000Y-262150250D01*
X96655401Y-262246651D01*
X96729910Y-262362441D01*
X96837397Y-262435884D01*
X96742559Y-262496910D01*
X96653505Y-262627245D01*
X96559000Y-262721750D01*
X96559000Y-262837310D01*
X96567468Y-262857753D01*
X96546560Y-262961000D01*
X96546560Y-263511000D01*
X96553043Y-263545454D01*
X96519000Y-263538560D01*
X95969000Y-263538560D01*
X95839411Y-263562944D01*
X95719000Y-263538560D01*
X95169000Y-263538560D01*
X95039411Y-263562944D01*
X94919000Y-263538560D01*
X94369000Y-263538560D01*
X94239411Y-263562944D01*
X94119000Y-263538560D01*
X93569000Y-263538560D01*
X93439411Y-263562944D01*
X93319000Y-263538560D01*
X92769000Y-263538560D01*
X92639411Y-263562944D01*
X92519000Y-263538560D01*
X91969000Y-263538560D01*
X91839411Y-263562944D01*
X91719000Y-263538560D01*
X91169000Y-263538560D01*
X91039411Y-263562944D01*
X90919000Y-263538560D01*
X90369000Y-263538560D01*
X90263295Y-263558450D01*
X90245310Y-263551000D01*
X90129750Y-263551000D01*
X90033349Y-263647401D01*
X89917559Y-263721910D01*
X89844116Y-263829397D01*
X89783090Y-263734559D01*
X89652755Y-263645505D01*
X89558250Y-263551000D01*
X89442690Y-263551000D01*
X89422247Y-263559468D01*
X89319000Y-263538560D01*
X88769000Y-263538560D01*
X88639411Y-263562944D01*
X88519000Y-263538560D01*
X87969000Y-263538560D01*
X87934546Y-263545043D01*
X87941440Y-263511000D01*
X87941440Y-262961000D01*
X87917056Y-262831411D01*
X87941440Y-262711000D01*
X87941440Y-262161000D01*
X87917056Y-262031411D01*
X87941440Y-261911000D01*
X87941440Y-261361000D01*
X87917056Y-261231411D01*
X87941440Y-261111000D01*
X87941440Y-260561000D01*
X87921550Y-260455295D01*
X87929000Y-260437310D01*
X87929000Y-260321750D01*
X87832599Y-260225349D01*
X87758090Y-260109559D01*
X87650603Y-260036116D01*
X87745441Y-259975090D01*
X87834495Y-259844755D01*
X87929000Y-259750250D01*
X87929000Y-259634690D01*
X87920532Y-259614247D01*
X87941440Y-259511000D01*
X87941440Y-258961000D01*
X87917056Y-258831411D01*
X87941440Y-258711000D01*
X87941440Y-258161000D01*
X87917056Y-258031411D01*
X87941440Y-257911000D01*
X87941440Y-257361000D01*
X87917056Y-257231411D01*
X87941440Y-257111000D01*
X87941440Y-256561000D01*
X87921550Y-256455295D01*
X87929000Y-256437310D01*
X87929000Y-256321750D01*
X87832599Y-256225349D01*
X87758090Y-256109559D01*
X87650603Y-256036116D01*
X87745441Y-255975090D01*
X87834495Y-255844755D01*
X87929000Y-255750250D01*
X87929000Y-255634690D01*
X87920532Y-255614247D01*
X87941440Y-255511000D01*
X87941440Y-254961000D01*
X87933913Y-254921000D01*
X87958250Y-254921000D01*
X88117000Y-254762250D01*
X88117000Y-253663000D01*
X87492750Y-253663000D01*
X87334000Y-253821750D01*
X87334000Y-254321660D01*
X87294000Y-254313560D01*
X85819348Y-254313560D01*
X85711200Y-254205412D01*
X85711200Y-253371794D01*
X85828540Y-253254659D01*
X85977730Y-252895370D01*
X85978069Y-252506337D01*
X85829507Y-252146788D01*
X85554659Y-251871460D01*
X85195370Y-251722270D01*
X84806337Y-251721931D01*
X84446788Y-251870493D01*
X84171460Y-252145341D01*
X84022270Y-252504630D01*
X84021931Y-252893663D01*
X84170493Y-253253212D01*
X84288800Y-253371726D01*
X84288800Y-254500000D01*
X84342937Y-254772165D01*
X84497106Y-255002894D01*
X85159000Y-255664788D01*
X85159000Y-255750250D01*
X85255401Y-255846651D01*
X85329910Y-255962441D01*
X85437397Y-256035884D01*
X85375054Y-256076000D01*
X84164000Y-256076000D01*
X83873161Y-256133852D01*
X83626599Y-256298599D01*
X82405000Y-257520198D01*
X82405000Y-257285750D01*
X82246250Y-257127000D01*
X81327000Y-257127000D01*
X81327000Y-257147000D01*
X81073000Y-257147000D01*
X81073000Y-257127000D01*
X81053000Y-257127000D01*
X81053000Y-256873000D01*
X81073000Y-256873000D01*
X81073000Y-255508750D01*
X81327000Y-255508750D01*
X81327000Y-256873000D01*
X82246250Y-256873000D01*
X82405000Y-256714250D01*
X82405000Y-255858691D01*
X82308327Y-255625302D01*
X82129699Y-255446673D01*
X81896310Y-255350000D01*
X81485750Y-255350000D01*
X81327000Y-255508750D01*
X81073000Y-255508750D01*
X80914250Y-255350000D01*
X80503690Y-255350000D01*
X80270301Y-255446673D01*
X80091673Y-255625302D01*
X79995000Y-255858691D01*
X79995000Y-255865742D01*
X79973162Y-255749683D01*
X79834090Y-255533559D01*
X79621890Y-255388569D01*
X79370000Y-255337560D01*
X78230000Y-255337560D01*
X77994683Y-255381838D01*
X77778559Y-255520910D01*
X77633569Y-255733110D01*
X77582560Y-255985000D01*
X77582560Y-256240000D01*
X77500000Y-256240000D01*
X77209160Y-256297852D01*
X76962599Y-256462599D01*
X75741198Y-257684000D01*
X74376525Y-257684000D01*
X74448134Y-257324000D01*
X74357931Y-256870520D01*
X74101056Y-256486078D01*
X73716614Y-256229203D01*
X73263134Y-256139000D01*
X72808866Y-256139000D01*
X72355386Y-256229203D01*
X71970944Y-256486078D01*
X71714069Y-256870520D01*
X71623866Y-257324000D01*
X71706043Y-257737129D01*
X71639559Y-257779910D01*
X71626685Y-257798752D01*
X71510090Y-257617559D01*
X71412942Y-257551181D01*
X71456084Y-257486614D01*
X71550093Y-257014000D01*
X71456084Y-256541386D01*
X71188370Y-256140723D01*
X70787707Y-255873009D01*
X70315093Y-255779000D01*
X69756907Y-255779000D01*
X69284293Y-255873009D01*
X68883630Y-256140723D01*
X68627000Y-256524798D01*
X68627000Y-255052606D01*
X75552606Y-248127000D01*
X96867211Y-248127000D01*
X96105412Y-248888800D01*
M02*
