M48
;DRILL file {KiCad 4.0.5+dfsg1-4~bpo8+1} date Sat Aug  5 17:38:24 2017
;FORMAT={-:-/ absolute / inch / decimal}
FMAT,2
INCH,TZ
T1C0.013
T2C0.030
T3C0.040
T4C0.130
%
G90
G05
M72
T1
X2.9331Y-10.6299
X3.0118Y-10.2559
X3.2874Y-10.4724
X3.2874Y-10.5118
X3.3071Y-10.374
X3.3268Y-10.2953
X3.3386Y-10.1811
X3.3465Y-9.9488
X3.3465Y-10.5118
X3.3465Y-10.6102
X3.4173Y-9.878
X3.7598Y-9.9016
X3.9134Y-10.2362
X4.Y-10.4331
X4.0551Y-10.5315
X4.2818Y-10.2347
X4.282Y-10.332
X4.282Y-10.04
X4.2839Y-10.1256
X4.284Y-9.938
X4.284Y-10.432
X7.846Y-10.222
X8.182Y-10.028
X10.4646Y-9.9921
X14.382Y-9.934
X16.89Y-9.698
X20.132Y-9.78
T2
X6.6558Y-10.4895
X7.1058Y-10.0595
X9.3724Y-10.4895
X9.8224Y-10.0595
X12.0495Y-10.4895
X12.4995Y-10.0595
X14.7267Y-10.4895
X15.1767Y-10.0595
X17.4039Y-10.4895
X17.8539Y-10.0595
X20.1204Y-10.4895
X20.5704Y-10.0595
T3
X2.7573Y-10.1187
X2.7573Y-10.3336
X2.8754Y-10.1309
X2.8754Y-10.3214
X3.0693Y-10.489
X3.0693Y-10.589
X3.0693Y-10.689
X3.1693Y-10.489
X3.1693Y-10.589
X3.1693Y-10.689
X3.7598Y-10.6496
X3.8598Y-10.6496
X3.9598Y-10.6496
X4.0598Y-10.6496
T4
X2.9528Y-9.5276
X2.9528Y-10.9449
X4.3307Y-9.5276
X4.3307Y-10.9449
X13.7008Y-9.5276
X13.7008Y-10.9449
X21.2205Y-9.5276
X21.2205Y-10.9449
T0
M30
