G04 #@! TF.FileFunction,Legend,Bot*
%FSLAX46Y46*%
G04 Gerber Fmt 4.6, Leading zero omitted, Abs format (unit mm)*
G04 Created by KiCad (PCBNEW 4.0.5+dfsg1-4~bpo8+1) date Sat Aug  5 17:38:17 2017*
%MOMM*%
%LPD*%
G01*
G04 APERTURE LIST*
%ADD10C,0.100000*%
%ADD11C,0.300000*%
G04 APERTURE END LIST*
D10*
D11*
X533890002Y-259003571D02*
X533890002Y-260217857D01*
X533961431Y-260360714D01*
X534032859Y-260432143D01*
X534175716Y-260503571D01*
X534390002Y-260503571D01*
X534532859Y-260432143D01*
X533890002Y-259932143D02*
X534032859Y-260003571D01*
X534318573Y-260003571D01*
X534461431Y-259932143D01*
X534532859Y-259860714D01*
X534604288Y-259717857D01*
X534604288Y-259289286D01*
X534532859Y-259146429D01*
X534461431Y-259075000D01*
X534318573Y-259003571D01*
X534032859Y-259003571D01*
X533890002Y-259075000D01*
X533175716Y-260003571D02*
X533175716Y-259003571D01*
X533175716Y-258503571D02*
X533247145Y-258575000D01*
X533175716Y-258646429D01*
X533104288Y-258575000D01*
X533175716Y-258503571D01*
X533175716Y-258646429D01*
X532675716Y-259003571D02*
X532104287Y-259003571D01*
X532461430Y-258503571D02*
X532461430Y-259789286D01*
X532390002Y-259932143D01*
X532247144Y-260003571D01*
X532104287Y-260003571D01*
X531604287Y-260003571D02*
X531604287Y-258503571D01*
X530961430Y-260003571D02*
X530961430Y-259217857D01*
X531032859Y-259075000D01*
X531175716Y-259003571D01*
X531390001Y-259003571D01*
X531532859Y-259075000D01*
X531604287Y-259146429D01*
X529604287Y-259003571D02*
X529604287Y-260003571D01*
X530247144Y-259003571D02*
X530247144Y-259789286D01*
X530175716Y-259932143D01*
X530032858Y-260003571D01*
X529818573Y-260003571D01*
X529675716Y-259932143D01*
X529604287Y-259860714D01*
X528890001Y-260003571D02*
X528890001Y-258503571D01*
X528890001Y-259075000D02*
X528747144Y-259003571D01*
X528461430Y-259003571D01*
X528318573Y-259075000D01*
X528247144Y-259146429D01*
X528175715Y-259289286D01*
X528175715Y-259717857D01*
X528247144Y-259860714D01*
X528318573Y-259932143D01*
X528461430Y-260003571D01*
X528747144Y-260003571D01*
X528890001Y-259932143D01*
X527532858Y-259860714D02*
X527461430Y-259932143D01*
X527532858Y-260003571D01*
X527604287Y-259932143D01*
X527532858Y-259860714D01*
X527532858Y-260003571D01*
X526175715Y-259932143D02*
X526318572Y-260003571D01*
X526604286Y-260003571D01*
X526747144Y-259932143D01*
X526818572Y-259860714D01*
X526890001Y-259717857D01*
X526890001Y-259289286D01*
X526818572Y-259146429D01*
X526747144Y-259075000D01*
X526604286Y-259003571D01*
X526318572Y-259003571D01*
X526175715Y-259075000D01*
X525318572Y-260003571D02*
X525461430Y-259932143D01*
X525532858Y-259860714D01*
X525604287Y-259717857D01*
X525604287Y-259289286D01*
X525532858Y-259146429D01*
X525461430Y-259075000D01*
X525318572Y-259003571D01*
X525104287Y-259003571D01*
X524961430Y-259075000D01*
X524890001Y-259146429D01*
X524818572Y-259289286D01*
X524818572Y-259717857D01*
X524890001Y-259860714D01*
X524961430Y-259932143D01*
X525104287Y-260003571D01*
X525318572Y-260003571D01*
X524175715Y-260003571D02*
X524175715Y-259003571D01*
X524175715Y-259146429D02*
X524104287Y-259075000D01*
X523961429Y-259003571D01*
X523747144Y-259003571D01*
X523604287Y-259075000D01*
X523532858Y-259217857D01*
X523532858Y-260003571D01*
X523532858Y-259217857D02*
X523461429Y-259075000D01*
X523318572Y-259003571D01*
X523104287Y-259003571D01*
X522961429Y-259075000D01*
X522890001Y-259217857D01*
X522890001Y-260003571D01*
X521104287Y-258432143D02*
X522390001Y-260360714D01*
X519961429Y-259003571D02*
X519961429Y-260003571D01*
X520604286Y-259003571D02*
X520604286Y-259789286D01*
X520532858Y-259932143D01*
X520390000Y-260003571D01*
X520175715Y-260003571D01*
X520032858Y-259932143D01*
X519961429Y-259860714D01*
X519247143Y-259003571D02*
X519247143Y-260003571D01*
X519247143Y-259146429D02*
X519175715Y-259075000D01*
X519032857Y-259003571D01*
X518818572Y-259003571D01*
X518675715Y-259075000D01*
X518604286Y-259217857D01*
X518604286Y-260003571D01*
X517890000Y-260003571D02*
X517890000Y-259003571D01*
X517890000Y-258503571D02*
X517961429Y-258575000D01*
X517890000Y-258646429D01*
X517818572Y-258575000D01*
X517890000Y-258503571D01*
X517890000Y-258646429D01*
X517318571Y-260003571D02*
X516532857Y-259003571D01*
X517318571Y-259003571D02*
X516532857Y-260003571D01*
X515961428Y-259003571D02*
X515961428Y-260289286D01*
X516032857Y-260432143D01*
X516175714Y-260503571D01*
X516247142Y-260503571D01*
X515961428Y-258503571D02*
X516032857Y-258575000D01*
X515961428Y-258646429D01*
X515890000Y-258575000D01*
X515961428Y-258503571D01*
X515961428Y-258646429D01*
X514604285Y-260003571D02*
X514604285Y-259217857D01*
X514675714Y-259075000D01*
X514818571Y-259003571D01*
X515104285Y-259003571D01*
X515247142Y-259075000D01*
X514604285Y-259932143D02*
X514747142Y-260003571D01*
X515104285Y-260003571D01*
X515247142Y-259932143D01*
X515318571Y-259789286D01*
X515318571Y-259646429D01*
X515247142Y-259503571D01*
X515104285Y-259432143D01*
X514747142Y-259432143D01*
X514604285Y-259360714D01*
X514032856Y-259003571D02*
X513247142Y-259003571D01*
X514032856Y-260003571D01*
X513247142Y-260003571D01*
X512818570Y-259003571D02*
X512032856Y-259003571D01*
X512818570Y-260003571D01*
X512032856Y-260003571D01*
X510389999Y-258432143D02*
X511675713Y-260360714D01*
X510104284Y-259003571D02*
X509532855Y-259003571D01*
X509889998Y-258503571D02*
X509889998Y-259789286D01*
X509818570Y-259932143D01*
X509675712Y-260003571D01*
X509532855Y-260003571D01*
X509032855Y-260003571D02*
X509032855Y-259003571D01*
X509032855Y-259289286D02*
X508961427Y-259146429D01*
X508889998Y-259075000D01*
X508747141Y-259003571D01*
X508604284Y-259003571D01*
X507461427Y-260003571D02*
X507461427Y-259217857D01*
X507532856Y-259075000D01*
X507675713Y-259003571D01*
X507961427Y-259003571D01*
X508104284Y-259075000D01*
X507461427Y-259932143D02*
X507604284Y-260003571D01*
X507961427Y-260003571D01*
X508104284Y-259932143D01*
X508175713Y-259789286D01*
X508175713Y-259646429D01*
X508104284Y-259503571D01*
X507961427Y-259432143D01*
X507604284Y-259432143D01*
X507461427Y-259360714D01*
X506747141Y-259003571D02*
X506747141Y-260003571D01*
X506747141Y-259146429D02*
X506675713Y-259075000D01*
X506532855Y-259003571D01*
X506318570Y-259003571D01*
X506175713Y-259075000D01*
X506104284Y-259217857D01*
X506104284Y-260003571D01*
X505461427Y-259932143D02*
X505318570Y-260003571D01*
X505032855Y-260003571D01*
X504889998Y-259932143D01*
X504818570Y-259789286D01*
X504818570Y-259717857D01*
X504889998Y-259575000D01*
X505032855Y-259503571D01*
X505247141Y-259503571D01*
X505389998Y-259432143D01*
X505461427Y-259289286D01*
X505461427Y-259217857D01*
X505389998Y-259075000D01*
X505247141Y-259003571D01*
X505032855Y-259003571D01*
X504889998Y-259075000D01*
X503532855Y-259932143D02*
X503675712Y-260003571D01*
X503961426Y-260003571D01*
X504104284Y-259932143D01*
X504175712Y-259860714D01*
X504247141Y-259717857D01*
X504247141Y-259289286D01*
X504175712Y-259146429D01*
X504104284Y-259075000D01*
X503961426Y-259003571D01*
X503675712Y-259003571D01*
X503532855Y-259075000D01*
X502889998Y-260003571D02*
X502889998Y-259003571D01*
X502889998Y-259289286D02*
X502818570Y-259146429D01*
X502747141Y-259075000D01*
X502604284Y-259003571D01*
X502461427Y-259003571D01*
X501961427Y-260003571D02*
X501961427Y-259003571D01*
X501961427Y-258503571D02*
X502032856Y-258575000D01*
X501961427Y-258646429D01*
X501889999Y-258575000D01*
X501961427Y-258503571D01*
X501961427Y-258646429D01*
X501247141Y-260003571D02*
X501247141Y-258503571D01*
X501247141Y-259075000D02*
X501104284Y-259003571D01*
X500818570Y-259003571D01*
X500675713Y-259075000D01*
X500604284Y-259146429D01*
X500532855Y-259289286D01*
X500532855Y-259717857D01*
X500604284Y-259860714D01*
X500675713Y-259932143D01*
X500818570Y-260003571D01*
X501104284Y-260003571D01*
X501247141Y-259932143D01*
X499247141Y-260003571D02*
X499247141Y-259217857D01*
X499318570Y-259075000D01*
X499461427Y-259003571D01*
X499747141Y-259003571D01*
X499889998Y-259075000D01*
X499247141Y-259932143D02*
X499389998Y-260003571D01*
X499747141Y-260003571D01*
X499889998Y-259932143D01*
X499961427Y-259789286D01*
X499961427Y-259646429D01*
X499889998Y-259503571D01*
X499747141Y-259432143D01*
X499389998Y-259432143D01*
X499247141Y-259360714D01*
X536354287Y-262553571D02*
X536354287Y-261053571D01*
X536354287Y-261625000D02*
X536211430Y-261553571D01*
X535925716Y-261553571D01*
X535782859Y-261625000D01*
X535711430Y-261696429D01*
X535640001Y-261839286D01*
X535640001Y-262267857D01*
X535711430Y-262410714D01*
X535782859Y-262482143D01*
X535925716Y-262553571D01*
X536211430Y-262553571D01*
X536354287Y-262482143D01*
X535140001Y-261553571D02*
X534782858Y-262553571D01*
X534425716Y-261553571D02*
X534782858Y-262553571D01*
X534925716Y-262910714D01*
X534997144Y-262982143D01*
X535140001Y-263053571D01*
X532711430Y-261053571D02*
X532711430Y-262267857D01*
X532640002Y-262410714D01*
X532568573Y-262482143D01*
X532425716Y-262553571D01*
X532140002Y-262553571D01*
X531997144Y-262482143D01*
X531925716Y-262410714D01*
X531854287Y-262267857D01*
X531854287Y-261053571D01*
X531140001Y-261553571D02*
X531140001Y-262553571D01*
X531140001Y-261696429D02*
X531068573Y-261625000D01*
X530925715Y-261553571D01*
X530711430Y-261553571D01*
X530568573Y-261625000D01*
X530497144Y-261767857D01*
X530497144Y-262553571D01*
X529782858Y-262553571D02*
X529782858Y-261553571D01*
X529782858Y-261053571D02*
X529854287Y-261125000D01*
X529782858Y-261196429D01*
X529711430Y-261125000D01*
X529782858Y-261053571D01*
X529782858Y-261196429D01*
X529211429Y-262553571D02*
X528425715Y-261553571D01*
X529211429Y-261553571D02*
X528425715Y-262553571D01*
X527854286Y-261553571D02*
X527854286Y-262839286D01*
X527925715Y-262982143D01*
X528068572Y-263053571D01*
X528140000Y-263053571D01*
X527854286Y-261053571D02*
X527925715Y-261125000D01*
X527854286Y-261196429D01*
X527782858Y-261125000D01*
X527854286Y-261053571D01*
X527854286Y-261196429D01*
X526497143Y-262553571D02*
X526497143Y-261767857D01*
X526568572Y-261625000D01*
X526711429Y-261553571D01*
X526997143Y-261553571D01*
X527140000Y-261625000D01*
X526497143Y-262482143D02*
X526640000Y-262553571D01*
X526997143Y-262553571D01*
X527140000Y-262482143D01*
X527211429Y-262339286D01*
X527211429Y-262196429D01*
X527140000Y-262053571D01*
X526997143Y-261982143D01*
X526640000Y-261982143D01*
X526497143Y-261910714D01*
X525925714Y-261553571D02*
X525140000Y-261553571D01*
X525925714Y-262553571D01*
X525140000Y-262553571D01*
X524711428Y-261553571D02*
X523925714Y-261553571D01*
X524711428Y-262553571D01*
X523925714Y-262553571D01*
X522211428Y-261982143D02*
X521068571Y-261982143D01*
X520354285Y-261982143D02*
X519211428Y-261982143D01*
X518497142Y-261982143D02*
X517354285Y-261982143D01*
X515282856Y-262553571D02*
X515425714Y-262482143D01*
X515497142Y-262339286D01*
X515497142Y-261053571D01*
X514711428Y-262410714D02*
X514640000Y-262482143D01*
X514711428Y-262553571D01*
X514782857Y-262482143D01*
X514711428Y-262410714D01*
X514711428Y-262553571D01*
X514711428Y-261625000D02*
X514640000Y-261696429D01*
X514711428Y-261767857D01*
X514782857Y-261696429D01*
X514711428Y-261625000D01*
X514711428Y-261767857D01*
X511997142Y-262410714D02*
X512068571Y-262482143D01*
X512282857Y-262553571D01*
X512425714Y-262553571D01*
X512639999Y-262482143D01*
X512782857Y-262339286D01*
X512854285Y-262196429D01*
X512925714Y-261910714D01*
X512925714Y-261696429D01*
X512854285Y-261410714D01*
X512782857Y-261267857D01*
X512639999Y-261125000D01*
X512425714Y-261053571D01*
X512282857Y-261053571D01*
X512068571Y-261125000D01*
X511997142Y-261196429D01*
X511354285Y-261767857D02*
X510854285Y-261767857D01*
X510639999Y-262553571D02*
X511354285Y-262553571D01*
X511354285Y-261053571D01*
X510639999Y-261053571D01*
X509139999Y-262553571D02*
X509639999Y-261839286D01*
X509997142Y-262553571D02*
X509997142Y-261053571D01*
X509425714Y-261053571D01*
X509282856Y-261125000D01*
X509211428Y-261196429D01*
X509139999Y-261339286D01*
X509139999Y-261553571D01*
X509211428Y-261696429D01*
X509282856Y-261767857D01*
X509425714Y-261839286D01*
X509997142Y-261839286D01*
X508497142Y-262553571D02*
X508497142Y-261053571D01*
X507639999Y-262553571D01*
X507639999Y-261053571D01*
X505497142Y-261053571D02*
X505211428Y-261053571D01*
X505068570Y-261125000D01*
X504925713Y-261267857D01*
X504854285Y-261553571D01*
X504854285Y-262053571D01*
X504925713Y-262339286D01*
X505068570Y-262482143D01*
X505211428Y-262553571D01*
X505497142Y-262553571D01*
X505639999Y-262482143D01*
X505782856Y-262339286D01*
X505854285Y-262053571D01*
X505854285Y-261553571D01*
X505782856Y-261267857D01*
X505639999Y-261125000D01*
X505497142Y-261053571D01*
X504211427Y-262553571D02*
X504211427Y-261053571D01*
X504211427Y-261767857D02*
X503354284Y-261767857D01*
X503354284Y-262553571D02*
X503354284Y-261053571D01*
X501925712Y-262553571D02*
X502639998Y-262553571D01*
X502639998Y-261053571D01*
X499497141Y-262553571D02*
X500354284Y-262553571D01*
X499925712Y-262553571D02*
X499925712Y-261053571D01*
X500068569Y-261267857D01*
X500211427Y-261410714D01*
X500354284Y-261482143D01*
X498854284Y-262410714D02*
X498782856Y-262482143D01*
X498854284Y-262553571D01*
X498925713Y-262482143D01*
X498854284Y-262410714D01*
X498854284Y-262553571D01*
X498211427Y-261196429D02*
X498139998Y-261125000D01*
X497997141Y-261053571D01*
X497639998Y-261053571D01*
X497497141Y-261125000D01*
X497425712Y-261196429D01*
X497354284Y-261339286D01*
X497354284Y-261482143D01*
X497425712Y-261696429D01*
X498282855Y-262553571D01*
X497354284Y-262553571D01*
M02*
