G04 #@! TF.FileFunction,Legend,Top*
%FSLAX46Y46*%
G04 Gerber Fmt 4.6, Leading zero omitted, Abs format (unit mm)*
G04 Created by KiCad (PCBNEW 4.0.5+dfsg1-4~bpo8+1) date Sat Aug  5 17:38:17 2017*
%MOMM*%
%LPD*%
G01*
G04 APERTURE LIST*
%ADD10C,0.100000*%
%ADD11C,0.200000*%
%ADD12C,0.254000*%
%ADD13C,0.120000*%
%ADD14C,0.010000*%
%ADD15C,0.150000*%
G04 APERTURE END LIST*
D10*
D11*
X528900000Y-280242857D02*
X529185714Y-281042857D01*
X529471428Y-280242857D01*
X529928571Y-280928571D02*
X529985714Y-280985714D01*
X529928571Y-281042857D01*
X529871428Y-280985714D01*
X529928571Y-280928571D01*
X529928571Y-281042857D01*
X531128572Y-281042857D02*
X530442857Y-281042857D01*
X530785715Y-281042857D02*
X530785715Y-279842857D01*
X530671429Y-280014286D01*
X530557143Y-280128571D01*
X530442857Y-280185714D01*
X531642857Y-280928571D02*
X531700000Y-280985714D01*
X531642857Y-281042857D01*
X531585714Y-280985714D01*
X531642857Y-280928571D01*
X531642857Y-281042857D01*
X532442858Y-279842857D02*
X532557143Y-279842857D01*
X532671429Y-279900000D01*
X532728572Y-279957143D01*
X532785715Y-280071429D01*
X532842858Y-280300000D01*
X532842858Y-280585714D01*
X532785715Y-280814286D01*
X532728572Y-280928571D01*
X532671429Y-280985714D01*
X532557143Y-281042857D01*
X532442858Y-281042857D01*
X532328572Y-280985714D01*
X532271429Y-280928571D01*
X532214286Y-280814286D01*
X532157143Y-280585714D01*
X532157143Y-280300000D01*
X532214286Y-280071429D01*
X532271429Y-279957143D01*
X532328572Y-279900000D01*
X532442858Y-279842857D01*
D12*
X501610478Y-279049048D02*
X501610478Y-276509048D01*
X502578097Y-276509048D01*
X502820002Y-276630000D01*
X502940954Y-276750952D01*
X503061906Y-276992857D01*
X503061906Y-277355714D01*
X502940954Y-277597619D01*
X502820002Y-277718571D01*
X502578097Y-277839524D01*
X501610478Y-277839524D01*
X505118097Y-278928095D02*
X504876192Y-279049048D01*
X504392383Y-279049048D01*
X504150478Y-278928095D01*
X504029526Y-278686190D01*
X504029526Y-277718571D01*
X504150478Y-277476667D01*
X504392383Y-277355714D01*
X504876192Y-277355714D01*
X505118097Y-277476667D01*
X505239049Y-277718571D01*
X505239049Y-277960476D01*
X504029526Y-278202381D01*
X507416192Y-279049048D02*
X507416192Y-276509048D01*
X507416192Y-278928095D02*
X507174288Y-279049048D01*
X506690478Y-279049048D01*
X506448573Y-278928095D01*
X506327621Y-278807143D01*
X506206669Y-278565238D01*
X506206669Y-277839524D01*
X506327621Y-277597619D01*
X506448573Y-277476667D01*
X506690478Y-277355714D01*
X507174288Y-277355714D01*
X507416192Y-277476667D01*
X509714287Y-279049048D02*
X509714287Y-277718571D01*
X509593335Y-277476667D01*
X509351430Y-277355714D01*
X508867621Y-277355714D01*
X508625716Y-277476667D01*
X509714287Y-278928095D02*
X509472383Y-279049048D01*
X508867621Y-279049048D01*
X508625716Y-278928095D01*
X508504764Y-278686190D01*
X508504764Y-278444286D01*
X508625716Y-278202381D01*
X508867621Y-278081429D01*
X509472383Y-278081429D01*
X509714287Y-277960476D01*
X511286668Y-279049048D02*
X511044763Y-278928095D01*
X510923811Y-278686190D01*
X510923811Y-276509048D01*
X513826668Y-276509048D02*
X515278096Y-276509048D01*
X514552382Y-279049048D02*
X514552382Y-276509048D01*
X516124763Y-279049048D02*
X516124763Y-277355714D01*
X516124763Y-277839524D02*
X516245715Y-277597619D01*
X516366668Y-277476667D01*
X516608572Y-277355714D01*
X516850477Y-277355714D01*
X518785715Y-279049048D02*
X518785715Y-277718571D01*
X518664763Y-277476667D01*
X518422858Y-277355714D01*
X517939049Y-277355714D01*
X517697144Y-277476667D01*
X518785715Y-278928095D02*
X518543811Y-279049048D01*
X517939049Y-279049048D01*
X517697144Y-278928095D01*
X517576192Y-278686190D01*
X517576192Y-278444286D01*
X517697144Y-278202381D01*
X517939049Y-278081429D01*
X518543811Y-278081429D01*
X518785715Y-277960476D01*
X519995239Y-277355714D02*
X519995239Y-279049048D01*
X519995239Y-277597619D02*
X520116191Y-277476667D01*
X520358096Y-277355714D01*
X520720953Y-277355714D01*
X520962858Y-277476667D01*
X521083810Y-277718571D01*
X521083810Y-279049048D01*
X522172382Y-278928095D02*
X522414286Y-279049048D01*
X522898096Y-279049048D01*
X523140001Y-278928095D01*
X523260953Y-278686190D01*
X523260953Y-278565238D01*
X523140001Y-278323333D01*
X522898096Y-278202381D01*
X522535239Y-278202381D01*
X522293334Y-278081429D01*
X522172382Y-277839524D01*
X522172382Y-277718571D01*
X522293334Y-277476667D01*
X522535239Y-277355714D01*
X522898096Y-277355714D01*
X523140001Y-277476667D01*
X525438095Y-278928095D02*
X525196191Y-279049048D01*
X524712381Y-279049048D01*
X524470476Y-278928095D01*
X524349524Y-278807143D01*
X524228572Y-278565238D01*
X524228572Y-277839524D01*
X524349524Y-277597619D01*
X524470476Y-277476667D01*
X524712381Y-277355714D01*
X525196191Y-277355714D01*
X525438095Y-277476667D01*
X526526667Y-279049048D02*
X526526667Y-277355714D01*
X526526667Y-277839524D02*
X526647619Y-277597619D01*
X526768572Y-277476667D01*
X527010476Y-277355714D01*
X527252381Y-277355714D01*
X528099048Y-279049048D02*
X528099048Y-277355714D01*
X528099048Y-276509048D02*
X527978096Y-276630000D01*
X528099048Y-276750952D01*
X528220000Y-276630000D01*
X528099048Y-276509048D01*
X528099048Y-276750952D01*
X529308572Y-279049048D02*
X529308572Y-276509048D01*
X529308572Y-277476667D02*
X529550477Y-277355714D01*
X530034286Y-277355714D01*
X530276191Y-277476667D01*
X530397143Y-277597619D01*
X530518096Y-277839524D01*
X530518096Y-278565238D01*
X530397143Y-278807143D01*
X530276191Y-278928095D01*
X530034286Y-279049048D01*
X529550477Y-279049048D01*
X529308572Y-278928095D01*
X532695238Y-279049048D02*
X532695238Y-277718571D01*
X532574286Y-277476667D01*
X532332381Y-277355714D01*
X531848572Y-277355714D01*
X531606667Y-277476667D01*
X532695238Y-278928095D02*
X532453334Y-279049048D01*
X531848572Y-279049048D01*
X531606667Y-278928095D01*
X531485715Y-278686190D01*
X531485715Y-278444286D01*
X531606667Y-278202381D01*
X531848572Y-278081429D01*
X532453334Y-278081429D01*
X532695238Y-277960476D01*
D13*
X541286000Y-242000000D02*
G75*
G03X541286000Y-242000000I-2286000J0D01*
G01*
X541286000Y-278000000D02*
G75*
G03X541286000Y-278000000I-2286000J0D01*
G01*
X350286000Y-278000000D02*
G75*
G03X350286000Y-278000000I-2286000J0D01*
G01*
X350286000Y-242000000D02*
G75*
G03X350286000Y-242000000I-2286000J0D01*
G01*
X112286000Y-242000000D02*
G75*
G03X112286000Y-242000000I-2286000J0D01*
G01*
X112286000Y-278000000D02*
G75*
G03X112286000Y-278000000I-2286000J0D01*
G01*
X77286000Y-278000000D02*
G75*
G03X77286000Y-278000000I-2286000J0D01*
G01*
D14*
G36*
X519699507Y-246551600D02*
X520121691Y-248791068D01*
X521679491Y-249433245D01*
X523237291Y-250075421D01*
X525106132Y-248804623D01*
X525629505Y-248450790D01*
X526102606Y-248134863D01*
X526503358Y-247871268D01*
X526809684Y-247674426D01*
X526999506Y-247558763D01*
X527051201Y-247533824D01*
X527144328Y-247597965D01*
X527343331Y-247775289D01*
X527625902Y-248043143D01*
X527969737Y-248378875D01*
X528352529Y-248759834D01*
X528751973Y-249163369D01*
X529145763Y-249566826D01*
X529511593Y-249947556D01*
X529827158Y-250282905D01*
X530070151Y-250550222D01*
X530218267Y-250726856D01*
X530253676Y-250785969D01*
X530202717Y-250894949D01*
X530059851Y-251133702D01*
X529840102Y-251478875D01*
X529558489Y-251907113D01*
X529230033Y-252395064D01*
X529039706Y-252673379D01*
X528692794Y-253181582D01*
X528384528Y-253640184D01*
X528129863Y-254026356D01*
X527943753Y-254317272D01*
X527841152Y-254490104D01*
X527825735Y-254526425D01*
X527860686Y-254629651D01*
X527955955Y-254870229D01*
X528097168Y-255214336D01*
X528269949Y-255628145D01*
X528459925Y-256077831D01*
X528652721Y-256529569D01*
X528833962Y-256949534D01*
X528989273Y-257303900D01*
X529104279Y-257558843D01*
X529164607Y-257680536D01*
X529168168Y-257685326D01*
X529262895Y-257708562D01*
X529515172Y-257760400D01*
X529898850Y-257835746D01*
X530387779Y-257929502D01*
X530955811Y-258036572D01*
X531287227Y-258098316D01*
X531894198Y-258213883D01*
X532442435Y-258323851D01*
X532904201Y-258422203D01*
X533251761Y-258502923D01*
X533457379Y-258559992D01*
X533498713Y-258578099D01*
X533539196Y-258700654D01*
X533571860Y-258977442D01*
X533596727Y-259376096D01*
X533613819Y-259864249D01*
X533623159Y-260409536D01*
X533624768Y-260979588D01*
X533618669Y-261542038D01*
X533604883Y-262064522D01*
X533583434Y-262514670D01*
X533554342Y-262860117D01*
X533517631Y-263068495D01*
X533495612Y-263111875D01*
X533363996Y-263163870D01*
X533085108Y-263238205D01*
X532695837Y-263326148D01*
X532233073Y-263418965D01*
X532071532Y-263448992D01*
X531292678Y-263591654D01*
X530677440Y-263706546D01*
X530205488Y-263798233D01*
X529856494Y-263871282D01*
X529610129Y-263930259D01*
X529446064Y-263979731D01*
X529343971Y-264024265D01*
X529283521Y-264068426D01*
X529275064Y-264077154D01*
X529190636Y-264217749D01*
X529061843Y-264491367D01*
X528901543Y-264864501D01*
X528722596Y-265303649D01*
X528537864Y-265775304D01*
X528360206Y-266245962D01*
X528202482Y-266682119D01*
X528077553Y-267050270D01*
X527998279Y-267316909D01*
X527977519Y-267448533D01*
X527979250Y-267453144D01*
X528049589Y-267560729D01*
X528209162Y-267797444D01*
X528441199Y-268138649D01*
X528728932Y-268559706D01*
X529055592Y-269035976D01*
X529148621Y-269171322D01*
X529480323Y-269662010D01*
X529772207Y-270109716D01*
X530008372Y-270488731D01*
X530172919Y-270773345D01*
X530249945Y-270937852D01*
X530253676Y-270958062D01*
X530188959Y-271064289D01*
X530010135Y-271274728D01*
X529740190Y-271566762D01*
X529402114Y-271917776D01*
X529018896Y-272305152D01*
X528613522Y-272706273D01*
X528208983Y-273098522D01*
X527828265Y-273459284D01*
X527494358Y-273765941D01*
X527230250Y-273995876D01*
X527058929Y-274126472D01*
X527011535Y-274147794D01*
X526901218Y-274097573D01*
X526675355Y-273962122D01*
X526370737Y-273764259D01*
X526136365Y-273605002D01*
X525711694Y-273312776D01*
X525208780Y-272968691D01*
X524704331Y-272625157D01*
X524433124Y-272441298D01*
X523515145Y-271820388D01*
X522744566Y-272237032D01*
X522393510Y-272419556D01*
X522094989Y-272561427D01*
X521893004Y-272642344D01*
X521841589Y-272653603D01*
X521779764Y-272570473D01*
X521657794Y-272335560D01*
X521484783Y-271970532D01*
X521269837Y-271497060D01*
X521022061Y-270936811D01*
X520750559Y-270311453D01*
X520464437Y-269642657D01*
X520172800Y-268952089D01*
X519884753Y-268261420D01*
X519609400Y-267592318D01*
X519355848Y-266966451D01*
X519133200Y-266405488D01*
X518950562Y-265931099D01*
X518817040Y-265564950D01*
X518741737Y-265328712D01*
X518729627Y-265247578D01*
X518825612Y-265144089D01*
X519035771Y-264976095D01*
X519316168Y-264778501D01*
X519339702Y-264762868D01*
X520064419Y-264182757D01*
X520648779Y-263505965D01*
X521087718Y-262754133D01*
X521376171Y-261948902D01*
X521509076Y-261111912D01*
X521481366Y-260264804D01*
X521287979Y-259429219D01*
X520923849Y-258626798D01*
X520816719Y-258451238D01*
X520259506Y-257742318D01*
X519601226Y-257173044D01*
X518864663Y-256746378D01*
X518072601Y-256465279D01*
X517247824Y-256332709D01*
X516413114Y-256351627D01*
X515591256Y-256524995D01*
X514805034Y-256855772D01*
X514077231Y-257346919D01*
X513852100Y-257546265D01*
X513279132Y-258170271D01*
X512861615Y-258827171D01*
X512575213Y-259563497D01*
X512415702Y-260292689D01*
X512376325Y-261112531D01*
X512507628Y-261936443D01*
X512796275Y-262736576D01*
X513228927Y-263485080D01*
X513792247Y-264154109D01*
X514472899Y-264715812D01*
X514562354Y-264775021D01*
X514845756Y-264968920D01*
X515061194Y-265136921D01*
X515164191Y-265244187D01*
X515165689Y-265247578D01*
X515143577Y-265363615D01*
X515055921Y-265626966D01*
X514911831Y-266015970D01*
X514720416Y-266508961D01*
X514490784Y-267084276D01*
X514232043Y-267720252D01*
X513953302Y-268395225D01*
X513663671Y-269087530D01*
X513372256Y-269775504D01*
X513088168Y-270437483D01*
X512820515Y-271051804D01*
X512578406Y-271596802D01*
X512370948Y-272050815D01*
X512207251Y-272392177D01*
X512096423Y-272599225D01*
X512051793Y-272653603D01*
X511915415Y-272611259D01*
X511660238Y-272497692D01*
X511330263Y-272333200D01*
X511148816Y-272237032D01*
X510378237Y-271820388D01*
X509460258Y-272441298D01*
X508991650Y-272759386D01*
X508478606Y-273109433D01*
X507997833Y-273439031D01*
X507757017Y-273605002D01*
X507418318Y-273832441D01*
X507131518Y-274012677D01*
X506934029Y-274122885D01*
X506869884Y-274146183D01*
X506776521Y-274083335D01*
X506569894Y-273907885D01*
X506270036Y-273638050D01*
X505896978Y-273292045D01*
X505470753Y-272888088D01*
X505201184Y-272628720D01*
X504729569Y-272165338D01*
X504321988Y-271750877D01*
X503994919Y-271403068D01*
X503764837Y-271139640D01*
X503648218Y-270978323D01*
X503637030Y-270945586D01*
X503688949Y-270821063D01*
X503832422Y-270569283D01*
X504051532Y-270215738D01*
X504330366Y-269785917D01*
X504653008Y-269305311D01*
X504744761Y-269171322D01*
X505079081Y-268684334D01*
X505379018Y-268245883D01*
X505627803Y-267880607D01*
X505808667Y-267613146D01*
X505904841Y-267468138D01*
X505914132Y-267453144D01*
X505900237Y-267337580D01*
X505826482Y-267083496D01*
X505705727Y-266724396D01*
X505550831Y-266293784D01*
X505374656Y-265825166D01*
X505190062Y-265352046D01*
X505009908Y-264907929D01*
X504847055Y-264526319D01*
X504714363Y-264240721D01*
X504624692Y-264084641D01*
X504618318Y-264077154D01*
X504563484Y-264032547D01*
X504470870Y-263988436D01*
X504320148Y-263940254D01*
X504090989Y-263883434D01*
X503763064Y-263813411D01*
X503316046Y-263725618D01*
X502729604Y-263615488D01*
X501983411Y-263478455D01*
X501821850Y-263448992D01*
X501343016Y-263356477D01*
X500925576Y-263265974D01*
X500606421Y-263186213D01*
X500422439Y-263125929D01*
X500397769Y-263111875D01*
X500357117Y-262987275D01*
X500324074Y-262708830D01*
X500298661Y-262308908D01*
X500280900Y-261819876D01*
X500270814Y-261274100D01*
X500268425Y-260703947D01*
X500273756Y-260141784D01*
X500286827Y-259619978D01*
X500307661Y-259170896D01*
X500336281Y-258826905D01*
X500372709Y-258620371D01*
X500394669Y-258578099D01*
X500516926Y-258535459D01*
X500795318Y-258466089D01*
X501202110Y-258376008D01*
X501709565Y-258271232D01*
X502289946Y-258157779D01*
X502606155Y-258098316D01*
X503206112Y-257986163D01*
X503741128Y-257884563D01*
X504185056Y-257798614D01*
X504511745Y-257733412D01*
X504695045Y-257694052D01*
X504725213Y-257685326D01*
X504776202Y-257586947D01*
X504883985Y-257349983D01*
X505034196Y-257008287D01*
X505212468Y-256595714D01*
X505404433Y-256146118D01*
X505595724Y-255693351D01*
X505771974Y-255271267D01*
X505918817Y-254913720D01*
X506021885Y-254654564D01*
X506066811Y-254527652D01*
X506067647Y-254522105D01*
X506016717Y-254421989D01*
X505873933Y-254191599D01*
X505654302Y-253853832D01*
X505372831Y-253431587D01*
X505044528Y-252947762D01*
X504853676Y-252669853D01*
X504505910Y-252160289D01*
X504197029Y-251697659D01*
X503942104Y-251305365D01*
X503756207Y-251006810D01*
X503654408Y-250825399D01*
X503639706Y-250784732D01*
X503702907Y-250690074D01*
X503877631Y-250487965D01*
X504141558Y-250201047D01*
X504472370Y-249851963D01*
X504847747Y-249463354D01*
X505245369Y-249057865D01*
X505642917Y-248658136D01*
X506018072Y-248286811D01*
X506348514Y-247966532D01*
X506611924Y-247719942D01*
X506785983Y-247569684D01*
X506844212Y-247533824D01*
X506939024Y-247584248D01*
X507165793Y-247725908D01*
X507502472Y-247944382D01*
X507927012Y-248225251D01*
X508417365Y-248554095D01*
X508787250Y-248804623D01*
X510656091Y-250075421D01*
X512213891Y-249433245D01*
X513771691Y-248791068D01*
X514193875Y-246551600D01*
X514616059Y-244312133D01*
X519277323Y-244312133D01*
X519699507Y-246551600D01*
X519699507Y-246551600D01*
G37*
X519699507Y-246551600D02*
X520121691Y-248791068D01*
X521679491Y-249433245D01*
X523237291Y-250075421D01*
X525106132Y-248804623D01*
X525629505Y-248450790D01*
X526102606Y-248134863D01*
X526503358Y-247871268D01*
X526809684Y-247674426D01*
X526999506Y-247558763D01*
X527051201Y-247533824D01*
X527144328Y-247597965D01*
X527343331Y-247775289D01*
X527625902Y-248043143D01*
X527969737Y-248378875D01*
X528352529Y-248759834D01*
X528751973Y-249163369D01*
X529145763Y-249566826D01*
X529511593Y-249947556D01*
X529827158Y-250282905D01*
X530070151Y-250550222D01*
X530218267Y-250726856D01*
X530253676Y-250785969D01*
X530202717Y-250894949D01*
X530059851Y-251133702D01*
X529840102Y-251478875D01*
X529558489Y-251907113D01*
X529230033Y-252395064D01*
X529039706Y-252673379D01*
X528692794Y-253181582D01*
X528384528Y-253640184D01*
X528129863Y-254026356D01*
X527943753Y-254317272D01*
X527841152Y-254490104D01*
X527825735Y-254526425D01*
X527860686Y-254629651D01*
X527955955Y-254870229D01*
X528097168Y-255214336D01*
X528269949Y-255628145D01*
X528459925Y-256077831D01*
X528652721Y-256529569D01*
X528833962Y-256949534D01*
X528989273Y-257303900D01*
X529104279Y-257558843D01*
X529164607Y-257680536D01*
X529168168Y-257685326D01*
X529262895Y-257708562D01*
X529515172Y-257760400D01*
X529898850Y-257835746D01*
X530387779Y-257929502D01*
X530955811Y-258036572D01*
X531287227Y-258098316D01*
X531894198Y-258213883D01*
X532442435Y-258323851D01*
X532904201Y-258422203D01*
X533251761Y-258502923D01*
X533457379Y-258559992D01*
X533498713Y-258578099D01*
X533539196Y-258700654D01*
X533571860Y-258977442D01*
X533596727Y-259376096D01*
X533613819Y-259864249D01*
X533623159Y-260409536D01*
X533624768Y-260979588D01*
X533618669Y-261542038D01*
X533604883Y-262064522D01*
X533583434Y-262514670D01*
X533554342Y-262860117D01*
X533517631Y-263068495D01*
X533495612Y-263111875D01*
X533363996Y-263163870D01*
X533085108Y-263238205D01*
X532695837Y-263326148D01*
X532233073Y-263418965D01*
X532071532Y-263448992D01*
X531292678Y-263591654D01*
X530677440Y-263706546D01*
X530205488Y-263798233D01*
X529856494Y-263871282D01*
X529610129Y-263930259D01*
X529446064Y-263979731D01*
X529343971Y-264024265D01*
X529283521Y-264068426D01*
X529275064Y-264077154D01*
X529190636Y-264217749D01*
X529061843Y-264491367D01*
X528901543Y-264864501D01*
X528722596Y-265303649D01*
X528537864Y-265775304D01*
X528360206Y-266245962D01*
X528202482Y-266682119D01*
X528077553Y-267050270D01*
X527998279Y-267316909D01*
X527977519Y-267448533D01*
X527979250Y-267453144D01*
X528049589Y-267560729D01*
X528209162Y-267797444D01*
X528441199Y-268138649D01*
X528728932Y-268559706D01*
X529055592Y-269035976D01*
X529148621Y-269171322D01*
X529480323Y-269662010D01*
X529772207Y-270109716D01*
X530008372Y-270488731D01*
X530172919Y-270773345D01*
X530249945Y-270937852D01*
X530253676Y-270958062D01*
X530188959Y-271064289D01*
X530010135Y-271274728D01*
X529740190Y-271566762D01*
X529402114Y-271917776D01*
X529018896Y-272305152D01*
X528613522Y-272706273D01*
X528208983Y-273098522D01*
X527828265Y-273459284D01*
X527494358Y-273765941D01*
X527230250Y-273995876D01*
X527058929Y-274126472D01*
X527011535Y-274147794D01*
X526901218Y-274097573D01*
X526675355Y-273962122D01*
X526370737Y-273764259D01*
X526136365Y-273605002D01*
X525711694Y-273312776D01*
X525208780Y-272968691D01*
X524704331Y-272625157D01*
X524433124Y-272441298D01*
X523515145Y-271820388D01*
X522744566Y-272237032D01*
X522393510Y-272419556D01*
X522094989Y-272561427D01*
X521893004Y-272642344D01*
X521841589Y-272653603D01*
X521779764Y-272570473D01*
X521657794Y-272335560D01*
X521484783Y-271970532D01*
X521269837Y-271497060D01*
X521022061Y-270936811D01*
X520750559Y-270311453D01*
X520464437Y-269642657D01*
X520172800Y-268952089D01*
X519884753Y-268261420D01*
X519609400Y-267592318D01*
X519355848Y-266966451D01*
X519133200Y-266405488D01*
X518950562Y-265931099D01*
X518817040Y-265564950D01*
X518741737Y-265328712D01*
X518729627Y-265247578D01*
X518825612Y-265144089D01*
X519035771Y-264976095D01*
X519316168Y-264778501D01*
X519339702Y-264762868D01*
X520064419Y-264182757D01*
X520648779Y-263505965D01*
X521087718Y-262754133D01*
X521376171Y-261948902D01*
X521509076Y-261111912D01*
X521481366Y-260264804D01*
X521287979Y-259429219D01*
X520923849Y-258626798D01*
X520816719Y-258451238D01*
X520259506Y-257742318D01*
X519601226Y-257173044D01*
X518864663Y-256746378D01*
X518072601Y-256465279D01*
X517247824Y-256332709D01*
X516413114Y-256351627D01*
X515591256Y-256524995D01*
X514805034Y-256855772D01*
X514077231Y-257346919D01*
X513852100Y-257546265D01*
X513279132Y-258170271D01*
X512861615Y-258827171D01*
X512575213Y-259563497D01*
X512415702Y-260292689D01*
X512376325Y-261112531D01*
X512507628Y-261936443D01*
X512796275Y-262736576D01*
X513228927Y-263485080D01*
X513792247Y-264154109D01*
X514472899Y-264715812D01*
X514562354Y-264775021D01*
X514845756Y-264968920D01*
X515061194Y-265136921D01*
X515164191Y-265244187D01*
X515165689Y-265247578D01*
X515143577Y-265363615D01*
X515055921Y-265626966D01*
X514911831Y-266015970D01*
X514720416Y-266508961D01*
X514490784Y-267084276D01*
X514232043Y-267720252D01*
X513953302Y-268395225D01*
X513663671Y-269087530D01*
X513372256Y-269775504D01*
X513088168Y-270437483D01*
X512820515Y-271051804D01*
X512578406Y-271596802D01*
X512370948Y-272050815D01*
X512207251Y-272392177D01*
X512096423Y-272599225D01*
X512051793Y-272653603D01*
X511915415Y-272611259D01*
X511660238Y-272497692D01*
X511330263Y-272333200D01*
X511148816Y-272237032D01*
X510378237Y-271820388D01*
X509460258Y-272441298D01*
X508991650Y-272759386D01*
X508478606Y-273109433D01*
X507997833Y-273439031D01*
X507757017Y-273605002D01*
X507418318Y-273832441D01*
X507131518Y-274012677D01*
X506934029Y-274122885D01*
X506869884Y-274146183D01*
X506776521Y-274083335D01*
X506569894Y-273907885D01*
X506270036Y-273638050D01*
X505896978Y-273292045D01*
X505470753Y-272888088D01*
X505201184Y-272628720D01*
X504729569Y-272165338D01*
X504321988Y-271750877D01*
X503994919Y-271403068D01*
X503764837Y-271139640D01*
X503648218Y-270978323D01*
X503637030Y-270945586D01*
X503688949Y-270821063D01*
X503832422Y-270569283D01*
X504051532Y-270215738D01*
X504330366Y-269785917D01*
X504653008Y-269305311D01*
X504744761Y-269171322D01*
X505079081Y-268684334D01*
X505379018Y-268245883D01*
X505627803Y-267880607D01*
X505808667Y-267613146D01*
X505904841Y-267468138D01*
X505914132Y-267453144D01*
X505900237Y-267337580D01*
X505826482Y-267083496D01*
X505705727Y-266724396D01*
X505550831Y-266293784D01*
X505374656Y-265825166D01*
X505190062Y-265352046D01*
X505009908Y-264907929D01*
X504847055Y-264526319D01*
X504714363Y-264240721D01*
X504624692Y-264084641D01*
X504618318Y-264077154D01*
X504563484Y-264032547D01*
X504470870Y-263988436D01*
X504320148Y-263940254D01*
X504090989Y-263883434D01*
X503763064Y-263813411D01*
X503316046Y-263725618D01*
X502729604Y-263615488D01*
X501983411Y-263478455D01*
X501821850Y-263448992D01*
X501343016Y-263356477D01*
X500925576Y-263265974D01*
X500606421Y-263186213D01*
X500422439Y-263125929D01*
X500397769Y-263111875D01*
X500357117Y-262987275D01*
X500324074Y-262708830D01*
X500298661Y-262308908D01*
X500280900Y-261819876D01*
X500270814Y-261274100D01*
X500268425Y-260703947D01*
X500273756Y-260141784D01*
X500286827Y-259619978D01*
X500307661Y-259170896D01*
X500336281Y-258826905D01*
X500372709Y-258620371D01*
X500394669Y-258578099D01*
X500516926Y-258535459D01*
X500795318Y-258466089D01*
X501202110Y-258376008D01*
X501709565Y-258271232D01*
X502289946Y-258157779D01*
X502606155Y-258098316D01*
X503206112Y-257986163D01*
X503741128Y-257884563D01*
X504185056Y-257798614D01*
X504511745Y-257733412D01*
X504695045Y-257694052D01*
X504725213Y-257685326D01*
X504776202Y-257586947D01*
X504883985Y-257349983D01*
X505034196Y-257008287D01*
X505212468Y-256595714D01*
X505404433Y-256146118D01*
X505595724Y-255693351D01*
X505771974Y-255271267D01*
X505918817Y-254913720D01*
X506021885Y-254654564D01*
X506066811Y-254527652D01*
X506067647Y-254522105D01*
X506016717Y-254421989D01*
X505873933Y-254191599D01*
X505654302Y-253853832D01*
X505372831Y-253431587D01*
X505044528Y-252947762D01*
X504853676Y-252669853D01*
X504505910Y-252160289D01*
X504197029Y-251697659D01*
X503942104Y-251305365D01*
X503756207Y-251006810D01*
X503654408Y-250825399D01*
X503639706Y-250784732D01*
X503702907Y-250690074D01*
X503877631Y-250487965D01*
X504141558Y-250201047D01*
X504472370Y-249851963D01*
X504847747Y-249463354D01*
X505245369Y-249057865D01*
X505642917Y-248658136D01*
X506018072Y-248286811D01*
X506348514Y-247966532D01*
X506611924Y-247719942D01*
X506785983Y-247569684D01*
X506844212Y-247533824D01*
X506939024Y-247584248D01*
X507165793Y-247725908D01*
X507502472Y-247944382D01*
X507927012Y-248225251D01*
X508417365Y-248554095D01*
X508787250Y-248804623D01*
X510656091Y-250075421D01*
X512213891Y-249433245D01*
X513771691Y-248791068D01*
X514193875Y-246551600D01*
X514616059Y-244312133D01*
X519277323Y-244312133D01*
X519699507Y-246551600D01*
G36*
X450599507Y-246551600D02*
X451021691Y-248791068D01*
X452579491Y-249433245D01*
X454137291Y-250075421D01*
X456006132Y-248804623D01*
X456529505Y-248450790D01*
X457002606Y-248134863D01*
X457403358Y-247871268D01*
X457709684Y-247674426D01*
X457899506Y-247558763D01*
X457951201Y-247533824D01*
X458044328Y-247597965D01*
X458243331Y-247775289D01*
X458525902Y-248043143D01*
X458869737Y-248378875D01*
X459252529Y-248759834D01*
X459651973Y-249163369D01*
X460045763Y-249566826D01*
X460411593Y-249947556D01*
X460727158Y-250282905D01*
X460970151Y-250550222D01*
X461118267Y-250726856D01*
X461153676Y-250785969D01*
X461102717Y-250894949D01*
X460959851Y-251133702D01*
X460740102Y-251478875D01*
X460458489Y-251907113D01*
X460130033Y-252395064D01*
X459939706Y-252673379D01*
X459592794Y-253181582D01*
X459284528Y-253640184D01*
X459029863Y-254026356D01*
X458843753Y-254317272D01*
X458741152Y-254490104D01*
X458725735Y-254526425D01*
X458760686Y-254629651D01*
X458855955Y-254870229D01*
X458997168Y-255214336D01*
X459169949Y-255628145D01*
X459359925Y-256077831D01*
X459552721Y-256529569D01*
X459733962Y-256949534D01*
X459889273Y-257303900D01*
X460004279Y-257558843D01*
X460064607Y-257680536D01*
X460068168Y-257685326D01*
X460162895Y-257708562D01*
X460415172Y-257760400D01*
X460798850Y-257835746D01*
X461287779Y-257929502D01*
X461855811Y-258036572D01*
X462187227Y-258098316D01*
X462794198Y-258213883D01*
X463342435Y-258323851D01*
X463804201Y-258422203D01*
X464151761Y-258502923D01*
X464357379Y-258559992D01*
X464398713Y-258578099D01*
X464439196Y-258700654D01*
X464471860Y-258977442D01*
X464496727Y-259376096D01*
X464513819Y-259864249D01*
X464523159Y-260409536D01*
X464524768Y-260979588D01*
X464518669Y-261542038D01*
X464504883Y-262064522D01*
X464483434Y-262514670D01*
X464454342Y-262860117D01*
X464417631Y-263068495D01*
X464395612Y-263111875D01*
X464263996Y-263163870D01*
X463985108Y-263238205D01*
X463595837Y-263326148D01*
X463133073Y-263418965D01*
X462971532Y-263448992D01*
X462192678Y-263591654D01*
X461577440Y-263706546D01*
X461105488Y-263798233D01*
X460756494Y-263871282D01*
X460510129Y-263930259D01*
X460346064Y-263979731D01*
X460243971Y-264024265D01*
X460183521Y-264068426D01*
X460175064Y-264077154D01*
X460090636Y-264217749D01*
X459961843Y-264491367D01*
X459801543Y-264864501D01*
X459622596Y-265303649D01*
X459437864Y-265775304D01*
X459260206Y-266245962D01*
X459102482Y-266682119D01*
X458977553Y-267050270D01*
X458898279Y-267316909D01*
X458877519Y-267448533D01*
X458879250Y-267453144D01*
X458949589Y-267560729D01*
X459109162Y-267797444D01*
X459341199Y-268138649D01*
X459628932Y-268559706D01*
X459955592Y-269035976D01*
X460048621Y-269171322D01*
X460380323Y-269662010D01*
X460672207Y-270109716D01*
X460908372Y-270488731D01*
X461072919Y-270773345D01*
X461149945Y-270937852D01*
X461153676Y-270958062D01*
X461088959Y-271064289D01*
X460910135Y-271274728D01*
X460640190Y-271566762D01*
X460302114Y-271917776D01*
X459918896Y-272305152D01*
X459513522Y-272706273D01*
X459108983Y-273098522D01*
X458728265Y-273459284D01*
X458394358Y-273765941D01*
X458130250Y-273995876D01*
X457958929Y-274126472D01*
X457911535Y-274147794D01*
X457801218Y-274097573D01*
X457575355Y-273962122D01*
X457270737Y-273764259D01*
X457036365Y-273605002D01*
X456611694Y-273312776D01*
X456108780Y-272968691D01*
X455604331Y-272625157D01*
X455333124Y-272441298D01*
X454415145Y-271820388D01*
X453644566Y-272237032D01*
X453293510Y-272419556D01*
X452994989Y-272561427D01*
X452793004Y-272642344D01*
X452741589Y-272653603D01*
X452679764Y-272570473D01*
X452557794Y-272335560D01*
X452384783Y-271970532D01*
X452169837Y-271497060D01*
X451922061Y-270936811D01*
X451650559Y-270311453D01*
X451364437Y-269642657D01*
X451072800Y-268952089D01*
X450784753Y-268261420D01*
X450509400Y-267592318D01*
X450255848Y-266966451D01*
X450033200Y-266405488D01*
X449850562Y-265931099D01*
X449717040Y-265564950D01*
X449641737Y-265328712D01*
X449629627Y-265247578D01*
X449725612Y-265144089D01*
X449935771Y-264976095D01*
X450216168Y-264778501D01*
X450239702Y-264762868D01*
X450964419Y-264182757D01*
X451548779Y-263505965D01*
X451987718Y-262754133D01*
X452276171Y-261948902D01*
X452409076Y-261111912D01*
X452381366Y-260264804D01*
X452187979Y-259429219D01*
X451823849Y-258626798D01*
X451716719Y-258451238D01*
X451159506Y-257742318D01*
X450501226Y-257173044D01*
X449764663Y-256746378D01*
X448972601Y-256465279D01*
X448147824Y-256332709D01*
X447313114Y-256351627D01*
X446491256Y-256524995D01*
X445705034Y-256855772D01*
X444977231Y-257346919D01*
X444752100Y-257546265D01*
X444179132Y-258170271D01*
X443761615Y-258827171D01*
X443475213Y-259563497D01*
X443315702Y-260292689D01*
X443276325Y-261112531D01*
X443407628Y-261936443D01*
X443696275Y-262736576D01*
X444128927Y-263485080D01*
X444692247Y-264154109D01*
X445372899Y-264715812D01*
X445462354Y-264775021D01*
X445745756Y-264968920D01*
X445961194Y-265136921D01*
X446064191Y-265244187D01*
X446065689Y-265247578D01*
X446043577Y-265363615D01*
X445955921Y-265626966D01*
X445811831Y-266015970D01*
X445620416Y-266508961D01*
X445390784Y-267084276D01*
X445132043Y-267720252D01*
X444853302Y-268395225D01*
X444563671Y-269087530D01*
X444272256Y-269775504D01*
X443988168Y-270437483D01*
X443720515Y-271051804D01*
X443478406Y-271596802D01*
X443270948Y-272050815D01*
X443107251Y-272392177D01*
X442996423Y-272599225D01*
X442951793Y-272653603D01*
X442815415Y-272611259D01*
X442560238Y-272497692D01*
X442230263Y-272333200D01*
X442048816Y-272237032D01*
X441278237Y-271820388D01*
X440360258Y-272441298D01*
X439891650Y-272759386D01*
X439378606Y-273109433D01*
X438897833Y-273439031D01*
X438657017Y-273605002D01*
X438318318Y-273832441D01*
X438031518Y-274012677D01*
X437834029Y-274122885D01*
X437769884Y-274146183D01*
X437676521Y-274083335D01*
X437469894Y-273907885D01*
X437170036Y-273638050D01*
X436796978Y-273292045D01*
X436370753Y-272888088D01*
X436101184Y-272628720D01*
X435629569Y-272165338D01*
X435221988Y-271750877D01*
X434894919Y-271403068D01*
X434664837Y-271139640D01*
X434548218Y-270978323D01*
X434537030Y-270945586D01*
X434588949Y-270821063D01*
X434732422Y-270569283D01*
X434951532Y-270215738D01*
X435230366Y-269785917D01*
X435553008Y-269305311D01*
X435644761Y-269171322D01*
X435979081Y-268684334D01*
X436279018Y-268245883D01*
X436527803Y-267880607D01*
X436708667Y-267613146D01*
X436804841Y-267468138D01*
X436814132Y-267453144D01*
X436800237Y-267337580D01*
X436726482Y-267083496D01*
X436605727Y-266724396D01*
X436450831Y-266293784D01*
X436274656Y-265825166D01*
X436090062Y-265352046D01*
X435909908Y-264907929D01*
X435747055Y-264526319D01*
X435614363Y-264240721D01*
X435524692Y-264084641D01*
X435518318Y-264077154D01*
X435463484Y-264032547D01*
X435370870Y-263988436D01*
X435220148Y-263940254D01*
X434990989Y-263883434D01*
X434663064Y-263813411D01*
X434216046Y-263725618D01*
X433629604Y-263615488D01*
X432883411Y-263478455D01*
X432721850Y-263448992D01*
X432243016Y-263356477D01*
X431825576Y-263265974D01*
X431506421Y-263186213D01*
X431322439Y-263125929D01*
X431297769Y-263111875D01*
X431257117Y-262987275D01*
X431224074Y-262708830D01*
X431198661Y-262308908D01*
X431180900Y-261819876D01*
X431170814Y-261274100D01*
X431168425Y-260703947D01*
X431173756Y-260141784D01*
X431186827Y-259619978D01*
X431207661Y-259170896D01*
X431236281Y-258826905D01*
X431272709Y-258620371D01*
X431294669Y-258578099D01*
X431416926Y-258535459D01*
X431695318Y-258466089D01*
X432102110Y-258376008D01*
X432609565Y-258271232D01*
X433189946Y-258157779D01*
X433506155Y-258098316D01*
X434106112Y-257986163D01*
X434641128Y-257884563D01*
X435085056Y-257798614D01*
X435411745Y-257733412D01*
X435595045Y-257694052D01*
X435625213Y-257685326D01*
X435676202Y-257586947D01*
X435783985Y-257349983D01*
X435934196Y-257008287D01*
X436112468Y-256595714D01*
X436304433Y-256146118D01*
X436495724Y-255693351D01*
X436671974Y-255271267D01*
X436818817Y-254913720D01*
X436921885Y-254654564D01*
X436966811Y-254527652D01*
X436967647Y-254522105D01*
X436916717Y-254421989D01*
X436773933Y-254191599D01*
X436554302Y-253853832D01*
X436272831Y-253431587D01*
X435944528Y-252947762D01*
X435753676Y-252669853D01*
X435405910Y-252160289D01*
X435097029Y-251697659D01*
X434842104Y-251305365D01*
X434656207Y-251006810D01*
X434554408Y-250825399D01*
X434539706Y-250784732D01*
X434602907Y-250690074D01*
X434777631Y-250487965D01*
X435041558Y-250201047D01*
X435372370Y-249851963D01*
X435747747Y-249463354D01*
X436145369Y-249057865D01*
X436542917Y-248658136D01*
X436918072Y-248286811D01*
X437248514Y-247966532D01*
X437511924Y-247719942D01*
X437685983Y-247569684D01*
X437744212Y-247533824D01*
X437839024Y-247584248D01*
X438065793Y-247725908D01*
X438402472Y-247944382D01*
X438827012Y-248225251D01*
X439317365Y-248554095D01*
X439687250Y-248804623D01*
X441556091Y-250075421D01*
X443113891Y-249433245D01*
X444671691Y-248791068D01*
X445093875Y-246551600D01*
X445516059Y-244312133D01*
X450177323Y-244312133D01*
X450599507Y-246551600D01*
X450599507Y-246551600D01*
G37*
X450599507Y-246551600D02*
X451021691Y-248791068D01*
X452579491Y-249433245D01*
X454137291Y-250075421D01*
X456006132Y-248804623D01*
X456529505Y-248450790D01*
X457002606Y-248134863D01*
X457403358Y-247871268D01*
X457709684Y-247674426D01*
X457899506Y-247558763D01*
X457951201Y-247533824D01*
X458044328Y-247597965D01*
X458243331Y-247775289D01*
X458525902Y-248043143D01*
X458869737Y-248378875D01*
X459252529Y-248759834D01*
X459651973Y-249163369D01*
X460045763Y-249566826D01*
X460411593Y-249947556D01*
X460727158Y-250282905D01*
X460970151Y-250550222D01*
X461118267Y-250726856D01*
X461153676Y-250785969D01*
X461102717Y-250894949D01*
X460959851Y-251133702D01*
X460740102Y-251478875D01*
X460458489Y-251907113D01*
X460130033Y-252395064D01*
X459939706Y-252673379D01*
X459592794Y-253181582D01*
X459284528Y-253640184D01*
X459029863Y-254026356D01*
X458843753Y-254317272D01*
X458741152Y-254490104D01*
X458725735Y-254526425D01*
X458760686Y-254629651D01*
X458855955Y-254870229D01*
X458997168Y-255214336D01*
X459169949Y-255628145D01*
X459359925Y-256077831D01*
X459552721Y-256529569D01*
X459733962Y-256949534D01*
X459889273Y-257303900D01*
X460004279Y-257558843D01*
X460064607Y-257680536D01*
X460068168Y-257685326D01*
X460162895Y-257708562D01*
X460415172Y-257760400D01*
X460798850Y-257835746D01*
X461287779Y-257929502D01*
X461855811Y-258036572D01*
X462187227Y-258098316D01*
X462794198Y-258213883D01*
X463342435Y-258323851D01*
X463804201Y-258422203D01*
X464151761Y-258502923D01*
X464357379Y-258559992D01*
X464398713Y-258578099D01*
X464439196Y-258700654D01*
X464471860Y-258977442D01*
X464496727Y-259376096D01*
X464513819Y-259864249D01*
X464523159Y-260409536D01*
X464524768Y-260979588D01*
X464518669Y-261542038D01*
X464504883Y-262064522D01*
X464483434Y-262514670D01*
X464454342Y-262860117D01*
X464417631Y-263068495D01*
X464395612Y-263111875D01*
X464263996Y-263163870D01*
X463985108Y-263238205D01*
X463595837Y-263326148D01*
X463133073Y-263418965D01*
X462971532Y-263448992D01*
X462192678Y-263591654D01*
X461577440Y-263706546D01*
X461105488Y-263798233D01*
X460756494Y-263871282D01*
X460510129Y-263930259D01*
X460346064Y-263979731D01*
X460243971Y-264024265D01*
X460183521Y-264068426D01*
X460175064Y-264077154D01*
X460090636Y-264217749D01*
X459961843Y-264491367D01*
X459801543Y-264864501D01*
X459622596Y-265303649D01*
X459437864Y-265775304D01*
X459260206Y-266245962D01*
X459102482Y-266682119D01*
X458977553Y-267050270D01*
X458898279Y-267316909D01*
X458877519Y-267448533D01*
X458879250Y-267453144D01*
X458949589Y-267560729D01*
X459109162Y-267797444D01*
X459341199Y-268138649D01*
X459628932Y-268559706D01*
X459955592Y-269035976D01*
X460048621Y-269171322D01*
X460380323Y-269662010D01*
X460672207Y-270109716D01*
X460908372Y-270488731D01*
X461072919Y-270773345D01*
X461149945Y-270937852D01*
X461153676Y-270958062D01*
X461088959Y-271064289D01*
X460910135Y-271274728D01*
X460640190Y-271566762D01*
X460302114Y-271917776D01*
X459918896Y-272305152D01*
X459513522Y-272706273D01*
X459108983Y-273098522D01*
X458728265Y-273459284D01*
X458394358Y-273765941D01*
X458130250Y-273995876D01*
X457958929Y-274126472D01*
X457911535Y-274147794D01*
X457801218Y-274097573D01*
X457575355Y-273962122D01*
X457270737Y-273764259D01*
X457036365Y-273605002D01*
X456611694Y-273312776D01*
X456108780Y-272968691D01*
X455604331Y-272625157D01*
X455333124Y-272441298D01*
X454415145Y-271820388D01*
X453644566Y-272237032D01*
X453293510Y-272419556D01*
X452994989Y-272561427D01*
X452793004Y-272642344D01*
X452741589Y-272653603D01*
X452679764Y-272570473D01*
X452557794Y-272335560D01*
X452384783Y-271970532D01*
X452169837Y-271497060D01*
X451922061Y-270936811D01*
X451650559Y-270311453D01*
X451364437Y-269642657D01*
X451072800Y-268952089D01*
X450784753Y-268261420D01*
X450509400Y-267592318D01*
X450255848Y-266966451D01*
X450033200Y-266405488D01*
X449850562Y-265931099D01*
X449717040Y-265564950D01*
X449641737Y-265328712D01*
X449629627Y-265247578D01*
X449725612Y-265144089D01*
X449935771Y-264976095D01*
X450216168Y-264778501D01*
X450239702Y-264762868D01*
X450964419Y-264182757D01*
X451548779Y-263505965D01*
X451987718Y-262754133D01*
X452276171Y-261948902D01*
X452409076Y-261111912D01*
X452381366Y-260264804D01*
X452187979Y-259429219D01*
X451823849Y-258626798D01*
X451716719Y-258451238D01*
X451159506Y-257742318D01*
X450501226Y-257173044D01*
X449764663Y-256746378D01*
X448972601Y-256465279D01*
X448147824Y-256332709D01*
X447313114Y-256351627D01*
X446491256Y-256524995D01*
X445705034Y-256855772D01*
X444977231Y-257346919D01*
X444752100Y-257546265D01*
X444179132Y-258170271D01*
X443761615Y-258827171D01*
X443475213Y-259563497D01*
X443315702Y-260292689D01*
X443276325Y-261112531D01*
X443407628Y-261936443D01*
X443696275Y-262736576D01*
X444128927Y-263485080D01*
X444692247Y-264154109D01*
X445372899Y-264715812D01*
X445462354Y-264775021D01*
X445745756Y-264968920D01*
X445961194Y-265136921D01*
X446064191Y-265244187D01*
X446065689Y-265247578D01*
X446043577Y-265363615D01*
X445955921Y-265626966D01*
X445811831Y-266015970D01*
X445620416Y-266508961D01*
X445390784Y-267084276D01*
X445132043Y-267720252D01*
X444853302Y-268395225D01*
X444563671Y-269087530D01*
X444272256Y-269775504D01*
X443988168Y-270437483D01*
X443720515Y-271051804D01*
X443478406Y-271596802D01*
X443270948Y-272050815D01*
X443107251Y-272392177D01*
X442996423Y-272599225D01*
X442951793Y-272653603D01*
X442815415Y-272611259D01*
X442560238Y-272497692D01*
X442230263Y-272333200D01*
X442048816Y-272237032D01*
X441278237Y-271820388D01*
X440360258Y-272441298D01*
X439891650Y-272759386D01*
X439378606Y-273109433D01*
X438897833Y-273439031D01*
X438657017Y-273605002D01*
X438318318Y-273832441D01*
X438031518Y-274012677D01*
X437834029Y-274122885D01*
X437769884Y-274146183D01*
X437676521Y-274083335D01*
X437469894Y-273907885D01*
X437170036Y-273638050D01*
X436796978Y-273292045D01*
X436370753Y-272888088D01*
X436101184Y-272628720D01*
X435629569Y-272165338D01*
X435221988Y-271750877D01*
X434894919Y-271403068D01*
X434664837Y-271139640D01*
X434548218Y-270978323D01*
X434537030Y-270945586D01*
X434588949Y-270821063D01*
X434732422Y-270569283D01*
X434951532Y-270215738D01*
X435230366Y-269785917D01*
X435553008Y-269305311D01*
X435644761Y-269171322D01*
X435979081Y-268684334D01*
X436279018Y-268245883D01*
X436527803Y-267880607D01*
X436708667Y-267613146D01*
X436804841Y-267468138D01*
X436814132Y-267453144D01*
X436800237Y-267337580D01*
X436726482Y-267083496D01*
X436605727Y-266724396D01*
X436450831Y-266293784D01*
X436274656Y-265825166D01*
X436090062Y-265352046D01*
X435909908Y-264907929D01*
X435747055Y-264526319D01*
X435614363Y-264240721D01*
X435524692Y-264084641D01*
X435518318Y-264077154D01*
X435463484Y-264032547D01*
X435370870Y-263988436D01*
X435220148Y-263940254D01*
X434990989Y-263883434D01*
X434663064Y-263813411D01*
X434216046Y-263725618D01*
X433629604Y-263615488D01*
X432883411Y-263478455D01*
X432721850Y-263448992D01*
X432243016Y-263356477D01*
X431825576Y-263265974D01*
X431506421Y-263186213D01*
X431322439Y-263125929D01*
X431297769Y-263111875D01*
X431257117Y-262987275D01*
X431224074Y-262708830D01*
X431198661Y-262308908D01*
X431180900Y-261819876D01*
X431170814Y-261274100D01*
X431168425Y-260703947D01*
X431173756Y-260141784D01*
X431186827Y-259619978D01*
X431207661Y-259170896D01*
X431236281Y-258826905D01*
X431272709Y-258620371D01*
X431294669Y-258578099D01*
X431416926Y-258535459D01*
X431695318Y-258466089D01*
X432102110Y-258376008D01*
X432609565Y-258271232D01*
X433189946Y-258157779D01*
X433506155Y-258098316D01*
X434106112Y-257986163D01*
X434641128Y-257884563D01*
X435085056Y-257798614D01*
X435411745Y-257733412D01*
X435595045Y-257694052D01*
X435625213Y-257685326D01*
X435676202Y-257586947D01*
X435783985Y-257349983D01*
X435934196Y-257008287D01*
X436112468Y-256595714D01*
X436304433Y-256146118D01*
X436495724Y-255693351D01*
X436671974Y-255271267D01*
X436818817Y-254913720D01*
X436921885Y-254654564D01*
X436966811Y-254527652D01*
X436967647Y-254522105D01*
X436916717Y-254421989D01*
X436773933Y-254191599D01*
X436554302Y-253853832D01*
X436272831Y-253431587D01*
X435944528Y-252947762D01*
X435753676Y-252669853D01*
X435405910Y-252160289D01*
X435097029Y-251697659D01*
X434842104Y-251305365D01*
X434656207Y-251006810D01*
X434554408Y-250825399D01*
X434539706Y-250784732D01*
X434602907Y-250690074D01*
X434777631Y-250487965D01*
X435041558Y-250201047D01*
X435372370Y-249851963D01*
X435747747Y-249463354D01*
X436145369Y-249057865D01*
X436542917Y-248658136D01*
X436918072Y-248286811D01*
X437248514Y-247966532D01*
X437511924Y-247719942D01*
X437685983Y-247569684D01*
X437744212Y-247533824D01*
X437839024Y-247584248D01*
X438065793Y-247725908D01*
X438402472Y-247944382D01*
X438827012Y-248225251D01*
X439317365Y-248554095D01*
X439687250Y-248804623D01*
X441556091Y-250075421D01*
X443113891Y-249433245D01*
X444671691Y-248791068D01*
X445093875Y-246551600D01*
X445516059Y-244312133D01*
X450177323Y-244312133D01*
X450599507Y-246551600D01*
G36*
X382699507Y-246651600D02*
X383121691Y-248891068D01*
X384679491Y-249533245D01*
X386237291Y-250175421D01*
X388106132Y-248904623D01*
X388629505Y-248550790D01*
X389102606Y-248234863D01*
X389503358Y-247971268D01*
X389809684Y-247774426D01*
X389999506Y-247658763D01*
X390051201Y-247633824D01*
X390144328Y-247697965D01*
X390343331Y-247875289D01*
X390625902Y-248143143D01*
X390969737Y-248478875D01*
X391352529Y-248859834D01*
X391751973Y-249263369D01*
X392145763Y-249666826D01*
X392511593Y-250047556D01*
X392827158Y-250382905D01*
X393070151Y-250650222D01*
X393218267Y-250826856D01*
X393253676Y-250885969D01*
X393202717Y-250994949D01*
X393059851Y-251233702D01*
X392840102Y-251578875D01*
X392558489Y-252007113D01*
X392230033Y-252495064D01*
X392039706Y-252773379D01*
X391692794Y-253281582D01*
X391384528Y-253740184D01*
X391129863Y-254126356D01*
X390943753Y-254417272D01*
X390841152Y-254590104D01*
X390825735Y-254626425D01*
X390860686Y-254729651D01*
X390955955Y-254970229D01*
X391097168Y-255314336D01*
X391269949Y-255728145D01*
X391459925Y-256177831D01*
X391652721Y-256629569D01*
X391833962Y-257049534D01*
X391989273Y-257403900D01*
X392104279Y-257658843D01*
X392164607Y-257780536D01*
X392168168Y-257785326D01*
X392262895Y-257808562D01*
X392515172Y-257860400D01*
X392898850Y-257935746D01*
X393387779Y-258029502D01*
X393955811Y-258136572D01*
X394287227Y-258198316D01*
X394894198Y-258313883D01*
X395442435Y-258423851D01*
X395904201Y-258522203D01*
X396251761Y-258602923D01*
X396457379Y-258659992D01*
X396498713Y-258678099D01*
X396539196Y-258800654D01*
X396571860Y-259077442D01*
X396596727Y-259476096D01*
X396613819Y-259964249D01*
X396623159Y-260509536D01*
X396624768Y-261079588D01*
X396618669Y-261642038D01*
X396604883Y-262164522D01*
X396583434Y-262614670D01*
X396554342Y-262960117D01*
X396517631Y-263168495D01*
X396495612Y-263211875D01*
X396363996Y-263263870D01*
X396085108Y-263338205D01*
X395695837Y-263426148D01*
X395233073Y-263518965D01*
X395071532Y-263548992D01*
X394292678Y-263691654D01*
X393677440Y-263806546D01*
X393205488Y-263898233D01*
X392856494Y-263971282D01*
X392610129Y-264030259D01*
X392446064Y-264079731D01*
X392343971Y-264124265D01*
X392283521Y-264168426D01*
X392275064Y-264177154D01*
X392190636Y-264317749D01*
X392061843Y-264591367D01*
X391901543Y-264964501D01*
X391722596Y-265403649D01*
X391537864Y-265875304D01*
X391360206Y-266345962D01*
X391202482Y-266782119D01*
X391077553Y-267150270D01*
X390998279Y-267416909D01*
X390977519Y-267548533D01*
X390979250Y-267553144D01*
X391049589Y-267660729D01*
X391209162Y-267897444D01*
X391441199Y-268238649D01*
X391728932Y-268659706D01*
X392055592Y-269135976D01*
X392148621Y-269271322D01*
X392480323Y-269762010D01*
X392772207Y-270209716D01*
X393008372Y-270588731D01*
X393172919Y-270873345D01*
X393249945Y-271037852D01*
X393253676Y-271058062D01*
X393188959Y-271164289D01*
X393010135Y-271374728D01*
X392740190Y-271666762D01*
X392402114Y-272017776D01*
X392018896Y-272405152D01*
X391613522Y-272806273D01*
X391208983Y-273198522D01*
X390828265Y-273559284D01*
X390494358Y-273865941D01*
X390230250Y-274095876D01*
X390058929Y-274226472D01*
X390011535Y-274247794D01*
X389901218Y-274197573D01*
X389675355Y-274062122D01*
X389370737Y-273864259D01*
X389136365Y-273705002D01*
X388711694Y-273412776D01*
X388208780Y-273068691D01*
X387704331Y-272725157D01*
X387433124Y-272541298D01*
X386515145Y-271920388D01*
X385744566Y-272337032D01*
X385393510Y-272519556D01*
X385094989Y-272661427D01*
X384893004Y-272742344D01*
X384841589Y-272753603D01*
X384779764Y-272670473D01*
X384657794Y-272435560D01*
X384484783Y-272070532D01*
X384269837Y-271597060D01*
X384022061Y-271036811D01*
X383750559Y-270411453D01*
X383464437Y-269742657D01*
X383172800Y-269052089D01*
X382884753Y-268361420D01*
X382609400Y-267692318D01*
X382355848Y-267066451D01*
X382133200Y-266505488D01*
X381950562Y-266031099D01*
X381817040Y-265664950D01*
X381741737Y-265428712D01*
X381729627Y-265347578D01*
X381825612Y-265244089D01*
X382035771Y-265076095D01*
X382316168Y-264878501D01*
X382339702Y-264862868D01*
X383064419Y-264282757D01*
X383648779Y-263605965D01*
X384087718Y-262854133D01*
X384376171Y-262048902D01*
X384509076Y-261211912D01*
X384481366Y-260364804D01*
X384287979Y-259529219D01*
X383923849Y-258726798D01*
X383816719Y-258551238D01*
X383259506Y-257842318D01*
X382601226Y-257273044D01*
X381864663Y-256846378D01*
X381072601Y-256565279D01*
X380247824Y-256432709D01*
X379413114Y-256451627D01*
X378591256Y-256624995D01*
X377805034Y-256955772D01*
X377077231Y-257446919D01*
X376852100Y-257646265D01*
X376279132Y-258270271D01*
X375861615Y-258927171D01*
X375575213Y-259663497D01*
X375415702Y-260392689D01*
X375376325Y-261212531D01*
X375507628Y-262036443D01*
X375796275Y-262836576D01*
X376228927Y-263585080D01*
X376792247Y-264254109D01*
X377472899Y-264815812D01*
X377562354Y-264875021D01*
X377845756Y-265068920D01*
X378061194Y-265236921D01*
X378164191Y-265344187D01*
X378165689Y-265347578D01*
X378143577Y-265463615D01*
X378055921Y-265726966D01*
X377911831Y-266115970D01*
X377720416Y-266608961D01*
X377490784Y-267184276D01*
X377232043Y-267820252D01*
X376953302Y-268495225D01*
X376663671Y-269187530D01*
X376372256Y-269875504D01*
X376088168Y-270537483D01*
X375820515Y-271151804D01*
X375578406Y-271696802D01*
X375370948Y-272150815D01*
X375207251Y-272492177D01*
X375096423Y-272699225D01*
X375051793Y-272753603D01*
X374915415Y-272711259D01*
X374660238Y-272597692D01*
X374330263Y-272433200D01*
X374148816Y-272337032D01*
X373378237Y-271920388D01*
X372460258Y-272541298D01*
X371991650Y-272859386D01*
X371478606Y-273209433D01*
X370997833Y-273539031D01*
X370757017Y-273705002D01*
X370418318Y-273932441D01*
X370131518Y-274112677D01*
X369934029Y-274222885D01*
X369869884Y-274246183D01*
X369776521Y-274183335D01*
X369569894Y-274007885D01*
X369270036Y-273738050D01*
X368896978Y-273392045D01*
X368470753Y-272988088D01*
X368201184Y-272728720D01*
X367729569Y-272265338D01*
X367321988Y-271850877D01*
X366994919Y-271503068D01*
X366764837Y-271239640D01*
X366648218Y-271078323D01*
X366637030Y-271045586D01*
X366688949Y-270921063D01*
X366832422Y-270669283D01*
X367051532Y-270315738D01*
X367330366Y-269885917D01*
X367653008Y-269405311D01*
X367744761Y-269271322D01*
X368079081Y-268784334D01*
X368379018Y-268345883D01*
X368627803Y-267980607D01*
X368808667Y-267713146D01*
X368904841Y-267568138D01*
X368914132Y-267553144D01*
X368900237Y-267437580D01*
X368826482Y-267183496D01*
X368705727Y-266824396D01*
X368550831Y-266393784D01*
X368374656Y-265925166D01*
X368190062Y-265452046D01*
X368009908Y-265007929D01*
X367847055Y-264626319D01*
X367714363Y-264340721D01*
X367624692Y-264184641D01*
X367618318Y-264177154D01*
X367563484Y-264132547D01*
X367470870Y-264088436D01*
X367320148Y-264040254D01*
X367090989Y-263983434D01*
X366763064Y-263913411D01*
X366316046Y-263825618D01*
X365729604Y-263715488D01*
X364983411Y-263578455D01*
X364821850Y-263548992D01*
X364343016Y-263456477D01*
X363925576Y-263365974D01*
X363606421Y-263286213D01*
X363422439Y-263225929D01*
X363397769Y-263211875D01*
X363357117Y-263087275D01*
X363324074Y-262808830D01*
X363298661Y-262408908D01*
X363280900Y-261919876D01*
X363270814Y-261374100D01*
X363268425Y-260803947D01*
X363273756Y-260241784D01*
X363286827Y-259719978D01*
X363307661Y-259270896D01*
X363336281Y-258926905D01*
X363372709Y-258720371D01*
X363394669Y-258678099D01*
X363516926Y-258635459D01*
X363795318Y-258566089D01*
X364202110Y-258476008D01*
X364709565Y-258371232D01*
X365289946Y-258257779D01*
X365606155Y-258198316D01*
X366206112Y-258086163D01*
X366741128Y-257984563D01*
X367185056Y-257898614D01*
X367511745Y-257833412D01*
X367695045Y-257794052D01*
X367725213Y-257785326D01*
X367776202Y-257686947D01*
X367883985Y-257449983D01*
X368034196Y-257108287D01*
X368212468Y-256695714D01*
X368404433Y-256246118D01*
X368595724Y-255793351D01*
X368771974Y-255371267D01*
X368918817Y-255013720D01*
X369021885Y-254754564D01*
X369066811Y-254627652D01*
X369067647Y-254622105D01*
X369016717Y-254521989D01*
X368873933Y-254291599D01*
X368654302Y-253953832D01*
X368372831Y-253531587D01*
X368044528Y-253047762D01*
X367853676Y-252769853D01*
X367505910Y-252260289D01*
X367197029Y-251797659D01*
X366942104Y-251405365D01*
X366756207Y-251106810D01*
X366654408Y-250925399D01*
X366639706Y-250884732D01*
X366702907Y-250790074D01*
X366877631Y-250587965D01*
X367141558Y-250301047D01*
X367472370Y-249951963D01*
X367847747Y-249563354D01*
X368245369Y-249157865D01*
X368642917Y-248758136D01*
X369018072Y-248386811D01*
X369348514Y-248066532D01*
X369611924Y-247819942D01*
X369785983Y-247669684D01*
X369844212Y-247633824D01*
X369939024Y-247684248D01*
X370165793Y-247825908D01*
X370502472Y-248044382D01*
X370927012Y-248325251D01*
X371417365Y-248654095D01*
X371787250Y-248904623D01*
X373656091Y-250175421D01*
X375213891Y-249533245D01*
X376771691Y-248891068D01*
X377193875Y-246651600D01*
X377616059Y-244412133D01*
X382277323Y-244412133D01*
X382699507Y-246651600D01*
X382699507Y-246651600D01*
G37*
X382699507Y-246651600D02*
X383121691Y-248891068D01*
X384679491Y-249533245D01*
X386237291Y-250175421D01*
X388106132Y-248904623D01*
X388629505Y-248550790D01*
X389102606Y-248234863D01*
X389503358Y-247971268D01*
X389809684Y-247774426D01*
X389999506Y-247658763D01*
X390051201Y-247633824D01*
X390144328Y-247697965D01*
X390343331Y-247875289D01*
X390625902Y-248143143D01*
X390969737Y-248478875D01*
X391352529Y-248859834D01*
X391751973Y-249263369D01*
X392145763Y-249666826D01*
X392511593Y-250047556D01*
X392827158Y-250382905D01*
X393070151Y-250650222D01*
X393218267Y-250826856D01*
X393253676Y-250885969D01*
X393202717Y-250994949D01*
X393059851Y-251233702D01*
X392840102Y-251578875D01*
X392558489Y-252007113D01*
X392230033Y-252495064D01*
X392039706Y-252773379D01*
X391692794Y-253281582D01*
X391384528Y-253740184D01*
X391129863Y-254126356D01*
X390943753Y-254417272D01*
X390841152Y-254590104D01*
X390825735Y-254626425D01*
X390860686Y-254729651D01*
X390955955Y-254970229D01*
X391097168Y-255314336D01*
X391269949Y-255728145D01*
X391459925Y-256177831D01*
X391652721Y-256629569D01*
X391833962Y-257049534D01*
X391989273Y-257403900D01*
X392104279Y-257658843D01*
X392164607Y-257780536D01*
X392168168Y-257785326D01*
X392262895Y-257808562D01*
X392515172Y-257860400D01*
X392898850Y-257935746D01*
X393387779Y-258029502D01*
X393955811Y-258136572D01*
X394287227Y-258198316D01*
X394894198Y-258313883D01*
X395442435Y-258423851D01*
X395904201Y-258522203D01*
X396251761Y-258602923D01*
X396457379Y-258659992D01*
X396498713Y-258678099D01*
X396539196Y-258800654D01*
X396571860Y-259077442D01*
X396596727Y-259476096D01*
X396613819Y-259964249D01*
X396623159Y-260509536D01*
X396624768Y-261079588D01*
X396618669Y-261642038D01*
X396604883Y-262164522D01*
X396583434Y-262614670D01*
X396554342Y-262960117D01*
X396517631Y-263168495D01*
X396495612Y-263211875D01*
X396363996Y-263263870D01*
X396085108Y-263338205D01*
X395695837Y-263426148D01*
X395233073Y-263518965D01*
X395071532Y-263548992D01*
X394292678Y-263691654D01*
X393677440Y-263806546D01*
X393205488Y-263898233D01*
X392856494Y-263971282D01*
X392610129Y-264030259D01*
X392446064Y-264079731D01*
X392343971Y-264124265D01*
X392283521Y-264168426D01*
X392275064Y-264177154D01*
X392190636Y-264317749D01*
X392061843Y-264591367D01*
X391901543Y-264964501D01*
X391722596Y-265403649D01*
X391537864Y-265875304D01*
X391360206Y-266345962D01*
X391202482Y-266782119D01*
X391077553Y-267150270D01*
X390998279Y-267416909D01*
X390977519Y-267548533D01*
X390979250Y-267553144D01*
X391049589Y-267660729D01*
X391209162Y-267897444D01*
X391441199Y-268238649D01*
X391728932Y-268659706D01*
X392055592Y-269135976D01*
X392148621Y-269271322D01*
X392480323Y-269762010D01*
X392772207Y-270209716D01*
X393008372Y-270588731D01*
X393172919Y-270873345D01*
X393249945Y-271037852D01*
X393253676Y-271058062D01*
X393188959Y-271164289D01*
X393010135Y-271374728D01*
X392740190Y-271666762D01*
X392402114Y-272017776D01*
X392018896Y-272405152D01*
X391613522Y-272806273D01*
X391208983Y-273198522D01*
X390828265Y-273559284D01*
X390494358Y-273865941D01*
X390230250Y-274095876D01*
X390058929Y-274226472D01*
X390011535Y-274247794D01*
X389901218Y-274197573D01*
X389675355Y-274062122D01*
X389370737Y-273864259D01*
X389136365Y-273705002D01*
X388711694Y-273412776D01*
X388208780Y-273068691D01*
X387704331Y-272725157D01*
X387433124Y-272541298D01*
X386515145Y-271920388D01*
X385744566Y-272337032D01*
X385393510Y-272519556D01*
X385094989Y-272661427D01*
X384893004Y-272742344D01*
X384841589Y-272753603D01*
X384779764Y-272670473D01*
X384657794Y-272435560D01*
X384484783Y-272070532D01*
X384269837Y-271597060D01*
X384022061Y-271036811D01*
X383750559Y-270411453D01*
X383464437Y-269742657D01*
X383172800Y-269052089D01*
X382884753Y-268361420D01*
X382609400Y-267692318D01*
X382355848Y-267066451D01*
X382133200Y-266505488D01*
X381950562Y-266031099D01*
X381817040Y-265664950D01*
X381741737Y-265428712D01*
X381729627Y-265347578D01*
X381825612Y-265244089D01*
X382035771Y-265076095D01*
X382316168Y-264878501D01*
X382339702Y-264862868D01*
X383064419Y-264282757D01*
X383648779Y-263605965D01*
X384087718Y-262854133D01*
X384376171Y-262048902D01*
X384509076Y-261211912D01*
X384481366Y-260364804D01*
X384287979Y-259529219D01*
X383923849Y-258726798D01*
X383816719Y-258551238D01*
X383259506Y-257842318D01*
X382601226Y-257273044D01*
X381864663Y-256846378D01*
X381072601Y-256565279D01*
X380247824Y-256432709D01*
X379413114Y-256451627D01*
X378591256Y-256624995D01*
X377805034Y-256955772D01*
X377077231Y-257446919D01*
X376852100Y-257646265D01*
X376279132Y-258270271D01*
X375861615Y-258927171D01*
X375575213Y-259663497D01*
X375415702Y-260392689D01*
X375376325Y-261212531D01*
X375507628Y-262036443D01*
X375796275Y-262836576D01*
X376228927Y-263585080D01*
X376792247Y-264254109D01*
X377472899Y-264815812D01*
X377562354Y-264875021D01*
X377845756Y-265068920D01*
X378061194Y-265236921D01*
X378164191Y-265344187D01*
X378165689Y-265347578D01*
X378143577Y-265463615D01*
X378055921Y-265726966D01*
X377911831Y-266115970D01*
X377720416Y-266608961D01*
X377490784Y-267184276D01*
X377232043Y-267820252D01*
X376953302Y-268495225D01*
X376663671Y-269187530D01*
X376372256Y-269875504D01*
X376088168Y-270537483D01*
X375820515Y-271151804D01*
X375578406Y-271696802D01*
X375370948Y-272150815D01*
X375207251Y-272492177D01*
X375096423Y-272699225D01*
X375051793Y-272753603D01*
X374915415Y-272711259D01*
X374660238Y-272597692D01*
X374330263Y-272433200D01*
X374148816Y-272337032D01*
X373378237Y-271920388D01*
X372460258Y-272541298D01*
X371991650Y-272859386D01*
X371478606Y-273209433D01*
X370997833Y-273539031D01*
X370757017Y-273705002D01*
X370418318Y-273932441D01*
X370131518Y-274112677D01*
X369934029Y-274222885D01*
X369869884Y-274246183D01*
X369776521Y-274183335D01*
X369569894Y-274007885D01*
X369270036Y-273738050D01*
X368896978Y-273392045D01*
X368470753Y-272988088D01*
X368201184Y-272728720D01*
X367729569Y-272265338D01*
X367321988Y-271850877D01*
X366994919Y-271503068D01*
X366764837Y-271239640D01*
X366648218Y-271078323D01*
X366637030Y-271045586D01*
X366688949Y-270921063D01*
X366832422Y-270669283D01*
X367051532Y-270315738D01*
X367330366Y-269885917D01*
X367653008Y-269405311D01*
X367744761Y-269271322D01*
X368079081Y-268784334D01*
X368379018Y-268345883D01*
X368627803Y-267980607D01*
X368808667Y-267713146D01*
X368904841Y-267568138D01*
X368914132Y-267553144D01*
X368900237Y-267437580D01*
X368826482Y-267183496D01*
X368705727Y-266824396D01*
X368550831Y-266393784D01*
X368374656Y-265925166D01*
X368190062Y-265452046D01*
X368009908Y-265007929D01*
X367847055Y-264626319D01*
X367714363Y-264340721D01*
X367624692Y-264184641D01*
X367618318Y-264177154D01*
X367563484Y-264132547D01*
X367470870Y-264088436D01*
X367320148Y-264040254D01*
X367090989Y-263983434D01*
X366763064Y-263913411D01*
X366316046Y-263825618D01*
X365729604Y-263715488D01*
X364983411Y-263578455D01*
X364821850Y-263548992D01*
X364343016Y-263456477D01*
X363925576Y-263365974D01*
X363606421Y-263286213D01*
X363422439Y-263225929D01*
X363397769Y-263211875D01*
X363357117Y-263087275D01*
X363324074Y-262808830D01*
X363298661Y-262408908D01*
X363280900Y-261919876D01*
X363270814Y-261374100D01*
X363268425Y-260803947D01*
X363273756Y-260241784D01*
X363286827Y-259719978D01*
X363307661Y-259270896D01*
X363336281Y-258926905D01*
X363372709Y-258720371D01*
X363394669Y-258678099D01*
X363516926Y-258635459D01*
X363795318Y-258566089D01*
X364202110Y-258476008D01*
X364709565Y-258371232D01*
X365289946Y-258257779D01*
X365606155Y-258198316D01*
X366206112Y-258086163D01*
X366741128Y-257984563D01*
X367185056Y-257898614D01*
X367511745Y-257833412D01*
X367695045Y-257794052D01*
X367725213Y-257785326D01*
X367776202Y-257686947D01*
X367883985Y-257449983D01*
X368034196Y-257108287D01*
X368212468Y-256695714D01*
X368404433Y-256246118D01*
X368595724Y-255793351D01*
X368771974Y-255371267D01*
X368918817Y-255013720D01*
X369021885Y-254754564D01*
X369066811Y-254627652D01*
X369067647Y-254622105D01*
X369016717Y-254521989D01*
X368873933Y-254291599D01*
X368654302Y-253953832D01*
X368372831Y-253531587D01*
X368044528Y-253047762D01*
X367853676Y-252769853D01*
X367505910Y-252260289D01*
X367197029Y-251797659D01*
X366942104Y-251405365D01*
X366756207Y-251106810D01*
X366654408Y-250925399D01*
X366639706Y-250884732D01*
X366702907Y-250790074D01*
X366877631Y-250587965D01*
X367141558Y-250301047D01*
X367472370Y-249951963D01*
X367847747Y-249563354D01*
X368245369Y-249157865D01*
X368642917Y-248758136D01*
X369018072Y-248386811D01*
X369348514Y-248066532D01*
X369611924Y-247819942D01*
X369785983Y-247669684D01*
X369844212Y-247633824D01*
X369939024Y-247684248D01*
X370165793Y-247825908D01*
X370502472Y-248044382D01*
X370927012Y-248325251D01*
X371417365Y-248654095D01*
X371787250Y-248904623D01*
X373656091Y-250175421D01*
X375213891Y-249533245D01*
X376771691Y-248891068D01*
X377193875Y-246651600D01*
X377616059Y-244412133D01*
X382277323Y-244412133D01*
X382699507Y-246651600D01*
G36*
X314599507Y-246651600D02*
X315021691Y-248891068D01*
X316579491Y-249533245D01*
X318137291Y-250175421D01*
X320006132Y-248904623D01*
X320529505Y-248550790D01*
X321002606Y-248234863D01*
X321403358Y-247971268D01*
X321709684Y-247774426D01*
X321899506Y-247658763D01*
X321951201Y-247633824D01*
X322044328Y-247697965D01*
X322243331Y-247875289D01*
X322525902Y-248143143D01*
X322869737Y-248478875D01*
X323252529Y-248859834D01*
X323651973Y-249263369D01*
X324045763Y-249666826D01*
X324411593Y-250047556D01*
X324727158Y-250382905D01*
X324970151Y-250650222D01*
X325118267Y-250826856D01*
X325153676Y-250885969D01*
X325102717Y-250994949D01*
X324959851Y-251233702D01*
X324740102Y-251578875D01*
X324458489Y-252007113D01*
X324130033Y-252495064D01*
X323939706Y-252773379D01*
X323592794Y-253281582D01*
X323284528Y-253740184D01*
X323029863Y-254126356D01*
X322843753Y-254417272D01*
X322741152Y-254590104D01*
X322725735Y-254626425D01*
X322760686Y-254729651D01*
X322855955Y-254970229D01*
X322997168Y-255314336D01*
X323169949Y-255728145D01*
X323359925Y-256177831D01*
X323552721Y-256629569D01*
X323733962Y-257049534D01*
X323889273Y-257403900D01*
X324004279Y-257658843D01*
X324064607Y-257780536D01*
X324068168Y-257785326D01*
X324162895Y-257808562D01*
X324415172Y-257860400D01*
X324798850Y-257935746D01*
X325287779Y-258029502D01*
X325855811Y-258136572D01*
X326187227Y-258198316D01*
X326794198Y-258313883D01*
X327342435Y-258423851D01*
X327804201Y-258522203D01*
X328151761Y-258602923D01*
X328357379Y-258659992D01*
X328398713Y-258678099D01*
X328439196Y-258800654D01*
X328471860Y-259077442D01*
X328496727Y-259476096D01*
X328513819Y-259964249D01*
X328523159Y-260509536D01*
X328524768Y-261079588D01*
X328518669Y-261642038D01*
X328504883Y-262164522D01*
X328483434Y-262614670D01*
X328454342Y-262960117D01*
X328417631Y-263168495D01*
X328395612Y-263211875D01*
X328263996Y-263263870D01*
X327985108Y-263338205D01*
X327595837Y-263426148D01*
X327133073Y-263518965D01*
X326971532Y-263548992D01*
X326192678Y-263691654D01*
X325577440Y-263806546D01*
X325105488Y-263898233D01*
X324756494Y-263971282D01*
X324510129Y-264030259D01*
X324346064Y-264079731D01*
X324243971Y-264124265D01*
X324183521Y-264168426D01*
X324175064Y-264177154D01*
X324090636Y-264317749D01*
X323961843Y-264591367D01*
X323801543Y-264964501D01*
X323622596Y-265403649D01*
X323437864Y-265875304D01*
X323260206Y-266345962D01*
X323102482Y-266782119D01*
X322977553Y-267150270D01*
X322898279Y-267416909D01*
X322877519Y-267548533D01*
X322879250Y-267553144D01*
X322949589Y-267660729D01*
X323109162Y-267897444D01*
X323341199Y-268238649D01*
X323628932Y-268659706D01*
X323955592Y-269135976D01*
X324048621Y-269271322D01*
X324380323Y-269762010D01*
X324672207Y-270209716D01*
X324908372Y-270588731D01*
X325072919Y-270873345D01*
X325149945Y-271037852D01*
X325153676Y-271058062D01*
X325088959Y-271164289D01*
X324910135Y-271374728D01*
X324640190Y-271666762D01*
X324302114Y-272017776D01*
X323918896Y-272405152D01*
X323513522Y-272806273D01*
X323108983Y-273198522D01*
X322728265Y-273559284D01*
X322394358Y-273865941D01*
X322130250Y-274095876D01*
X321958929Y-274226472D01*
X321911535Y-274247794D01*
X321801218Y-274197573D01*
X321575355Y-274062122D01*
X321270737Y-273864259D01*
X321036365Y-273705002D01*
X320611694Y-273412776D01*
X320108780Y-273068691D01*
X319604331Y-272725157D01*
X319333124Y-272541298D01*
X318415145Y-271920388D01*
X317644566Y-272337032D01*
X317293510Y-272519556D01*
X316994989Y-272661427D01*
X316793004Y-272742344D01*
X316741589Y-272753603D01*
X316679764Y-272670473D01*
X316557794Y-272435560D01*
X316384783Y-272070532D01*
X316169837Y-271597060D01*
X315922061Y-271036811D01*
X315650559Y-270411453D01*
X315364437Y-269742657D01*
X315072800Y-269052089D01*
X314784753Y-268361420D01*
X314509400Y-267692318D01*
X314255848Y-267066451D01*
X314033200Y-266505488D01*
X313850562Y-266031099D01*
X313717040Y-265664950D01*
X313641737Y-265428712D01*
X313629627Y-265347578D01*
X313725612Y-265244089D01*
X313935771Y-265076095D01*
X314216168Y-264878501D01*
X314239702Y-264862868D01*
X314964419Y-264282757D01*
X315548779Y-263605965D01*
X315987718Y-262854133D01*
X316276171Y-262048902D01*
X316409076Y-261211912D01*
X316381366Y-260364804D01*
X316187979Y-259529219D01*
X315823849Y-258726798D01*
X315716719Y-258551238D01*
X315159506Y-257842318D01*
X314501226Y-257273044D01*
X313764663Y-256846378D01*
X312972601Y-256565279D01*
X312147824Y-256432709D01*
X311313114Y-256451627D01*
X310491256Y-256624995D01*
X309705034Y-256955772D01*
X308977231Y-257446919D01*
X308752100Y-257646265D01*
X308179132Y-258270271D01*
X307761615Y-258927171D01*
X307475213Y-259663497D01*
X307315702Y-260392689D01*
X307276325Y-261212531D01*
X307407628Y-262036443D01*
X307696275Y-262836576D01*
X308128927Y-263585080D01*
X308692247Y-264254109D01*
X309372899Y-264815812D01*
X309462354Y-264875021D01*
X309745756Y-265068920D01*
X309961194Y-265236921D01*
X310064191Y-265344187D01*
X310065689Y-265347578D01*
X310043577Y-265463615D01*
X309955921Y-265726966D01*
X309811831Y-266115970D01*
X309620416Y-266608961D01*
X309390784Y-267184276D01*
X309132043Y-267820252D01*
X308853302Y-268495225D01*
X308563671Y-269187530D01*
X308272256Y-269875504D01*
X307988168Y-270537483D01*
X307720515Y-271151804D01*
X307478406Y-271696802D01*
X307270948Y-272150815D01*
X307107251Y-272492177D01*
X306996423Y-272699225D01*
X306951793Y-272753603D01*
X306815415Y-272711259D01*
X306560238Y-272597692D01*
X306230263Y-272433200D01*
X306048816Y-272337032D01*
X305278237Y-271920388D01*
X304360258Y-272541298D01*
X303891650Y-272859386D01*
X303378606Y-273209433D01*
X302897833Y-273539031D01*
X302657017Y-273705002D01*
X302318318Y-273932441D01*
X302031518Y-274112677D01*
X301834029Y-274222885D01*
X301769884Y-274246183D01*
X301676521Y-274183335D01*
X301469894Y-274007885D01*
X301170036Y-273738050D01*
X300796978Y-273392045D01*
X300370753Y-272988088D01*
X300101184Y-272728720D01*
X299629569Y-272265338D01*
X299221988Y-271850877D01*
X298894919Y-271503068D01*
X298664837Y-271239640D01*
X298548218Y-271078323D01*
X298537030Y-271045586D01*
X298588949Y-270921063D01*
X298732422Y-270669283D01*
X298951532Y-270315738D01*
X299230366Y-269885917D01*
X299553008Y-269405311D01*
X299644761Y-269271322D01*
X299979081Y-268784334D01*
X300279018Y-268345883D01*
X300527803Y-267980607D01*
X300708667Y-267713146D01*
X300804841Y-267568138D01*
X300814132Y-267553144D01*
X300800237Y-267437580D01*
X300726482Y-267183496D01*
X300605727Y-266824396D01*
X300450831Y-266393784D01*
X300274656Y-265925166D01*
X300090062Y-265452046D01*
X299909908Y-265007929D01*
X299747055Y-264626319D01*
X299614363Y-264340721D01*
X299524692Y-264184641D01*
X299518318Y-264177154D01*
X299463484Y-264132547D01*
X299370870Y-264088436D01*
X299220148Y-264040254D01*
X298990989Y-263983434D01*
X298663064Y-263913411D01*
X298216046Y-263825618D01*
X297629604Y-263715488D01*
X296883411Y-263578455D01*
X296721850Y-263548992D01*
X296243016Y-263456477D01*
X295825576Y-263365974D01*
X295506421Y-263286213D01*
X295322439Y-263225929D01*
X295297769Y-263211875D01*
X295257117Y-263087275D01*
X295224074Y-262808830D01*
X295198661Y-262408908D01*
X295180900Y-261919876D01*
X295170814Y-261374100D01*
X295168425Y-260803947D01*
X295173756Y-260241784D01*
X295186827Y-259719978D01*
X295207661Y-259270896D01*
X295236281Y-258926905D01*
X295272709Y-258720371D01*
X295294669Y-258678099D01*
X295416926Y-258635459D01*
X295695318Y-258566089D01*
X296102110Y-258476008D01*
X296609565Y-258371232D01*
X297189946Y-258257779D01*
X297506155Y-258198316D01*
X298106112Y-258086163D01*
X298641128Y-257984563D01*
X299085056Y-257898614D01*
X299411745Y-257833412D01*
X299595045Y-257794052D01*
X299625213Y-257785326D01*
X299676202Y-257686947D01*
X299783985Y-257449983D01*
X299934196Y-257108287D01*
X300112468Y-256695714D01*
X300304433Y-256246118D01*
X300495724Y-255793351D01*
X300671974Y-255371267D01*
X300818817Y-255013720D01*
X300921885Y-254754564D01*
X300966811Y-254627652D01*
X300967647Y-254622105D01*
X300916717Y-254521989D01*
X300773933Y-254291599D01*
X300554302Y-253953832D01*
X300272831Y-253531587D01*
X299944528Y-253047762D01*
X299753676Y-252769853D01*
X299405910Y-252260289D01*
X299097029Y-251797659D01*
X298842104Y-251405365D01*
X298656207Y-251106810D01*
X298554408Y-250925399D01*
X298539706Y-250884732D01*
X298602907Y-250790074D01*
X298777631Y-250587965D01*
X299041558Y-250301047D01*
X299372370Y-249951963D01*
X299747747Y-249563354D01*
X300145369Y-249157865D01*
X300542917Y-248758136D01*
X300918072Y-248386811D01*
X301248514Y-248066532D01*
X301511924Y-247819942D01*
X301685983Y-247669684D01*
X301744212Y-247633824D01*
X301839024Y-247684248D01*
X302065793Y-247825908D01*
X302402472Y-248044382D01*
X302827012Y-248325251D01*
X303317365Y-248654095D01*
X303687250Y-248904623D01*
X305556091Y-250175421D01*
X307113891Y-249533245D01*
X308671691Y-248891068D01*
X309093875Y-246651600D01*
X309516059Y-244412133D01*
X314177323Y-244412133D01*
X314599507Y-246651600D01*
X314599507Y-246651600D01*
G37*
X314599507Y-246651600D02*
X315021691Y-248891068D01*
X316579491Y-249533245D01*
X318137291Y-250175421D01*
X320006132Y-248904623D01*
X320529505Y-248550790D01*
X321002606Y-248234863D01*
X321403358Y-247971268D01*
X321709684Y-247774426D01*
X321899506Y-247658763D01*
X321951201Y-247633824D01*
X322044328Y-247697965D01*
X322243331Y-247875289D01*
X322525902Y-248143143D01*
X322869737Y-248478875D01*
X323252529Y-248859834D01*
X323651973Y-249263369D01*
X324045763Y-249666826D01*
X324411593Y-250047556D01*
X324727158Y-250382905D01*
X324970151Y-250650222D01*
X325118267Y-250826856D01*
X325153676Y-250885969D01*
X325102717Y-250994949D01*
X324959851Y-251233702D01*
X324740102Y-251578875D01*
X324458489Y-252007113D01*
X324130033Y-252495064D01*
X323939706Y-252773379D01*
X323592794Y-253281582D01*
X323284528Y-253740184D01*
X323029863Y-254126356D01*
X322843753Y-254417272D01*
X322741152Y-254590104D01*
X322725735Y-254626425D01*
X322760686Y-254729651D01*
X322855955Y-254970229D01*
X322997168Y-255314336D01*
X323169949Y-255728145D01*
X323359925Y-256177831D01*
X323552721Y-256629569D01*
X323733962Y-257049534D01*
X323889273Y-257403900D01*
X324004279Y-257658843D01*
X324064607Y-257780536D01*
X324068168Y-257785326D01*
X324162895Y-257808562D01*
X324415172Y-257860400D01*
X324798850Y-257935746D01*
X325287779Y-258029502D01*
X325855811Y-258136572D01*
X326187227Y-258198316D01*
X326794198Y-258313883D01*
X327342435Y-258423851D01*
X327804201Y-258522203D01*
X328151761Y-258602923D01*
X328357379Y-258659992D01*
X328398713Y-258678099D01*
X328439196Y-258800654D01*
X328471860Y-259077442D01*
X328496727Y-259476096D01*
X328513819Y-259964249D01*
X328523159Y-260509536D01*
X328524768Y-261079588D01*
X328518669Y-261642038D01*
X328504883Y-262164522D01*
X328483434Y-262614670D01*
X328454342Y-262960117D01*
X328417631Y-263168495D01*
X328395612Y-263211875D01*
X328263996Y-263263870D01*
X327985108Y-263338205D01*
X327595837Y-263426148D01*
X327133073Y-263518965D01*
X326971532Y-263548992D01*
X326192678Y-263691654D01*
X325577440Y-263806546D01*
X325105488Y-263898233D01*
X324756494Y-263971282D01*
X324510129Y-264030259D01*
X324346064Y-264079731D01*
X324243971Y-264124265D01*
X324183521Y-264168426D01*
X324175064Y-264177154D01*
X324090636Y-264317749D01*
X323961843Y-264591367D01*
X323801543Y-264964501D01*
X323622596Y-265403649D01*
X323437864Y-265875304D01*
X323260206Y-266345962D01*
X323102482Y-266782119D01*
X322977553Y-267150270D01*
X322898279Y-267416909D01*
X322877519Y-267548533D01*
X322879250Y-267553144D01*
X322949589Y-267660729D01*
X323109162Y-267897444D01*
X323341199Y-268238649D01*
X323628932Y-268659706D01*
X323955592Y-269135976D01*
X324048621Y-269271322D01*
X324380323Y-269762010D01*
X324672207Y-270209716D01*
X324908372Y-270588731D01*
X325072919Y-270873345D01*
X325149945Y-271037852D01*
X325153676Y-271058062D01*
X325088959Y-271164289D01*
X324910135Y-271374728D01*
X324640190Y-271666762D01*
X324302114Y-272017776D01*
X323918896Y-272405152D01*
X323513522Y-272806273D01*
X323108983Y-273198522D01*
X322728265Y-273559284D01*
X322394358Y-273865941D01*
X322130250Y-274095876D01*
X321958929Y-274226472D01*
X321911535Y-274247794D01*
X321801218Y-274197573D01*
X321575355Y-274062122D01*
X321270737Y-273864259D01*
X321036365Y-273705002D01*
X320611694Y-273412776D01*
X320108780Y-273068691D01*
X319604331Y-272725157D01*
X319333124Y-272541298D01*
X318415145Y-271920388D01*
X317644566Y-272337032D01*
X317293510Y-272519556D01*
X316994989Y-272661427D01*
X316793004Y-272742344D01*
X316741589Y-272753603D01*
X316679764Y-272670473D01*
X316557794Y-272435560D01*
X316384783Y-272070532D01*
X316169837Y-271597060D01*
X315922061Y-271036811D01*
X315650559Y-270411453D01*
X315364437Y-269742657D01*
X315072800Y-269052089D01*
X314784753Y-268361420D01*
X314509400Y-267692318D01*
X314255848Y-267066451D01*
X314033200Y-266505488D01*
X313850562Y-266031099D01*
X313717040Y-265664950D01*
X313641737Y-265428712D01*
X313629627Y-265347578D01*
X313725612Y-265244089D01*
X313935771Y-265076095D01*
X314216168Y-264878501D01*
X314239702Y-264862868D01*
X314964419Y-264282757D01*
X315548779Y-263605965D01*
X315987718Y-262854133D01*
X316276171Y-262048902D01*
X316409076Y-261211912D01*
X316381366Y-260364804D01*
X316187979Y-259529219D01*
X315823849Y-258726798D01*
X315716719Y-258551238D01*
X315159506Y-257842318D01*
X314501226Y-257273044D01*
X313764663Y-256846378D01*
X312972601Y-256565279D01*
X312147824Y-256432709D01*
X311313114Y-256451627D01*
X310491256Y-256624995D01*
X309705034Y-256955772D01*
X308977231Y-257446919D01*
X308752100Y-257646265D01*
X308179132Y-258270271D01*
X307761615Y-258927171D01*
X307475213Y-259663497D01*
X307315702Y-260392689D01*
X307276325Y-261212531D01*
X307407628Y-262036443D01*
X307696275Y-262836576D01*
X308128927Y-263585080D01*
X308692247Y-264254109D01*
X309372899Y-264815812D01*
X309462354Y-264875021D01*
X309745756Y-265068920D01*
X309961194Y-265236921D01*
X310064191Y-265344187D01*
X310065689Y-265347578D01*
X310043577Y-265463615D01*
X309955921Y-265726966D01*
X309811831Y-266115970D01*
X309620416Y-266608961D01*
X309390784Y-267184276D01*
X309132043Y-267820252D01*
X308853302Y-268495225D01*
X308563671Y-269187530D01*
X308272256Y-269875504D01*
X307988168Y-270537483D01*
X307720515Y-271151804D01*
X307478406Y-271696802D01*
X307270948Y-272150815D01*
X307107251Y-272492177D01*
X306996423Y-272699225D01*
X306951793Y-272753603D01*
X306815415Y-272711259D01*
X306560238Y-272597692D01*
X306230263Y-272433200D01*
X306048816Y-272337032D01*
X305278237Y-271920388D01*
X304360258Y-272541298D01*
X303891650Y-272859386D01*
X303378606Y-273209433D01*
X302897833Y-273539031D01*
X302657017Y-273705002D01*
X302318318Y-273932441D01*
X302031518Y-274112677D01*
X301834029Y-274222885D01*
X301769884Y-274246183D01*
X301676521Y-274183335D01*
X301469894Y-274007885D01*
X301170036Y-273738050D01*
X300796978Y-273392045D01*
X300370753Y-272988088D01*
X300101184Y-272728720D01*
X299629569Y-272265338D01*
X299221988Y-271850877D01*
X298894919Y-271503068D01*
X298664837Y-271239640D01*
X298548218Y-271078323D01*
X298537030Y-271045586D01*
X298588949Y-270921063D01*
X298732422Y-270669283D01*
X298951532Y-270315738D01*
X299230366Y-269885917D01*
X299553008Y-269405311D01*
X299644761Y-269271322D01*
X299979081Y-268784334D01*
X300279018Y-268345883D01*
X300527803Y-267980607D01*
X300708667Y-267713146D01*
X300804841Y-267568138D01*
X300814132Y-267553144D01*
X300800237Y-267437580D01*
X300726482Y-267183496D01*
X300605727Y-266824396D01*
X300450831Y-266393784D01*
X300274656Y-265925166D01*
X300090062Y-265452046D01*
X299909908Y-265007929D01*
X299747055Y-264626319D01*
X299614363Y-264340721D01*
X299524692Y-264184641D01*
X299518318Y-264177154D01*
X299463484Y-264132547D01*
X299370870Y-264088436D01*
X299220148Y-264040254D01*
X298990989Y-263983434D01*
X298663064Y-263913411D01*
X298216046Y-263825618D01*
X297629604Y-263715488D01*
X296883411Y-263578455D01*
X296721850Y-263548992D01*
X296243016Y-263456477D01*
X295825576Y-263365974D01*
X295506421Y-263286213D01*
X295322439Y-263225929D01*
X295297769Y-263211875D01*
X295257117Y-263087275D01*
X295224074Y-262808830D01*
X295198661Y-262408908D01*
X295180900Y-261919876D01*
X295170814Y-261374100D01*
X295168425Y-260803947D01*
X295173756Y-260241784D01*
X295186827Y-259719978D01*
X295207661Y-259270896D01*
X295236281Y-258926905D01*
X295272709Y-258720371D01*
X295294669Y-258678099D01*
X295416926Y-258635459D01*
X295695318Y-258566089D01*
X296102110Y-258476008D01*
X296609565Y-258371232D01*
X297189946Y-258257779D01*
X297506155Y-258198316D01*
X298106112Y-258086163D01*
X298641128Y-257984563D01*
X299085056Y-257898614D01*
X299411745Y-257833412D01*
X299595045Y-257794052D01*
X299625213Y-257785326D01*
X299676202Y-257686947D01*
X299783985Y-257449983D01*
X299934196Y-257108287D01*
X300112468Y-256695714D01*
X300304433Y-256246118D01*
X300495724Y-255793351D01*
X300671974Y-255371267D01*
X300818817Y-255013720D01*
X300921885Y-254754564D01*
X300966811Y-254627652D01*
X300967647Y-254622105D01*
X300916717Y-254521989D01*
X300773933Y-254291599D01*
X300554302Y-253953832D01*
X300272831Y-253531587D01*
X299944528Y-253047762D01*
X299753676Y-252769853D01*
X299405910Y-252260289D01*
X299097029Y-251797659D01*
X298842104Y-251405365D01*
X298656207Y-251106810D01*
X298554408Y-250925399D01*
X298539706Y-250884732D01*
X298602907Y-250790074D01*
X298777631Y-250587965D01*
X299041558Y-250301047D01*
X299372370Y-249951963D01*
X299747747Y-249563354D01*
X300145369Y-249157865D01*
X300542917Y-248758136D01*
X300918072Y-248386811D01*
X301248514Y-248066532D01*
X301511924Y-247819942D01*
X301685983Y-247669684D01*
X301744212Y-247633824D01*
X301839024Y-247684248D01*
X302065793Y-247825908D01*
X302402472Y-248044382D01*
X302827012Y-248325251D01*
X303317365Y-248654095D01*
X303687250Y-248904623D01*
X305556091Y-250175421D01*
X307113891Y-249533245D01*
X308671691Y-248891068D01*
X309093875Y-246651600D01*
X309516059Y-244412133D01*
X314177323Y-244412133D01*
X314599507Y-246651600D01*
G36*
X246299507Y-246751600D02*
X246721691Y-248991068D01*
X248279491Y-249633245D01*
X249837291Y-250275421D01*
X251706132Y-249004623D01*
X252229505Y-248650790D01*
X252702606Y-248334863D01*
X253103358Y-248071268D01*
X253409684Y-247874426D01*
X253599506Y-247758763D01*
X253651201Y-247733824D01*
X253744328Y-247797965D01*
X253943331Y-247975289D01*
X254225902Y-248243143D01*
X254569737Y-248578875D01*
X254952529Y-248959834D01*
X255351973Y-249363369D01*
X255745763Y-249766826D01*
X256111593Y-250147556D01*
X256427158Y-250482905D01*
X256670151Y-250750222D01*
X256818267Y-250926856D01*
X256853676Y-250985969D01*
X256802717Y-251094949D01*
X256659851Y-251333702D01*
X256440102Y-251678875D01*
X256158489Y-252107113D01*
X255830033Y-252595064D01*
X255639706Y-252873379D01*
X255292794Y-253381582D01*
X254984528Y-253840184D01*
X254729863Y-254226356D01*
X254543753Y-254517272D01*
X254441152Y-254690104D01*
X254425735Y-254726425D01*
X254460686Y-254829651D01*
X254555955Y-255070229D01*
X254697168Y-255414336D01*
X254869949Y-255828145D01*
X255059925Y-256277831D01*
X255252721Y-256729569D01*
X255433962Y-257149534D01*
X255589273Y-257503900D01*
X255704279Y-257758843D01*
X255764607Y-257880536D01*
X255768168Y-257885326D01*
X255862895Y-257908562D01*
X256115172Y-257960400D01*
X256498850Y-258035746D01*
X256987779Y-258129502D01*
X257555811Y-258236572D01*
X257887227Y-258298316D01*
X258494198Y-258413883D01*
X259042435Y-258523851D01*
X259504201Y-258622203D01*
X259851761Y-258702923D01*
X260057379Y-258759992D01*
X260098713Y-258778099D01*
X260139196Y-258900654D01*
X260171860Y-259177442D01*
X260196727Y-259576096D01*
X260213819Y-260064249D01*
X260223159Y-260609536D01*
X260224768Y-261179588D01*
X260218669Y-261742038D01*
X260204883Y-262264522D01*
X260183434Y-262714670D01*
X260154342Y-263060117D01*
X260117631Y-263268495D01*
X260095612Y-263311875D01*
X259963996Y-263363870D01*
X259685108Y-263438205D01*
X259295837Y-263526148D01*
X258833073Y-263618965D01*
X258671532Y-263648992D01*
X257892678Y-263791654D01*
X257277440Y-263906546D01*
X256805488Y-263998233D01*
X256456494Y-264071282D01*
X256210129Y-264130259D01*
X256046064Y-264179731D01*
X255943971Y-264224265D01*
X255883521Y-264268426D01*
X255875064Y-264277154D01*
X255790636Y-264417749D01*
X255661843Y-264691367D01*
X255501543Y-265064501D01*
X255322596Y-265503649D01*
X255137864Y-265975304D01*
X254960206Y-266445962D01*
X254802482Y-266882119D01*
X254677553Y-267250270D01*
X254598279Y-267516909D01*
X254577519Y-267648533D01*
X254579250Y-267653144D01*
X254649589Y-267760729D01*
X254809162Y-267997444D01*
X255041199Y-268338649D01*
X255328932Y-268759706D01*
X255655592Y-269235976D01*
X255748621Y-269371322D01*
X256080323Y-269862010D01*
X256372207Y-270309716D01*
X256608372Y-270688731D01*
X256772919Y-270973345D01*
X256849945Y-271137852D01*
X256853676Y-271158062D01*
X256788959Y-271264289D01*
X256610135Y-271474728D01*
X256340190Y-271766762D01*
X256002114Y-272117776D01*
X255618896Y-272505152D01*
X255213522Y-272906273D01*
X254808983Y-273298522D01*
X254428265Y-273659284D01*
X254094358Y-273965941D01*
X253830250Y-274195876D01*
X253658929Y-274326472D01*
X253611535Y-274347794D01*
X253501218Y-274297573D01*
X253275355Y-274162122D01*
X252970737Y-273964259D01*
X252736365Y-273805002D01*
X252311694Y-273512776D01*
X251808780Y-273168691D01*
X251304331Y-272825157D01*
X251033124Y-272641298D01*
X250115145Y-272020388D01*
X249344566Y-272437032D01*
X248993510Y-272619556D01*
X248694989Y-272761427D01*
X248493004Y-272842344D01*
X248441589Y-272853603D01*
X248379764Y-272770473D01*
X248257794Y-272535560D01*
X248084783Y-272170532D01*
X247869837Y-271697060D01*
X247622061Y-271136811D01*
X247350559Y-270511453D01*
X247064437Y-269842657D01*
X246772800Y-269152089D01*
X246484753Y-268461420D01*
X246209400Y-267792318D01*
X245955848Y-267166451D01*
X245733200Y-266605488D01*
X245550562Y-266131099D01*
X245417040Y-265764950D01*
X245341737Y-265528712D01*
X245329627Y-265447578D01*
X245425612Y-265344089D01*
X245635771Y-265176095D01*
X245916168Y-264978501D01*
X245939702Y-264962868D01*
X246664419Y-264382757D01*
X247248779Y-263705965D01*
X247687718Y-262954133D01*
X247976171Y-262148902D01*
X248109076Y-261311912D01*
X248081366Y-260464804D01*
X247887979Y-259629219D01*
X247523849Y-258826798D01*
X247416719Y-258651238D01*
X246859506Y-257942318D01*
X246201226Y-257373044D01*
X245464663Y-256946378D01*
X244672601Y-256665279D01*
X243847824Y-256532709D01*
X243013114Y-256551627D01*
X242191256Y-256724995D01*
X241405034Y-257055772D01*
X240677231Y-257546919D01*
X240452100Y-257746265D01*
X239879132Y-258370271D01*
X239461615Y-259027171D01*
X239175213Y-259763497D01*
X239015702Y-260492689D01*
X238976325Y-261312531D01*
X239107628Y-262136443D01*
X239396275Y-262936576D01*
X239828927Y-263685080D01*
X240392247Y-264354109D01*
X241072899Y-264915812D01*
X241162354Y-264975021D01*
X241445756Y-265168920D01*
X241661194Y-265336921D01*
X241764191Y-265444187D01*
X241765689Y-265447578D01*
X241743577Y-265563615D01*
X241655921Y-265826966D01*
X241511831Y-266215970D01*
X241320416Y-266708961D01*
X241090784Y-267284276D01*
X240832043Y-267920252D01*
X240553302Y-268595225D01*
X240263671Y-269287530D01*
X239972256Y-269975504D01*
X239688168Y-270637483D01*
X239420515Y-271251804D01*
X239178406Y-271796802D01*
X238970948Y-272250815D01*
X238807251Y-272592177D01*
X238696423Y-272799225D01*
X238651793Y-272853603D01*
X238515415Y-272811259D01*
X238260238Y-272697692D01*
X237930263Y-272533200D01*
X237748816Y-272437032D01*
X236978237Y-272020388D01*
X236060258Y-272641298D01*
X235591650Y-272959386D01*
X235078606Y-273309433D01*
X234597833Y-273639031D01*
X234357017Y-273805002D01*
X234018318Y-274032441D01*
X233731518Y-274212677D01*
X233534029Y-274322885D01*
X233469884Y-274346183D01*
X233376521Y-274283335D01*
X233169894Y-274107885D01*
X232870036Y-273838050D01*
X232496978Y-273492045D01*
X232070753Y-273088088D01*
X231801184Y-272828720D01*
X231329569Y-272365338D01*
X230921988Y-271950877D01*
X230594919Y-271603068D01*
X230364837Y-271339640D01*
X230248218Y-271178323D01*
X230237030Y-271145586D01*
X230288949Y-271021063D01*
X230432422Y-270769283D01*
X230651532Y-270415738D01*
X230930366Y-269985917D01*
X231253008Y-269505311D01*
X231344761Y-269371322D01*
X231679081Y-268884334D01*
X231979018Y-268445883D01*
X232227803Y-268080607D01*
X232408667Y-267813146D01*
X232504841Y-267668138D01*
X232514132Y-267653144D01*
X232500237Y-267537580D01*
X232426482Y-267283496D01*
X232305727Y-266924396D01*
X232150831Y-266493784D01*
X231974656Y-266025166D01*
X231790062Y-265552046D01*
X231609908Y-265107929D01*
X231447055Y-264726319D01*
X231314363Y-264440721D01*
X231224692Y-264284641D01*
X231218318Y-264277154D01*
X231163484Y-264232547D01*
X231070870Y-264188436D01*
X230920148Y-264140254D01*
X230690989Y-264083434D01*
X230363064Y-264013411D01*
X229916046Y-263925618D01*
X229329604Y-263815488D01*
X228583411Y-263678455D01*
X228421850Y-263648992D01*
X227943016Y-263556477D01*
X227525576Y-263465974D01*
X227206421Y-263386213D01*
X227022439Y-263325929D01*
X226997769Y-263311875D01*
X226957117Y-263187275D01*
X226924074Y-262908830D01*
X226898661Y-262508908D01*
X226880900Y-262019876D01*
X226870814Y-261474100D01*
X226868425Y-260903947D01*
X226873756Y-260341784D01*
X226886827Y-259819978D01*
X226907661Y-259370896D01*
X226936281Y-259026905D01*
X226972709Y-258820371D01*
X226994669Y-258778099D01*
X227116926Y-258735459D01*
X227395318Y-258666089D01*
X227802110Y-258576008D01*
X228309565Y-258471232D01*
X228889946Y-258357779D01*
X229206155Y-258298316D01*
X229806112Y-258186163D01*
X230341128Y-258084563D01*
X230785056Y-257998614D01*
X231111745Y-257933412D01*
X231295045Y-257894052D01*
X231325213Y-257885326D01*
X231376202Y-257786947D01*
X231483985Y-257549983D01*
X231634196Y-257208287D01*
X231812468Y-256795714D01*
X232004433Y-256346118D01*
X232195724Y-255893351D01*
X232371974Y-255471267D01*
X232518817Y-255113720D01*
X232621885Y-254854564D01*
X232666811Y-254727652D01*
X232667647Y-254722105D01*
X232616717Y-254621989D01*
X232473933Y-254391599D01*
X232254302Y-254053832D01*
X231972831Y-253631587D01*
X231644528Y-253147762D01*
X231453676Y-252869853D01*
X231105910Y-252360289D01*
X230797029Y-251897659D01*
X230542104Y-251505365D01*
X230356207Y-251206810D01*
X230254408Y-251025399D01*
X230239706Y-250984732D01*
X230302907Y-250890074D01*
X230477631Y-250687965D01*
X230741558Y-250401047D01*
X231072370Y-250051963D01*
X231447747Y-249663354D01*
X231845369Y-249257865D01*
X232242917Y-248858136D01*
X232618072Y-248486811D01*
X232948514Y-248166532D01*
X233211924Y-247919942D01*
X233385983Y-247769684D01*
X233444212Y-247733824D01*
X233539024Y-247784248D01*
X233765793Y-247925908D01*
X234102472Y-248144382D01*
X234527012Y-248425251D01*
X235017365Y-248754095D01*
X235387250Y-249004623D01*
X237256091Y-250275421D01*
X238813891Y-249633245D01*
X240371691Y-248991068D01*
X240793875Y-246751600D01*
X241216059Y-244512133D01*
X245877323Y-244512133D01*
X246299507Y-246751600D01*
X246299507Y-246751600D01*
G37*
X246299507Y-246751600D02*
X246721691Y-248991068D01*
X248279491Y-249633245D01*
X249837291Y-250275421D01*
X251706132Y-249004623D01*
X252229505Y-248650790D01*
X252702606Y-248334863D01*
X253103358Y-248071268D01*
X253409684Y-247874426D01*
X253599506Y-247758763D01*
X253651201Y-247733824D01*
X253744328Y-247797965D01*
X253943331Y-247975289D01*
X254225902Y-248243143D01*
X254569737Y-248578875D01*
X254952529Y-248959834D01*
X255351973Y-249363369D01*
X255745763Y-249766826D01*
X256111593Y-250147556D01*
X256427158Y-250482905D01*
X256670151Y-250750222D01*
X256818267Y-250926856D01*
X256853676Y-250985969D01*
X256802717Y-251094949D01*
X256659851Y-251333702D01*
X256440102Y-251678875D01*
X256158489Y-252107113D01*
X255830033Y-252595064D01*
X255639706Y-252873379D01*
X255292794Y-253381582D01*
X254984528Y-253840184D01*
X254729863Y-254226356D01*
X254543753Y-254517272D01*
X254441152Y-254690104D01*
X254425735Y-254726425D01*
X254460686Y-254829651D01*
X254555955Y-255070229D01*
X254697168Y-255414336D01*
X254869949Y-255828145D01*
X255059925Y-256277831D01*
X255252721Y-256729569D01*
X255433962Y-257149534D01*
X255589273Y-257503900D01*
X255704279Y-257758843D01*
X255764607Y-257880536D01*
X255768168Y-257885326D01*
X255862895Y-257908562D01*
X256115172Y-257960400D01*
X256498850Y-258035746D01*
X256987779Y-258129502D01*
X257555811Y-258236572D01*
X257887227Y-258298316D01*
X258494198Y-258413883D01*
X259042435Y-258523851D01*
X259504201Y-258622203D01*
X259851761Y-258702923D01*
X260057379Y-258759992D01*
X260098713Y-258778099D01*
X260139196Y-258900654D01*
X260171860Y-259177442D01*
X260196727Y-259576096D01*
X260213819Y-260064249D01*
X260223159Y-260609536D01*
X260224768Y-261179588D01*
X260218669Y-261742038D01*
X260204883Y-262264522D01*
X260183434Y-262714670D01*
X260154342Y-263060117D01*
X260117631Y-263268495D01*
X260095612Y-263311875D01*
X259963996Y-263363870D01*
X259685108Y-263438205D01*
X259295837Y-263526148D01*
X258833073Y-263618965D01*
X258671532Y-263648992D01*
X257892678Y-263791654D01*
X257277440Y-263906546D01*
X256805488Y-263998233D01*
X256456494Y-264071282D01*
X256210129Y-264130259D01*
X256046064Y-264179731D01*
X255943971Y-264224265D01*
X255883521Y-264268426D01*
X255875064Y-264277154D01*
X255790636Y-264417749D01*
X255661843Y-264691367D01*
X255501543Y-265064501D01*
X255322596Y-265503649D01*
X255137864Y-265975304D01*
X254960206Y-266445962D01*
X254802482Y-266882119D01*
X254677553Y-267250270D01*
X254598279Y-267516909D01*
X254577519Y-267648533D01*
X254579250Y-267653144D01*
X254649589Y-267760729D01*
X254809162Y-267997444D01*
X255041199Y-268338649D01*
X255328932Y-268759706D01*
X255655592Y-269235976D01*
X255748621Y-269371322D01*
X256080323Y-269862010D01*
X256372207Y-270309716D01*
X256608372Y-270688731D01*
X256772919Y-270973345D01*
X256849945Y-271137852D01*
X256853676Y-271158062D01*
X256788959Y-271264289D01*
X256610135Y-271474728D01*
X256340190Y-271766762D01*
X256002114Y-272117776D01*
X255618896Y-272505152D01*
X255213522Y-272906273D01*
X254808983Y-273298522D01*
X254428265Y-273659284D01*
X254094358Y-273965941D01*
X253830250Y-274195876D01*
X253658929Y-274326472D01*
X253611535Y-274347794D01*
X253501218Y-274297573D01*
X253275355Y-274162122D01*
X252970737Y-273964259D01*
X252736365Y-273805002D01*
X252311694Y-273512776D01*
X251808780Y-273168691D01*
X251304331Y-272825157D01*
X251033124Y-272641298D01*
X250115145Y-272020388D01*
X249344566Y-272437032D01*
X248993510Y-272619556D01*
X248694989Y-272761427D01*
X248493004Y-272842344D01*
X248441589Y-272853603D01*
X248379764Y-272770473D01*
X248257794Y-272535560D01*
X248084783Y-272170532D01*
X247869837Y-271697060D01*
X247622061Y-271136811D01*
X247350559Y-270511453D01*
X247064437Y-269842657D01*
X246772800Y-269152089D01*
X246484753Y-268461420D01*
X246209400Y-267792318D01*
X245955848Y-267166451D01*
X245733200Y-266605488D01*
X245550562Y-266131099D01*
X245417040Y-265764950D01*
X245341737Y-265528712D01*
X245329627Y-265447578D01*
X245425612Y-265344089D01*
X245635771Y-265176095D01*
X245916168Y-264978501D01*
X245939702Y-264962868D01*
X246664419Y-264382757D01*
X247248779Y-263705965D01*
X247687718Y-262954133D01*
X247976171Y-262148902D01*
X248109076Y-261311912D01*
X248081366Y-260464804D01*
X247887979Y-259629219D01*
X247523849Y-258826798D01*
X247416719Y-258651238D01*
X246859506Y-257942318D01*
X246201226Y-257373044D01*
X245464663Y-256946378D01*
X244672601Y-256665279D01*
X243847824Y-256532709D01*
X243013114Y-256551627D01*
X242191256Y-256724995D01*
X241405034Y-257055772D01*
X240677231Y-257546919D01*
X240452100Y-257746265D01*
X239879132Y-258370271D01*
X239461615Y-259027171D01*
X239175213Y-259763497D01*
X239015702Y-260492689D01*
X238976325Y-261312531D01*
X239107628Y-262136443D01*
X239396275Y-262936576D01*
X239828927Y-263685080D01*
X240392247Y-264354109D01*
X241072899Y-264915812D01*
X241162354Y-264975021D01*
X241445756Y-265168920D01*
X241661194Y-265336921D01*
X241764191Y-265444187D01*
X241765689Y-265447578D01*
X241743577Y-265563615D01*
X241655921Y-265826966D01*
X241511831Y-266215970D01*
X241320416Y-266708961D01*
X241090784Y-267284276D01*
X240832043Y-267920252D01*
X240553302Y-268595225D01*
X240263671Y-269287530D01*
X239972256Y-269975504D01*
X239688168Y-270637483D01*
X239420515Y-271251804D01*
X239178406Y-271796802D01*
X238970948Y-272250815D01*
X238807251Y-272592177D01*
X238696423Y-272799225D01*
X238651793Y-272853603D01*
X238515415Y-272811259D01*
X238260238Y-272697692D01*
X237930263Y-272533200D01*
X237748816Y-272437032D01*
X236978237Y-272020388D01*
X236060258Y-272641298D01*
X235591650Y-272959386D01*
X235078606Y-273309433D01*
X234597833Y-273639031D01*
X234357017Y-273805002D01*
X234018318Y-274032441D01*
X233731518Y-274212677D01*
X233534029Y-274322885D01*
X233469884Y-274346183D01*
X233376521Y-274283335D01*
X233169894Y-274107885D01*
X232870036Y-273838050D01*
X232496978Y-273492045D01*
X232070753Y-273088088D01*
X231801184Y-272828720D01*
X231329569Y-272365338D01*
X230921988Y-271950877D01*
X230594919Y-271603068D01*
X230364837Y-271339640D01*
X230248218Y-271178323D01*
X230237030Y-271145586D01*
X230288949Y-271021063D01*
X230432422Y-270769283D01*
X230651532Y-270415738D01*
X230930366Y-269985917D01*
X231253008Y-269505311D01*
X231344761Y-269371322D01*
X231679081Y-268884334D01*
X231979018Y-268445883D01*
X232227803Y-268080607D01*
X232408667Y-267813146D01*
X232504841Y-267668138D01*
X232514132Y-267653144D01*
X232500237Y-267537580D01*
X232426482Y-267283496D01*
X232305727Y-266924396D01*
X232150831Y-266493784D01*
X231974656Y-266025166D01*
X231790062Y-265552046D01*
X231609908Y-265107929D01*
X231447055Y-264726319D01*
X231314363Y-264440721D01*
X231224692Y-264284641D01*
X231218318Y-264277154D01*
X231163484Y-264232547D01*
X231070870Y-264188436D01*
X230920148Y-264140254D01*
X230690989Y-264083434D01*
X230363064Y-264013411D01*
X229916046Y-263925618D01*
X229329604Y-263815488D01*
X228583411Y-263678455D01*
X228421850Y-263648992D01*
X227943016Y-263556477D01*
X227525576Y-263465974D01*
X227206421Y-263386213D01*
X227022439Y-263325929D01*
X226997769Y-263311875D01*
X226957117Y-263187275D01*
X226924074Y-262908830D01*
X226898661Y-262508908D01*
X226880900Y-262019876D01*
X226870814Y-261474100D01*
X226868425Y-260903947D01*
X226873756Y-260341784D01*
X226886827Y-259819978D01*
X226907661Y-259370896D01*
X226936281Y-259026905D01*
X226972709Y-258820371D01*
X226994669Y-258778099D01*
X227116926Y-258735459D01*
X227395318Y-258666089D01*
X227802110Y-258576008D01*
X228309565Y-258471232D01*
X228889946Y-258357779D01*
X229206155Y-258298316D01*
X229806112Y-258186163D01*
X230341128Y-258084563D01*
X230785056Y-257998614D01*
X231111745Y-257933412D01*
X231295045Y-257894052D01*
X231325213Y-257885326D01*
X231376202Y-257786947D01*
X231483985Y-257549983D01*
X231634196Y-257208287D01*
X231812468Y-256795714D01*
X232004433Y-256346118D01*
X232195724Y-255893351D01*
X232371974Y-255471267D01*
X232518817Y-255113720D01*
X232621885Y-254854564D01*
X232666811Y-254727652D01*
X232667647Y-254722105D01*
X232616717Y-254621989D01*
X232473933Y-254391599D01*
X232254302Y-254053832D01*
X231972831Y-253631587D01*
X231644528Y-253147762D01*
X231453676Y-252869853D01*
X231105910Y-252360289D01*
X230797029Y-251897659D01*
X230542104Y-251505365D01*
X230356207Y-251206810D01*
X230254408Y-251025399D01*
X230239706Y-250984732D01*
X230302907Y-250890074D01*
X230477631Y-250687965D01*
X230741558Y-250401047D01*
X231072370Y-250051963D01*
X231447747Y-249663354D01*
X231845369Y-249257865D01*
X232242917Y-248858136D01*
X232618072Y-248486811D01*
X232948514Y-248166532D01*
X233211924Y-247919942D01*
X233385983Y-247769684D01*
X233444212Y-247733824D01*
X233539024Y-247784248D01*
X233765793Y-247925908D01*
X234102472Y-248144382D01*
X234527012Y-248425251D01*
X235017365Y-248754095D01*
X235387250Y-249004623D01*
X237256091Y-250275421D01*
X238813891Y-249633245D01*
X240371691Y-248991068D01*
X240793875Y-246751600D01*
X241216059Y-244512133D01*
X245877323Y-244512133D01*
X246299507Y-246751600D01*
G36*
X177699507Y-246551600D02*
X178121691Y-248791068D01*
X179679491Y-249433245D01*
X181237291Y-250075421D01*
X183106132Y-248804623D01*
X183629505Y-248450790D01*
X184102606Y-248134863D01*
X184503358Y-247871268D01*
X184809684Y-247674426D01*
X184999506Y-247558763D01*
X185051201Y-247533824D01*
X185144328Y-247597965D01*
X185343331Y-247775289D01*
X185625902Y-248043143D01*
X185969737Y-248378875D01*
X186352529Y-248759834D01*
X186751973Y-249163369D01*
X187145763Y-249566826D01*
X187511593Y-249947556D01*
X187827158Y-250282905D01*
X188070151Y-250550222D01*
X188218267Y-250726856D01*
X188253676Y-250785969D01*
X188202717Y-250894949D01*
X188059851Y-251133702D01*
X187840102Y-251478875D01*
X187558489Y-251907113D01*
X187230033Y-252395064D01*
X187039706Y-252673379D01*
X186692794Y-253181582D01*
X186384528Y-253640184D01*
X186129863Y-254026356D01*
X185943753Y-254317272D01*
X185841152Y-254490104D01*
X185825735Y-254526425D01*
X185860686Y-254629651D01*
X185955955Y-254870229D01*
X186097168Y-255214336D01*
X186269949Y-255628145D01*
X186459925Y-256077831D01*
X186652721Y-256529569D01*
X186833962Y-256949534D01*
X186989273Y-257303900D01*
X187104279Y-257558843D01*
X187164607Y-257680536D01*
X187168168Y-257685326D01*
X187262895Y-257708562D01*
X187515172Y-257760400D01*
X187898850Y-257835746D01*
X188387779Y-257929502D01*
X188955811Y-258036572D01*
X189287227Y-258098316D01*
X189894198Y-258213883D01*
X190442435Y-258323851D01*
X190904201Y-258422203D01*
X191251761Y-258502923D01*
X191457379Y-258559992D01*
X191498713Y-258578099D01*
X191539196Y-258700654D01*
X191571860Y-258977442D01*
X191596727Y-259376096D01*
X191613819Y-259864249D01*
X191623159Y-260409536D01*
X191624768Y-260979588D01*
X191618669Y-261542038D01*
X191604883Y-262064522D01*
X191583434Y-262514670D01*
X191554342Y-262860117D01*
X191517631Y-263068495D01*
X191495612Y-263111875D01*
X191363996Y-263163870D01*
X191085108Y-263238205D01*
X190695837Y-263326148D01*
X190233073Y-263418965D01*
X190071532Y-263448992D01*
X189292678Y-263591654D01*
X188677440Y-263706546D01*
X188205488Y-263798233D01*
X187856494Y-263871282D01*
X187610129Y-263930259D01*
X187446064Y-263979731D01*
X187343971Y-264024265D01*
X187283521Y-264068426D01*
X187275064Y-264077154D01*
X187190636Y-264217749D01*
X187061843Y-264491367D01*
X186901543Y-264864501D01*
X186722596Y-265303649D01*
X186537864Y-265775304D01*
X186360206Y-266245962D01*
X186202482Y-266682119D01*
X186077553Y-267050270D01*
X185998279Y-267316909D01*
X185977519Y-267448533D01*
X185979250Y-267453144D01*
X186049589Y-267560729D01*
X186209162Y-267797444D01*
X186441199Y-268138649D01*
X186728932Y-268559706D01*
X187055592Y-269035976D01*
X187148621Y-269171322D01*
X187480323Y-269662010D01*
X187772207Y-270109716D01*
X188008372Y-270488731D01*
X188172919Y-270773345D01*
X188249945Y-270937852D01*
X188253676Y-270958062D01*
X188188959Y-271064289D01*
X188010135Y-271274728D01*
X187740190Y-271566762D01*
X187402114Y-271917776D01*
X187018896Y-272305152D01*
X186613522Y-272706273D01*
X186208983Y-273098522D01*
X185828265Y-273459284D01*
X185494358Y-273765941D01*
X185230250Y-273995876D01*
X185058929Y-274126472D01*
X185011535Y-274147794D01*
X184901218Y-274097573D01*
X184675355Y-273962122D01*
X184370737Y-273764259D01*
X184136365Y-273605002D01*
X183711694Y-273312776D01*
X183208780Y-272968691D01*
X182704331Y-272625157D01*
X182433124Y-272441298D01*
X181515145Y-271820388D01*
X180744566Y-272237032D01*
X180393510Y-272419556D01*
X180094989Y-272561427D01*
X179893004Y-272642344D01*
X179841589Y-272653603D01*
X179779764Y-272570473D01*
X179657794Y-272335560D01*
X179484783Y-271970532D01*
X179269837Y-271497060D01*
X179022061Y-270936811D01*
X178750559Y-270311453D01*
X178464437Y-269642657D01*
X178172800Y-268952089D01*
X177884753Y-268261420D01*
X177609400Y-267592318D01*
X177355848Y-266966451D01*
X177133200Y-266405488D01*
X176950562Y-265931099D01*
X176817040Y-265564950D01*
X176741737Y-265328712D01*
X176729627Y-265247578D01*
X176825612Y-265144089D01*
X177035771Y-264976095D01*
X177316168Y-264778501D01*
X177339702Y-264762868D01*
X178064419Y-264182757D01*
X178648779Y-263505965D01*
X179087718Y-262754133D01*
X179376171Y-261948902D01*
X179509076Y-261111912D01*
X179481366Y-260264804D01*
X179287979Y-259429219D01*
X178923849Y-258626798D01*
X178816719Y-258451238D01*
X178259506Y-257742318D01*
X177601226Y-257173044D01*
X176864663Y-256746378D01*
X176072601Y-256465279D01*
X175247824Y-256332709D01*
X174413114Y-256351627D01*
X173591256Y-256524995D01*
X172805034Y-256855772D01*
X172077231Y-257346919D01*
X171852100Y-257546265D01*
X171279132Y-258170271D01*
X170861615Y-258827171D01*
X170575213Y-259563497D01*
X170415702Y-260292689D01*
X170376325Y-261112531D01*
X170507628Y-261936443D01*
X170796275Y-262736576D01*
X171228927Y-263485080D01*
X171792247Y-264154109D01*
X172472899Y-264715812D01*
X172562354Y-264775021D01*
X172845756Y-264968920D01*
X173061194Y-265136921D01*
X173164191Y-265244187D01*
X173165689Y-265247578D01*
X173143577Y-265363615D01*
X173055921Y-265626966D01*
X172911831Y-266015970D01*
X172720416Y-266508961D01*
X172490784Y-267084276D01*
X172232043Y-267720252D01*
X171953302Y-268395225D01*
X171663671Y-269087530D01*
X171372256Y-269775504D01*
X171088168Y-270437483D01*
X170820515Y-271051804D01*
X170578406Y-271596802D01*
X170370948Y-272050815D01*
X170207251Y-272392177D01*
X170096423Y-272599225D01*
X170051793Y-272653603D01*
X169915415Y-272611259D01*
X169660238Y-272497692D01*
X169330263Y-272333200D01*
X169148816Y-272237032D01*
X168378237Y-271820388D01*
X167460258Y-272441298D01*
X166991650Y-272759386D01*
X166478606Y-273109433D01*
X165997833Y-273439031D01*
X165757017Y-273605002D01*
X165418318Y-273832441D01*
X165131518Y-274012677D01*
X164934029Y-274122885D01*
X164869884Y-274146183D01*
X164776521Y-274083335D01*
X164569894Y-273907885D01*
X164270036Y-273638050D01*
X163896978Y-273292045D01*
X163470753Y-272888088D01*
X163201184Y-272628720D01*
X162729569Y-272165338D01*
X162321988Y-271750877D01*
X161994919Y-271403068D01*
X161764837Y-271139640D01*
X161648218Y-270978323D01*
X161637030Y-270945586D01*
X161688949Y-270821063D01*
X161832422Y-270569283D01*
X162051532Y-270215738D01*
X162330366Y-269785917D01*
X162653008Y-269305311D01*
X162744761Y-269171322D01*
X163079081Y-268684334D01*
X163379018Y-268245883D01*
X163627803Y-267880607D01*
X163808667Y-267613146D01*
X163904841Y-267468138D01*
X163914132Y-267453144D01*
X163900237Y-267337580D01*
X163826482Y-267083496D01*
X163705727Y-266724396D01*
X163550831Y-266293784D01*
X163374656Y-265825166D01*
X163190062Y-265352046D01*
X163009908Y-264907929D01*
X162847055Y-264526319D01*
X162714363Y-264240721D01*
X162624692Y-264084641D01*
X162618318Y-264077154D01*
X162563484Y-264032547D01*
X162470870Y-263988436D01*
X162320148Y-263940254D01*
X162090989Y-263883434D01*
X161763064Y-263813411D01*
X161316046Y-263725618D01*
X160729604Y-263615488D01*
X159983411Y-263478455D01*
X159821850Y-263448992D01*
X159343016Y-263356477D01*
X158925576Y-263265974D01*
X158606421Y-263186213D01*
X158422439Y-263125929D01*
X158397769Y-263111875D01*
X158357117Y-262987275D01*
X158324074Y-262708830D01*
X158298661Y-262308908D01*
X158280900Y-261819876D01*
X158270814Y-261274100D01*
X158268425Y-260703947D01*
X158273756Y-260141784D01*
X158286827Y-259619978D01*
X158307661Y-259170896D01*
X158336281Y-258826905D01*
X158372709Y-258620371D01*
X158394669Y-258578099D01*
X158516926Y-258535459D01*
X158795318Y-258466089D01*
X159202110Y-258376008D01*
X159709565Y-258271232D01*
X160289946Y-258157779D01*
X160606155Y-258098316D01*
X161206112Y-257986163D01*
X161741128Y-257884563D01*
X162185056Y-257798614D01*
X162511745Y-257733412D01*
X162695045Y-257694052D01*
X162725213Y-257685326D01*
X162776202Y-257586947D01*
X162883985Y-257349983D01*
X163034196Y-257008287D01*
X163212468Y-256595714D01*
X163404433Y-256146118D01*
X163595724Y-255693351D01*
X163771974Y-255271267D01*
X163918817Y-254913720D01*
X164021885Y-254654564D01*
X164066811Y-254527652D01*
X164067647Y-254522105D01*
X164016717Y-254421989D01*
X163873933Y-254191599D01*
X163654302Y-253853832D01*
X163372831Y-253431587D01*
X163044528Y-252947762D01*
X162853676Y-252669853D01*
X162505910Y-252160289D01*
X162197029Y-251697659D01*
X161942104Y-251305365D01*
X161756207Y-251006810D01*
X161654408Y-250825399D01*
X161639706Y-250784732D01*
X161702907Y-250690074D01*
X161877631Y-250487965D01*
X162141558Y-250201047D01*
X162472370Y-249851963D01*
X162847747Y-249463354D01*
X163245369Y-249057865D01*
X163642917Y-248658136D01*
X164018072Y-248286811D01*
X164348514Y-247966532D01*
X164611924Y-247719942D01*
X164785983Y-247569684D01*
X164844212Y-247533824D01*
X164939024Y-247584248D01*
X165165793Y-247725908D01*
X165502472Y-247944382D01*
X165927012Y-248225251D01*
X166417365Y-248554095D01*
X166787250Y-248804623D01*
X168656091Y-250075421D01*
X170213891Y-249433245D01*
X171771691Y-248791068D01*
X172193875Y-246551600D01*
X172616059Y-244312133D01*
X177277323Y-244312133D01*
X177699507Y-246551600D01*
X177699507Y-246551600D01*
G37*
X177699507Y-246551600D02*
X178121691Y-248791068D01*
X179679491Y-249433245D01*
X181237291Y-250075421D01*
X183106132Y-248804623D01*
X183629505Y-248450790D01*
X184102606Y-248134863D01*
X184503358Y-247871268D01*
X184809684Y-247674426D01*
X184999506Y-247558763D01*
X185051201Y-247533824D01*
X185144328Y-247597965D01*
X185343331Y-247775289D01*
X185625902Y-248043143D01*
X185969737Y-248378875D01*
X186352529Y-248759834D01*
X186751973Y-249163369D01*
X187145763Y-249566826D01*
X187511593Y-249947556D01*
X187827158Y-250282905D01*
X188070151Y-250550222D01*
X188218267Y-250726856D01*
X188253676Y-250785969D01*
X188202717Y-250894949D01*
X188059851Y-251133702D01*
X187840102Y-251478875D01*
X187558489Y-251907113D01*
X187230033Y-252395064D01*
X187039706Y-252673379D01*
X186692794Y-253181582D01*
X186384528Y-253640184D01*
X186129863Y-254026356D01*
X185943753Y-254317272D01*
X185841152Y-254490104D01*
X185825735Y-254526425D01*
X185860686Y-254629651D01*
X185955955Y-254870229D01*
X186097168Y-255214336D01*
X186269949Y-255628145D01*
X186459925Y-256077831D01*
X186652721Y-256529569D01*
X186833962Y-256949534D01*
X186989273Y-257303900D01*
X187104279Y-257558843D01*
X187164607Y-257680536D01*
X187168168Y-257685326D01*
X187262895Y-257708562D01*
X187515172Y-257760400D01*
X187898850Y-257835746D01*
X188387779Y-257929502D01*
X188955811Y-258036572D01*
X189287227Y-258098316D01*
X189894198Y-258213883D01*
X190442435Y-258323851D01*
X190904201Y-258422203D01*
X191251761Y-258502923D01*
X191457379Y-258559992D01*
X191498713Y-258578099D01*
X191539196Y-258700654D01*
X191571860Y-258977442D01*
X191596727Y-259376096D01*
X191613819Y-259864249D01*
X191623159Y-260409536D01*
X191624768Y-260979588D01*
X191618669Y-261542038D01*
X191604883Y-262064522D01*
X191583434Y-262514670D01*
X191554342Y-262860117D01*
X191517631Y-263068495D01*
X191495612Y-263111875D01*
X191363996Y-263163870D01*
X191085108Y-263238205D01*
X190695837Y-263326148D01*
X190233073Y-263418965D01*
X190071532Y-263448992D01*
X189292678Y-263591654D01*
X188677440Y-263706546D01*
X188205488Y-263798233D01*
X187856494Y-263871282D01*
X187610129Y-263930259D01*
X187446064Y-263979731D01*
X187343971Y-264024265D01*
X187283521Y-264068426D01*
X187275064Y-264077154D01*
X187190636Y-264217749D01*
X187061843Y-264491367D01*
X186901543Y-264864501D01*
X186722596Y-265303649D01*
X186537864Y-265775304D01*
X186360206Y-266245962D01*
X186202482Y-266682119D01*
X186077553Y-267050270D01*
X185998279Y-267316909D01*
X185977519Y-267448533D01*
X185979250Y-267453144D01*
X186049589Y-267560729D01*
X186209162Y-267797444D01*
X186441199Y-268138649D01*
X186728932Y-268559706D01*
X187055592Y-269035976D01*
X187148621Y-269171322D01*
X187480323Y-269662010D01*
X187772207Y-270109716D01*
X188008372Y-270488731D01*
X188172919Y-270773345D01*
X188249945Y-270937852D01*
X188253676Y-270958062D01*
X188188959Y-271064289D01*
X188010135Y-271274728D01*
X187740190Y-271566762D01*
X187402114Y-271917776D01*
X187018896Y-272305152D01*
X186613522Y-272706273D01*
X186208983Y-273098522D01*
X185828265Y-273459284D01*
X185494358Y-273765941D01*
X185230250Y-273995876D01*
X185058929Y-274126472D01*
X185011535Y-274147794D01*
X184901218Y-274097573D01*
X184675355Y-273962122D01*
X184370737Y-273764259D01*
X184136365Y-273605002D01*
X183711694Y-273312776D01*
X183208780Y-272968691D01*
X182704331Y-272625157D01*
X182433124Y-272441298D01*
X181515145Y-271820388D01*
X180744566Y-272237032D01*
X180393510Y-272419556D01*
X180094989Y-272561427D01*
X179893004Y-272642344D01*
X179841589Y-272653603D01*
X179779764Y-272570473D01*
X179657794Y-272335560D01*
X179484783Y-271970532D01*
X179269837Y-271497060D01*
X179022061Y-270936811D01*
X178750559Y-270311453D01*
X178464437Y-269642657D01*
X178172800Y-268952089D01*
X177884753Y-268261420D01*
X177609400Y-267592318D01*
X177355848Y-266966451D01*
X177133200Y-266405488D01*
X176950562Y-265931099D01*
X176817040Y-265564950D01*
X176741737Y-265328712D01*
X176729627Y-265247578D01*
X176825612Y-265144089D01*
X177035771Y-264976095D01*
X177316168Y-264778501D01*
X177339702Y-264762868D01*
X178064419Y-264182757D01*
X178648779Y-263505965D01*
X179087718Y-262754133D01*
X179376171Y-261948902D01*
X179509076Y-261111912D01*
X179481366Y-260264804D01*
X179287979Y-259429219D01*
X178923849Y-258626798D01*
X178816719Y-258451238D01*
X178259506Y-257742318D01*
X177601226Y-257173044D01*
X176864663Y-256746378D01*
X176072601Y-256465279D01*
X175247824Y-256332709D01*
X174413114Y-256351627D01*
X173591256Y-256524995D01*
X172805034Y-256855772D01*
X172077231Y-257346919D01*
X171852100Y-257546265D01*
X171279132Y-258170271D01*
X170861615Y-258827171D01*
X170575213Y-259563497D01*
X170415702Y-260292689D01*
X170376325Y-261112531D01*
X170507628Y-261936443D01*
X170796275Y-262736576D01*
X171228927Y-263485080D01*
X171792247Y-264154109D01*
X172472899Y-264715812D01*
X172562354Y-264775021D01*
X172845756Y-264968920D01*
X173061194Y-265136921D01*
X173164191Y-265244187D01*
X173165689Y-265247578D01*
X173143577Y-265363615D01*
X173055921Y-265626966D01*
X172911831Y-266015970D01*
X172720416Y-266508961D01*
X172490784Y-267084276D01*
X172232043Y-267720252D01*
X171953302Y-268395225D01*
X171663671Y-269087530D01*
X171372256Y-269775504D01*
X171088168Y-270437483D01*
X170820515Y-271051804D01*
X170578406Y-271596802D01*
X170370948Y-272050815D01*
X170207251Y-272392177D01*
X170096423Y-272599225D01*
X170051793Y-272653603D01*
X169915415Y-272611259D01*
X169660238Y-272497692D01*
X169330263Y-272333200D01*
X169148816Y-272237032D01*
X168378237Y-271820388D01*
X167460258Y-272441298D01*
X166991650Y-272759386D01*
X166478606Y-273109433D01*
X165997833Y-273439031D01*
X165757017Y-273605002D01*
X165418318Y-273832441D01*
X165131518Y-274012677D01*
X164934029Y-274122885D01*
X164869884Y-274146183D01*
X164776521Y-274083335D01*
X164569894Y-273907885D01*
X164270036Y-273638050D01*
X163896978Y-273292045D01*
X163470753Y-272888088D01*
X163201184Y-272628720D01*
X162729569Y-272165338D01*
X162321988Y-271750877D01*
X161994919Y-271403068D01*
X161764837Y-271139640D01*
X161648218Y-270978323D01*
X161637030Y-270945586D01*
X161688949Y-270821063D01*
X161832422Y-270569283D01*
X162051532Y-270215738D01*
X162330366Y-269785917D01*
X162653008Y-269305311D01*
X162744761Y-269171322D01*
X163079081Y-268684334D01*
X163379018Y-268245883D01*
X163627803Y-267880607D01*
X163808667Y-267613146D01*
X163904841Y-267468138D01*
X163914132Y-267453144D01*
X163900237Y-267337580D01*
X163826482Y-267083496D01*
X163705727Y-266724396D01*
X163550831Y-266293784D01*
X163374656Y-265825166D01*
X163190062Y-265352046D01*
X163009908Y-264907929D01*
X162847055Y-264526319D01*
X162714363Y-264240721D01*
X162624692Y-264084641D01*
X162618318Y-264077154D01*
X162563484Y-264032547D01*
X162470870Y-263988436D01*
X162320148Y-263940254D01*
X162090989Y-263883434D01*
X161763064Y-263813411D01*
X161316046Y-263725618D01*
X160729604Y-263615488D01*
X159983411Y-263478455D01*
X159821850Y-263448992D01*
X159343016Y-263356477D01*
X158925576Y-263265974D01*
X158606421Y-263186213D01*
X158422439Y-263125929D01*
X158397769Y-263111875D01*
X158357117Y-262987275D01*
X158324074Y-262708830D01*
X158298661Y-262308908D01*
X158280900Y-261819876D01*
X158270814Y-261274100D01*
X158268425Y-260703947D01*
X158273756Y-260141784D01*
X158286827Y-259619978D01*
X158307661Y-259170896D01*
X158336281Y-258826905D01*
X158372709Y-258620371D01*
X158394669Y-258578099D01*
X158516926Y-258535459D01*
X158795318Y-258466089D01*
X159202110Y-258376008D01*
X159709565Y-258271232D01*
X160289946Y-258157779D01*
X160606155Y-258098316D01*
X161206112Y-257986163D01*
X161741128Y-257884563D01*
X162185056Y-257798614D01*
X162511745Y-257733412D01*
X162695045Y-257694052D01*
X162725213Y-257685326D01*
X162776202Y-257586947D01*
X162883985Y-257349983D01*
X163034196Y-257008287D01*
X163212468Y-256595714D01*
X163404433Y-256146118D01*
X163595724Y-255693351D01*
X163771974Y-255271267D01*
X163918817Y-254913720D01*
X164021885Y-254654564D01*
X164066811Y-254527652D01*
X164067647Y-254522105D01*
X164016717Y-254421989D01*
X163873933Y-254191599D01*
X163654302Y-253853832D01*
X163372831Y-253431587D01*
X163044528Y-252947762D01*
X162853676Y-252669853D01*
X162505910Y-252160289D01*
X162197029Y-251697659D01*
X161942104Y-251305365D01*
X161756207Y-251006810D01*
X161654408Y-250825399D01*
X161639706Y-250784732D01*
X161702907Y-250690074D01*
X161877631Y-250487965D01*
X162141558Y-250201047D01*
X162472370Y-249851963D01*
X162847747Y-249463354D01*
X163245369Y-249057865D01*
X163642917Y-248658136D01*
X164018072Y-248286811D01*
X164348514Y-247966532D01*
X164611924Y-247719942D01*
X164785983Y-247569684D01*
X164844212Y-247533824D01*
X164939024Y-247584248D01*
X165165793Y-247725908D01*
X165502472Y-247944382D01*
X165927012Y-248225251D01*
X166417365Y-248554095D01*
X166787250Y-248804623D01*
X168656091Y-250075421D01*
X170213891Y-249433245D01*
X171771691Y-248791068D01*
X172193875Y-246551600D01*
X172616059Y-244312133D01*
X177277323Y-244312133D01*
X177699507Y-246551600D01*
D13*
X93400000Y-267250000D02*
X93400000Y-267750000D01*
X92600000Y-267750000D02*
X92600000Y-267250000D01*
X89250000Y-267100000D02*
X89750000Y-267100000D01*
X89750000Y-267900000D02*
X89250000Y-267900000D01*
X88600000Y-250750000D02*
X88600000Y-250250000D01*
X89400000Y-250250000D02*
X89400000Y-250750000D01*
X82750000Y-261100000D02*
X83250000Y-261100000D01*
X83250000Y-261900000D02*
X82750000Y-261900000D01*
D15*
X81770000Y-270230000D02*
X81770000Y-265150000D01*
X82050000Y-273050000D02*
X80500000Y-273050000D01*
X79230000Y-272770000D02*
X79230000Y-270230000D01*
X79230000Y-270230000D02*
X81770000Y-270230000D01*
X81770000Y-265150000D02*
X76690000Y-265150000D01*
X76690000Y-265150000D02*
X76690000Y-270230000D01*
X82050000Y-273050000D02*
X82050000Y-271500000D01*
X76690000Y-272770000D02*
X79230000Y-272770000D01*
X76690000Y-270230000D02*
X76690000Y-272770000D01*
D13*
X97700000Y-249000000D02*
X97700000Y-250000000D01*
X97700000Y-250000000D02*
X99800000Y-250000000D01*
X97700000Y-249000000D02*
X99800000Y-249000000D01*
X101700000Y-249000000D02*
X101700000Y-250000000D01*
X101700000Y-250000000D02*
X103800000Y-250000000D01*
X101700000Y-249000000D02*
X103800000Y-249000000D01*
X79000000Y-255930000D02*
X81000000Y-255930000D01*
X81000000Y-258070000D02*
X79000000Y-258070000D01*
X67216000Y-255744000D02*
X67216000Y-263744000D01*
X74536000Y-255744000D02*
X74536000Y-263744000D01*
X74536000Y-263744000D02*
X67216000Y-263744000D01*
X67836000Y-263744000D02*
X67836000Y-255744000D01*
X67216000Y-255744000D02*
X74536000Y-255744000D01*
D15*
X96770000Y-271770000D02*
X104390000Y-271770000D01*
X96770000Y-269230000D02*
X104390000Y-269230000D01*
X93950000Y-268950000D02*
X95500000Y-268950000D01*
X104390000Y-271770000D02*
X104390000Y-269230000D01*
X96770000Y-269230000D02*
X96770000Y-271770000D01*
X95500000Y-272050000D02*
X93950000Y-272050000D01*
X93950000Y-272050000D02*
X93950000Y-268950000D01*
D13*
X86620000Y-266560000D02*
X86380000Y-266560000D01*
X86380000Y-267440000D02*
X86620000Y-267440000D01*
X79880000Y-261940000D02*
X80120000Y-261940000D01*
X80120000Y-261060000D02*
X79880000Y-261060000D01*
X79880000Y-259440000D02*
X80120000Y-259440000D01*
X80120000Y-258560000D02*
X79880000Y-258560000D01*
X102880000Y-255440000D02*
X103120000Y-255440000D01*
X103120000Y-254560000D02*
X102880000Y-254560000D01*
X103120000Y-264560000D02*
X102880000Y-264560000D01*
X102880000Y-265440000D02*
X103120000Y-265440000D01*
X102880000Y-252940000D02*
X103120000Y-252940000D01*
X103120000Y-252060000D02*
X102880000Y-252060000D01*
X102880000Y-262940000D02*
X103120000Y-262940000D01*
X103120000Y-262060000D02*
X102880000Y-262060000D01*
X102880000Y-260440000D02*
X103120000Y-260440000D01*
X103120000Y-259560000D02*
X102880000Y-259560000D01*
X102880000Y-257940000D02*
X103120000Y-257940000D01*
X103120000Y-257060000D02*
X102880000Y-257060000D01*
X92060000Y-250380000D02*
X92060000Y-250620000D01*
X92940000Y-250620000D02*
X92940000Y-250380000D01*
X100440000Y-253120000D02*
X100440000Y-252880000D01*
X99560000Y-252880000D02*
X99560000Y-253120000D01*
D15*
X87069000Y-254061000D02*
X87069000Y-254636000D01*
X97419000Y-254061000D02*
X97419000Y-254736000D01*
X97419000Y-264411000D02*
X97419000Y-263736000D01*
X87069000Y-264411000D02*
X87069000Y-263736000D01*
X87069000Y-254061000D02*
X87744000Y-254061000D01*
X87069000Y-264411000D02*
X87744000Y-264411000D01*
X97419000Y-264411000D02*
X96744000Y-264411000D01*
X97419000Y-254061000D02*
X96744000Y-254061000D01*
X87069000Y-254636000D02*
X85794000Y-254636000D01*
D13*
X92100000Y-270100000D02*
X91700000Y-270100000D01*
X91700000Y-270100000D02*
X91700000Y-270900000D01*
X86300000Y-270900000D02*
X86300000Y-270100000D01*
X89900000Y-272300000D02*
X88100000Y-272300000D01*
X88100000Y-268700000D02*
X89900000Y-268700000D01*
X89900000Y-268700000D02*
X89900000Y-268460000D01*
X77286000Y-242000000D02*
G75*
G03X77286000Y-242000000I-2286000J0D01*
G01*
D15*
X92087143Y-267666666D02*
X92134762Y-267714285D01*
X92182381Y-267857142D01*
X92182381Y-267952380D01*
X92134762Y-268095238D01*
X92039524Y-268190476D01*
X91944286Y-268238095D01*
X91753810Y-268285714D01*
X91610952Y-268285714D01*
X91420476Y-268238095D01*
X91325238Y-268190476D01*
X91230000Y-268095238D01*
X91182381Y-267952380D01*
X91182381Y-267857142D01*
X91230000Y-267714285D01*
X91277619Y-267666666D01*
X92182381Y-266714285D02*
X92182381Y-267285714D01*
X92182381Y-267000000D02*
X91182381Y-267000000D01*
X91325238Y-267095238D01*
X91420476Y-267190476D01*
X91468095Y-267285714D01*
X89333334Y-266757143D02*
X89285715Y-266804762D01*
X89142858Y-266852381D01*
X89047620Y-266852381D01*
X88904762Y-266804762D01*
X88809524Y-266709524D01*
X88761905Y-266614286D01*
X88714286Y-266423810D01*
X88714286Y-266280952D01*
X88761905Y-266090476D01*
X88809524Y-265995238D01*
X88904762Y-265900000D01*
X89047620Y-265852381D01*
X89142858Y-265852381D01*
X89285715Y-265900000D01*
X89333334Y-265947619D01*
X89714286Y-265947619D02*
X89761905Y-265900000D01*
X89857143Y-265852381D01*
X90095239Y-265852381D01*
X90190477Y-265900000D01*
X90238096Y-265947619D01*
X90285715Y-266042857D01*
X90285715Y-266138095D01*
X90238096Y-266280952D01*
X89666667Y-266852381D01*
X90285715Y-266852381D01*
X90627143Y-250666666D02*
X90674762Y-250714285D01*
X90722381Y-250857142D01*
X90722381Y-250952380D01*
X90674762Y-251095238D01*
X90579524Y-251190476D01*
X90484286Y-251238095D01*
X90293810Y-251285714D01*
X90150952Y-251285714D01*
X89960476Y-251238095D01*
X89865238Y-251190476D01*
X89770000Y-251095238D01*
X89722381Y-250952380D01*
X89722381Y-250857142D01*
X89770000Y-250714285D01*
X89817619Y-250666666D01*
X89722381Y-250333333D02*
X89722381Y-249714285D01*
X90103333Y-250047619D01*
X90103333Y-249904761D01*
X90150952Y-249809523D01*
X90198571Y-249761904D01*
X90293810Y-249714285D01*
X90531905Y-249714285D01*
X90627143Y-249761904D01*
X90674762Y-249809523D01*
X90722381Y-249904761D01*
X90722381Y-250190476D01*
X90674762Y-250285714D01*
X90627143Y-250333333D01*
X82833334Y-263127143D02*
X82785715Y-263174762D01*
X82642858Y-263222381D01*
X82547620Y-263222381D01*
X82404762Y-263174762D01*
X82309524Y-263079524D01*
X82261905Y-262984286D01*
X82214286Y-262793810D01*
X82214286Y-262650952D01*
X82261905Y-262460476D01*
X82309524Y-262365238D01*
X82404762Y-262270000D01*
X82547620Y-262222381D01*
X82642858Y-262222381D01*
X82785715Y-262270000D01*
X82833334Y-262317619D01*
X83690477Y-262555714D02*
X83690477Y-263222381D01*
X83452381Y-262174762D02*
X83214286Y-262889048D01*
X83833334Y-262889048D01*
X79285715Y-274357143D02*
X79238096Y-274404762D01*
X79095239Y-274452381D01*
X79000001Y-274452381D01*
X78857143Y-274404762D01*
X78761905Y-274309524D01*
X78714286Y-274214286D01*
X78666667Y-274023810D01*
X78666667Y-273880952D01*
X78714286Y-273690476D01*
X78761905Y-273595238D01*
X78857143Y-273500000D01*
X79000001Y-273452381D01*
X79095239Y-273452381D01*
X79238096Y-273500000D01*
X79285715Y-273547619D01*
X79904762Y-273452381D02*
X80095239Y-273452381D01*
X80190477Y-273500000D01*
X80285715Y-273595238D01*
X80333334Y-273785714D01*
X80333334Y-274119048D01*
X80285715Y-274309524D01*
X80190477Y-274404762D01*
X80095239Y-274452381D01*
X79904762Y-274452381D01*
X79809524Y-274404762D01*
X79714286Y-274309524D01*
X79666667Y-274119048D01*
X79666667Y-273785714D01*
X79714286Y-273595238D01*
X79809524Y-273500000D01*
X79904762Y-273452381D01*
X80761905Y-274452381D02*
X80761905Y-273452381D01*
X81333334Y-274452381D01*
X81333334Y-273452381D01*
X82333334Y-274452381D02*
X81761905Y-274452381D01*
X82047619Y-274452381D02*
X82047619Y-273452381D01*
X81952381Y-273595238D01*
X81857143Y-273690476D01*
X81761905Y-273738095D01*
X96690476Y-248702381D02*
X96690476Y-247702381D01*
X97071429Y-247702381D01*
X97166667Y-247750000D01*
X97214286Y-247797619D01*
X97261905Y-247892857D01*
X97261905Y-248035714D01*
X97214286Y-248130952D01*
X97166667Y-248178571D01*
X97071429Y-248226190D01*
X96690476Y-248226190D01*
X97880952Y-247702381D02*
X98071429Y-247702381D01*
X98166667Y-247750000D01*
X98261905Y-247845238D01*
X98309524Y-248035714D01*
X98309524Y-248369048D01*
X98261905Y-248559524D01*
X98166667Y-248654762D01*
X98071429Y-248702381D01*
X97880952Y-248702381D01*
X97785714Y-248654762D01*
X97690476Y-248559524D01*
X97642857Y-248369048D01*
X97642857Y-248035714D01*
X97690476Y-247845238D01*
X97785714Y-247750000D01*
X97880952Y-247702381D01*
X98642857Y-247702381D02*
X98880952Y-248702381D01*
X99071429Y-247988095D01*
X99261905Y-248702381D01*
X99500000Y-247702381D01*
X99880952Y-248178571D02*
X100214286Y-248178571D01*
X100357143Y-248702381D02*
X99880952Y-248702381D01*
X99880952Y-247702381D01*
X100357143Y-247702381D01*
X101357143Y-248702381D02*
X101023809Y-248226190D01*
X100785714Y-248702381D02*
X100785714Y-247702381D01*
X101166667Y-247702381D01*
X101261905Y-247750000D01*
X101309524Y-247797619D01*
X101357143Y-247892857D01*
X101357143Y-248035714D01*
X101309524Y-248130952D01*
X101261905Y-248178571D01*
X101166667Y-248226190D01*
X100785714Y-248226190D01*
X81166667Y-254928571D02*
X80833333Y-254928571D01*
X80833333Y-255452381D02*
X80833333Y-254452381D01*
X81309524Y-254452381D01*
X82214286Y-255452381D02*
X81642857Y-255452381D01*
X81928571Y-255452381D02*
X81928571Y-254452381D01*
X81833333Y-254595238D01*
X81738095Y-254690476D01*
X81642857Y-254738095D01*
X73261905Y-255452381D02*
X73261905Y-254452381D01*
X73642858Y-254452381D01*
X73738096Y-254500000D01*
X73785715Y-254547619D01*
X73833334Y-254642857D01*
X73833334Y-254785714D01*
X73785715Y-254880952D01*
X73738096Y-254928571D01*
X73642858Y-254976190D01*
X73261905Y-254976190D01*
X74785715Y-255452381D02*
X74214286Y-255452381D01*
X74500000Y-255452381D02*
X74500000Y-254452381D01*
X74404762Y-254595238D01*
X74309524Y-254690476D01*
X74214286Y-254738095D01*
X103261905Y-273452381D02*
X103261905Y-272452381D01*
X103642858Y-272452381D01*
X103738096Y-272500000D01*
X103785715Y-272547619D01*
X103833334Y-272642857D01*
X103833334Y-272785714D01*
X103785715Y-272880952D01*
X103738096Y-272928571D01*
X103642858Y-272976190D01*
X103261905Y-272976190D01*
X104214286Y-272547619D02*
X104261905Y-272500000D01*
X104357143Y-272452381D01*
X104595239Y-272452381D01*
X104690477Y-272500000D01*
X104738096Y-272547619D01*
X104785715Y-272642857D01*
X104785715Y-272738095D01*
X104738096Y-272880952D01*
X104166667Y-273452381D01*
X104785715Y-273452381D01*
X86433334Y-268552381D02*
X86100000Y-268076190D01*
X85861905Y-268552381D02*
X85861905Y-267552381D01*
X86242858Y-267552381D01*
X86338096Y-267600000D01*
X86385715Y-267647619D01*
X86433334Y-267742857D01*
X86433334Y-267885714D01*
X86385715Y-267980952D01*
X86338096Y-268028571D01*
X86242858Y-268076190D01*
X85861905Y-268076190D01*
X87385715Y-268552381D02*
X86814286Y-268552381D01*
X87100000Y-268552381D02*
X87100000Y-267552381D01*
X87004762Y-267695238D01*
X86909524Y-267790476D01*
X86814286Y-267838095D01*
X79833334Y-263202381D02*
X79500000Y-262726190D01*
X79261905Y-263202381D02*
X79261905Y-262202381D01*
X79642858Y-262202381D01*
X79738096Y-262250000D01*
X79785715Y-262297619D01*
X79833334Y-262392857D01*
X79833334Y-262535714D01*
X79785715Y-262630952D01*
X79738096Y-262678571D01*
X79642858Y-262726190D01*
X79261905Y-262726190D01*
X80214286Y-262297619D02*
X80261905Y-262250000D01*
X80357143Y-262202381D01*
X80595239Y-262202381D01*
X80690477Y-262250000D01*
X80738096Y-262297619D01*
X80785715Y-262392857D01*
X80785715Y-262488095D01*
X80738096Y-262630952D01*
X80166667Y-263202381D01*
X80785715Y-263202381D01*
X79833334Y-260702381D02*
X79500000Y-260226190D01*
X79261905Y-260702381D02*
X79261905Y-259702381D01*
X79642858Y-259702381D01*
X79738096Y-259750000D01*
X79785715Y-259797619D01*
X79833334Y-259892857D01*
X79833334Y-260035714D01*
X79785715Y-260130952D01*
X79738096Y-260178571D01*
X79642858Y-260226190D01*
X79261905Y-260226190D01*
X80166667Y-259702381D02*
X80785715Y-259702381D01*
X80452381Y-260083333D01*
X80595239Y-260083333D01*
X80690477Y-260130952D01*
X80738096Y-260178571D01*
X80785715Y-260273810D01*
X80785715Y-260511905D01*
X80738096Y-260607143D01*
X80690477Y-260654762D01*
X80595239Y-260702381D01*
X80309524Y-260702381D01*
X80214286Y-260654762D01*
X80166667Y-260607143D01*
X104533334Y-255452381D02*
X104200000Y-254976190D01*
X103961905Y-255452381D02*
X103961905Y-254452381D01*
X104342858Y-254452381D01*
X104438096Y-254500000D01*
X104485715Y-254547619D01*
X104533334Y-254642857D01*
X104533334Y-254785714D01*
X104485715Y-254880952D01*
X104438096Y-254928571D01*
X104342858Y-254976190D01*
X103961905Y-254976190D01*
X105390477Y-254785714D02*
X105390477Y-255452381D01*
X105152381Y-254404762D02*
X104914286Y-255119048D01*
X105533334Y-255119048D01*
X104433334Y-265652381D02*
X104100000Y-265176190D01*
X103861905Y-265652381D02*
X103861905Y-264652381D01*
X104242858Y-264652381D01*
X104338096Y-264700000D01*
X104385715Y-264747619D01*
X104433334Y-264842857D01*
X104433334Y-264985714D01*
X104385715Y-265080952D01*
X104338096Y-265128571D01*
X104242858Y-265176190D01*
X103861905Y-265176190D01*
X105338096Y-264652381D02*
X104861905Y-264652381D01*
X104814286Y-265128571D01*
X104861905Y-265080952D01*
X104957143Y-265033333D01*
X105195239Y-265033333D01*
X105290477Y-265080952D01*
X105338096Y-265128571D01*
X105385715Y-265223810D01*
X105385715Y-265461905D01*
X105338096Y-265557143D01*
X105290477Y-265604762D01*
X105195239Y-265652381D01*
X104957143Y-265652381D01*
X104861905Y-265604762D01*
X104814286Y-265557143D01*
X104533334Y-253052381D02*
X104200000Y-252576190D01*
X103961905Y-253052381D02*
X103961905Y-252052381D01*
X104342858Y-252052381D01*
X104438096Y-252100000D01*
X104485715Y-252147619D01*
X104533334Y-252242857D01*
X104533334Y-252385714D01*
X104485715Y-252480952D01*
X104438096Y-252528571D01*
X104342858Y-252576190D01*
X103961905Y-252576190D01*
X105390477Y-252052381D02*
X105200000Y-252052381D01*
X105104762Y-252100000D01*
X105057143Y-252147619D01*
X104961905Y-252290476D01*
X104914286Y-252480952D01*
X104914286Y-252861905D01*
X104961905Y-252957143D01*
X105009524Y-253004762D01*
X105104762Y-253052381D01*
X105295239Y-253052381D01*
X105390477Y-253004762D01*
X105438096Y-252957143D01*
X105485715Y-252861905D01*
X105485715Y-252623810D01*
X105438096Y-252528571D01*
X105390477Y-252480952D01*
X105295239Y-252433333D01*
X105104762Y-252433333D01*
X105009524Y-252480952D01*
X104961905Y-252528571D01*
X104914286Y-252623810D01*
X104433334Y-262952381D02*
X104100000Y-262476190D01*
X103861905Y-262952381D02*
X103861905Y-261952381D01*
X104242858Y-261952381D01*
X104338096Y-262000000D01*
X104385715Y-262047619D01*
X104433334Y-262142857D01*
X104433334Y-262285714D01*
X104385715Y-262380952D01*
X104338096Y-262428571D01*
X104242858Y-262476190D01*
X103861905Y-262476190D01*
X104766667Y-261952381D02*
X105433334Y-261952381D01*
X105004762Y-262952381D01*
X104433334Y-260352381D02*
X104100000Y-259876190D01*
X103861905Y-260352381D02*
X103861905Y-259352381D01*
X104242858Y-259352381D01*
X104338096Y-259400000D01*
X104385715Y-259447619D01*
X104433334Y-259542857D01*
X104433334Y-259685714D01*
X104385715Y-259780952D01*
X104338096Y-259828571D01*
X104242858Y-259876190D01*
X103861905Y-259876190D01*
X105004762Y-259780952D02*
X104909524Y-259733333D01*
X104861905Y-259685714D01*
X104814286Y-259590476D01*
X104814286Y-259542857D01*
X104861905Y-259447619D01*
X104909524Y-259400000D01*
X105004762Y-259352381D01*
X105195239Y-259352381D01*
X105290477Y-259400000D01*
X105338096Y-259447619D01*
X105385715Y-259542857D01*
X105385715Y-259590476D01*
X105338096Y-259685714D01*
X105290477Y-259733333D01*
X105195239Y-259780952D01*
X105004762Y-259780952D01*
X104909524Y-259828571D01*
X104861905Y-259876190D01*
X104814286Y-259971429D01*
X104814286Y-260161905D01*
X104861905Y-260257143D01*
X104909524Y-260304762D01*
X105004762Y-260352381D01*
X105195239Y-260352381D01*
X105290477Y-260304762D01*
X105338096Y-260257143D01*
X105385715Y-260161905D01*
X105385715Y-259971429D01*
X105338096Y-259876190D01*
X105290477Y-259828571D01*
X105195239Y-259780952D01*
X104433334Y-258052381D02*
X104100000Y-257576190D01*
X103861905Y-258052381D02*
X103861905Y-257052381D01*
X104242858Y-257052381D01*
X104338096Y-257100000D01*
X104385715Y-257147619D01*
X104433334Y-257242857D01*
X104433334Y-257385714D01*
X104385715Y-257480952D01*
X104338096Y-257528571D01*
X104242858Y-257576190D01*
X103861905Y-257576190D01*
X104909524Y-258052381D02*
X105100000Y-258052381D01*
X105195239Y-258004762D01*
X105242858Y-257957143D01*
X105338096Y-257814286D01*
X105385715Y-257623810D01*
X105385715Y-257242857D01*
X105338096Y-257147619D01*
X105290477Y-257100000D01*
X105195239Y-257052381D01*
X105004762Y-257052381D01*
X104909524Y-257100000D01*
X104861905Y-257147619D01*
X104814286Y-257242857D01*
X104814286Y-257480952D01*
X104861905Y-257576190D01*
X104909524Y-257623810D01*
X105004762Y-257671429D01*
X105195239Y-257671429D01*
X105290477Y-257623810D01*
X105338096Y-257576190D01*
X105385715Y-257480952D01*
X91757143Y-249752381D02*
X91423809Y-249276190D01*
X91185714Y-249752381D02*
X91185714Y-248752381D01*
X91566667Y-248752381D01*
X91661905Y-248800000D01*
X91709524Y-248847619D01*
X91757143Y-248942857D01*
X91757143Y-249085714D01*
X91709524Y-249180952D01*
X91661905Y-249228571D01*
X91566667Y-249276190D01*
X91185714Y-249276190D01*
X92709524Y-249752381D02*
X92138095Y-249752381D01*
X92423809Y-249752381D02*
X92423809Y-248752381D01*
X92328571Y-248895238D01*
X92233333Y-248990476D01*
X92138095Y-249038095D01*
X93328571Y-248752381D02*
X93423810Y-248752381D01*
X93519048Y-248800000D01*
X93566667Y-248847619D01*
X93614286Y-248942857D01*
X93661905Y-249133333D01*
X93661905Y-249371429D01*
X93614286Y-249561905D01*
X93566667Y-249657143D01*
X93519048Y-249704762D01*
X93423810Y-249752381D01*
X93328571Y-249752381D01*
X93233333Y-249704762D01*
X93185714Y-249657143D01*
X93138095Y-249561905D01*
X93090476Y-249371429D01*
X93090476Y-249133333D01*
X93138095Y-248942857D01*
X93185714Y-248847619D01*
X93233333Y-248800000D01*
X93328571Y-248752381D01*
X101702381Y-253642857D02*
X101226190Y-253976191D01*
X101702381Y-254214286D02*
X100702381Y-254214286D01*
X100702381Y-253833333D01*
X100750000Y-253738095D01*
X100797619Y-253690476D01*
X100892857Y-253642857D01*
X101035714Y-253642857D01*
X101130952Y-253690476D01*
X101178571Y-253738095D01*
X101226190Y-253833333D01*
X101226190Y-254214286D01*
X101702381Y-252690476D02*
X101702381Y-253261905D01*
X101702381Y-252976191D02*
X100702381Y-252976191D01*
X100845238Y-253071429D01*
X100940476Y-253166667D01*
X100988095Y-253261905D01*
X101702381Y-251738095D02*
X101702381Y-252309524D01*
X101702381Y-252023810D02*
X100702381Y-252023810D01*
X100845238Y-252119048D01*
X100940476Y-252214286D01*
X100988095Y-252309524D01*
X97538095Y-266152381D02*
X97538095Y-266961905D01*
X97585714Y-267057143D01*
X97633333Y-267104762D01*
X97728571Y-267152381D01*
X97919048Y-267152381D01*
X98014286Y-267104762D01*
X98061905Y-267057143D01*
X98109524Y-266961905D01*
X98109524Y-266152381D01*
X99109524Y-267152381D02*
X98538095Y-267152381D01*
X98823809Y-267152381D02*
X98823809Y-266152381D01*
X98728571Y-266295238D01*
X98633333Y-266390476D01*
X98538095Y-266438095D01*
X91123809Y-273276190D02*
X91123809Y-273752381D01*
X90790476Y-272752381D02*
X91123809Y-273276190D01*
X91457143Y-272752381D01*
X92314286Y-273752381D02*
X91742857Y-273752381D01*
X92028571Y-273752381D02*
X92028571Y-272752381D01*
X91933333Y-272895238D01*
X91838095Y-272990476D01*
X91742857Y-273038095D01*
M02*
